SplineFontDB: 3.0
FontName: Khottabun
FullName: Khottabun
FamilyName: Khottabun
Weight: Medium
Copyright: Created by Theppitak Karoonboonyanan, with FontForge 2.0 (http://fontforge.sf.net).\n\nTham glyphs are based on UbwManut font by Sanit Pokhaphun, Ubon Ratchathani Rajabhat University, Thailand, 8 September 2004.\n\nThai Noi glyphs are based on TNManut font by Sanit Pokhaphun, Ubon Ratchathani Rajabhat University, Thailand, September 2004.
UComments: "2010-12-9: Created." 
Version: 002.018
ItalicAngle: 0
UnderlinePosition: -174
UnderlineWidth: 184
Ascent: 1556
Descent: 492
LayerCount: 2
Layer: 0 0 "Back"  1
Layer: 1 0 "Fore"  0
XUID: [1021 373 914837695 14756271]
FSType: 8
OS2Version: 0
OS2_WeightWidthSlopeOnly: 0
OS2_UseTypoMetrics: 1
CreationTime: 1291888288
ModificationTime: 1399289181
PfmFamily: 33
TTFWeight: 500
TTFWidth: 5
LineGap: 377
VLineGap: 0
OS2TypoAscent: 0
OS2TypoAOffset: 1
OS2TypoDescent: 0
OS2TypoDOffset: 1
OS2TypoLinegap: 377
OS2WinAscent: 0
OS2WinAOffset: 1
OS2WinDescent: 0
OS2WinDOffset: 1
HheadAscent: 0
HheadAOffset: 1
HheadDescent: 0
HheadDOffset: 1
OS2Vendor: 'PfEd'
Lookup: 4 0 0 "'ccmp' TN conjuncts"  {"'ccmp' TN conjuncts"  } ['ccmp' ('DFLT' <'dflt' > 'lao ' <'LAO ' 'dflt' > ) ]
Lookup: 5 0 0 "'ccmp' Pali ANG-LAN stage 1"  {"'ccmp' Pali ANG-LAN append intermediate"  } ['ccmp' ('DFLT' <'dflt' > ) ]
Lookup: 5 0 0 "'ccmp' Pali ANG-LAN stage 2"  {"'ccmp' Pali ANG-LAN remove intermediate"  } ['ccmp' ('DFLT' <'dflt' > ) ]
Lookup: 6 0 0 "'ccmp' Context-sensitive subjoin"  {"Context-sensitive subjoin convert"  } ['ccmp' ('DFLT' <'dflt' > 'lana' <'LAO ' 'PAL ' 'SAN ' 'THA ' 'dflt' > ) ]
Lookup: 4 0 1 "'ccmp' Subjoined consonants"  {"Subjoined consonants lookup"  } ['ccmp' ('DFLT' <'dflt' > 'lana' <'LAO ' 'PAL ' 'SAN ' 'THA ' 'dflt' > ) ]
Lookup: 5 0 0 "'ccmp' Deep rigid subjoins stage 1"  {"Deep rigid subjoins append intermediate"  } ['ccmp' ('DFLT' <'dflt' > 'lana' <'LAO ' 'PAL ' 'SAN ' 'THA ' 'dflt' > ) ]

StartChar: uni1A20
Encoding: 6688 6688 0
Width: 1800
VWidth: 3390
GlyphClass: 2
Flags: W
HStem: -30 99<524.836 666.835 1272.5 1458.25> 234 99<522.54 667.3> 1104 135<368.011 673.805 1090.16 1377.97>
VStem: -3 135<375.309 815.124> 414 99<137.526 221.059> 678 99<78.2089 223.3> 1576 136<427.805 842.384>
AnchorPoint: "BelowRight" 1425 -63 basechar 0
AnchorPoint: "BelowBase" 880 -63 basechar 0
AnchorPoint: "AboveBase" 880 1324 basechar 0
LayerCount: 2
Back
SplineSet
595.5 105 m 9xbf
 595.5 -30 l 1xbf
 214.5 -30 -3 261 -3 604.5 c 3
 -3 907.5 220.5 1239 505.5 1239 c 3
 648 1239 778.5 1179 880.5 1060.5 c 1
 993 1182 1098 1239 1257 1239 c 3
 1527 1239 1711.5 927 1711.5 604.5 c 3
 1711.5 408 1593 204 1357.5 70.5 c 1
 1368 63 1380 58.5 1393.5 58.5 c 3
 1437 58.5 1503 100.5 1594.5 184.5 c 1
 1525.5 42 1431 -30 1309.5 -30 c 3x7f
 1234.5 -30 1197 -1.5 1197 70.5 c 3
 1197 87 1206 120 1228.5 127.5 c 0
 1410 193.5 1576.5 423 1576.5 604.5 c 3
 1576.5 864 1428 1104 1257 1104 c 3
 1117.5 1104 996 1015.5 880.5 885 c 1
 754.5 1030.5 631.5 1104 505.5 1104 c 3
 303 1104 132 838.5 132 604.5 c 3
 132 315 307.5 105 595.5 105 c 9xbf
513 151.5 m 3
 513 106.5 550.5 69 595.5 69 c 3
 640.5 69 678 106.5 678 151.5 c 3
 678 196.5 640.5 234 595.5 234 c 3
 550.5 234 513 196.5 513 151.5 c 3
595.5 333 m 3
 693 333 777 249 777 151.5 c 3
 777 54 693 -30 595.5 -30 c 3
 499.5 -30 414 55.5 414 151.5 c 3
 414 249 498 333 595.5 333 c 3
EndSplineSet
Fore
SplineSet
596 333 m 3
 694 333 777 250 777 152 c 3
 777 54 694 -30 596 -30 c 3
 215 -30 -3 260 -3 604 c 3
 -3 907 221 1239 506 1239 c 3
 648 1239 778 1178 880 1060 c 1
 992 1182 1098 1239 1257 1239 c 3
 1527 1239 1712 926 1712 604 c 3
 1712 408 1594 204 1358 70 c 1
 1368 62 1380 58 1394 58 c 3
 1438 58 1502 100 1594 184 c 1
 1525 42 1432 -30 1310 -30 c 3
 1235 -30 1197 -2 1197 70 c 3
 1197 86 1206 120 1228 128 c 0
 1410 194 1576 422 1576 604 c 3
 1576 864 1428 1104 1257 1104 c 3
 1117 1104 996 1015 880 885 c 1
 754 1031 632 1104 506 1104 c 3
 304 1104 132 838 132 604 c 3
 132 382 236 205 414 136 c 1
 414 244 490 333 596 333 c 3
513 152 m 3
 513 107 551 69 596 69 c 3
 641 69 678 107 678 152 c 3
 678 197 641 234 596 234 c 3
 551 234 513 197 513 152 c 3
EndSplineSet
LCarets2: 2 0 0 
Ligature2: "ANG-LAN remove intermediate lookup" uni1A58 zerojoin uni1A20
Ligature2: "LV remove intermediate for cons" uni1A20 zerojoin uni1A6E
Ligature2: "LV remove intermediate for cons" uni1A20 zerojoin uni1A6F
Ligature2: "LV remove intermediate for cons" uni1A20 zerojoin uni1A70
Ligature2: "LV remove intermediate for cons" uni1A20 zerojoin uni1A71
Ligature2: "LV remove intermediate for cons" uni1A20 zerojoin uni1A72
Ligature2: "RA-C remove intermediate lookup" uni1A20 zerojoin uni1A55
MultipleSubs2: "ANG-LAN append intermediate lookup" zerojoin uni1A20 uni1A58.lai
MultipleSubs2: "LV E prepend intermediate lookup" uni1A6E uni1A20 zerojoin
MultipleSubs2: "LV AE prepend intermediate lookup" uni1A6F uni1A20 zerojoin
MultipleSubs2: "LV O prepend intermediate lookup" uni1A70 uni1A20 zerojoin
MultipleSubs2: "LV AI MAIMALAI prepend intermediate lookup" uni1A71 uni1A20 zerojoin
MultipleSubs2: "LV AI MAIMUAN prepend intermediate lookup" uni1A72 uni1A20 zerojoin
MultipleSubs2: "RA prepend intermediate lookup" uni1A55 uni1A20 zerojoin
MultipleSubs2: "RA-I prepend intermediate lookup" uni1A55 uni1A65 uni1A20 zerojoin
MultipleSubs2: "RA-II prepend intermediate lookup" uni1A55 uni1A66 uni1A20 zerojoin
MultipleSubs2: "RA-UE prepend intermediate lookup" uni1A55 uni1A67 uni1A20 zerojoin
MultipleSubs2: "RA-UEE prepend intermediate lookup" uni1A55 uni1A68 uni1A20 zerojoin
MultipleSubs2: "RA-U prepend intermediate lookup" uni1A55 uni1A69 uni1A20 zerojoin
MultipleSubs2: "RA-UU prepend intermediate lookup" uni1A55 uni1A6A uni1A20 zerojoin
MultipleSubs2: "RA-deep prepend intermediate lookup" uni1A55.deep uni1A20 zerojoin
EndChar

StartChar: uni1A21
Encoding: 6689 6689 1
Width: 1503
VWidth: 3390
GlyphClass: 2
Flags: W
HStem: -30 135<349.81 903.638> 441 135<354.852 878.609> 582 99<116.201 260.219> 1104 135<389.121 874.408>
VStem: 8 98<691.114 834.321> 78 135<192.717 342.215> 272 98<692.703 835.967> 1209 135<378.861 803.302>
AnchorPoint: "BelowRight" 1128 -63 basechar 0
AnchorPoint: "BelowBase" 624 -63 basechar 0
AnchorPoint: "AboveBase" 624 1324 basechar 0
LayerCount: 2
Back
SplineSet
1293 108 m 3xf9c0
 1293 57 1282.5 12 1260 -22.5 c 1
 1110 255 972 441 624 441 c 3
 429 441 213 378 213 261 c 3xf9c0
 213 159 469.5 105 624 105 c 3
 933 105 1209 237 1209 595.5 c 3
 1209 927 945 1104 624 1104 c 3
 376.5 1104 142.5 970.5 142.5 763.5 c 9
 7.5 763.5 l 1xfcc0
 7.5 1066.5 328.5 1239 624 1239 c 3
 1023 1239 1344 993 1344 595.5 c 3
 1344 132 966 -30 624 -30 c 3
 378 -30 78 66 78 259.5 c 3
 78 468 333 576 624 576 c 3
 1008 576 1293 324 1293 108 c 3xf9c0
106.5 763.5 m 3xfac0
 106.5 718.5 144 681 189 681 c 3
 234 681 271.5 718.5 271.5 763.5 c 3
 271.5 808.5 234 846 189 846 c 3
 144 846 106.5 808.5 106.5 763.5 c 3xfac0
189 945 m 3
 286.5 945 370.5 861 370.5 763.5 c 3
 370.5 666 286.5 582 189 582 c 3
 93 582 7.5 667.5 7.5 763.5 c 3xfcc0
 7.5 861 91.5 945 189 945 c 3
EndSplineSet
Fore
SplineSet
106 764 m 3xfb
 106 719 144 681 189 681 c 3
 234 681 272 719 272 764 c 3
 272 809 234 846 189 846 c 3
 144 846 106 809 106 764 c 3xfb
1078 254 m 1
 972 371 837 441 624 441 c 3
 429 441 213 378 213 261 c 3xf7
 213 159 470 105 624 105 c 3
 801 105 968 149 1078 254 c 1
1162 372 m 1
 1192 434 1209 508 1209 596 c 3
 1209 928 945 1104 624 1104 c 3
 459 1104 299 1044 212 944 c 1
 299 932 370 854 370 764 c 3
 370 666 287 582 189 582 c 3
 93 582 8 668 8 764 c 3xfb
 8 1067 328 1239 624 1239 c 3
 1023 1239 1344 994 1344 596 c 3
 1344 456 1309 343 1252 255 c 1
 1279 207 1293 156 1293 108 c 3
 1293 57 1282 12 1260 -22 c 1
 1227 40 1194 96 1160 147 c 1
 1019 21 816 -30 624 -30 c 3
 378 -30 78 66 78 260 c 3
 78 468 333 576 624 576 c 3
 850 576 1042 489 1162 372 c 1
EndSplineSet
MultipleSubs2: "RA-deep prepend intermediate lookup" uni1A55.deep uni1A21 zerojoin
MultipleSubs2: "RA-UU prepend intermediate lookup" uni1A55 uni1A6A uni1A21 zerojoin
MultipleSubs2: "RA-U prepend intermediate lookup" uni1A55 uni1A69 uni1A21 zerojoin
MultipleSubs2: "RA-UEE prepend intermediate lookup" uni1A55 uni1A68 uni1A21 zerojoin
MultipleSubs2: "RA-UE prepend intermediate lookup" uni1A55 uni1A67 uni1A21 zerojoin
MultipleSubs2: "RA-II prepend intermediate lookup" uni1A55 uni1A66 uni1A21 zerojoin
MultipleSubs2: "RA-I prepend intermediate lookup" uni1A55 uni1A65 uni1A21 zerojoin
Ligature2: "RA-C remove intermediate lookup" uni1A21 zerojoin uni1A55
MultipleSubs2: "RA prepend intermediate lookup" uni1A55 uni1A21 zerojoin
Ligature2: "LV remove intermediate for cons" uni1A21 zerojoin uni1A72
Ligature2: "LV remove intermediate for cons" uni1A21 zerojoin uni1A71
Ligature2: "LV remove intermediate for cons" uni1A21 zerojoin uni1A70
Ligature2: "LV remove intermediate for cons" uni1A21 zerojoin uni1A6F
Ligature2: "LV remove intermediate for cons" uni1A21 zerojoin uni1A6E
MultipleSubs2: "LV AI MAIMUAN prepend intermediate lookup" uni1A72 uni1A21 zerojoin
MultipleSubs2: "LV AI MAIMALAI prepend intermediate lookup" uni1A71 uni1A21 zerojoin
MultipleSubs2: "LV O prepend intermediate lookup" uni1A70 uni1A21 zerojoin
MultipleSubs2: "LV AE prepend intermediate lookup" uni1A6F uni1A21 zerojoin
MultipleSubs2: "LV E prepend intermediate lookup" uni1A6E uni1A21 zerojoin
LCarets2: 3 0 0 0 
Ligature2: "ANG-LAN remove intermediate lookup" uni1A58 zerojoin uni1A21
MultipleSubs2: "ANG-LAN append intermediate lookup" zerojoin uni1A21 uni1A58.lai
EndChar

StartChar: uni1A23
Encoding: 6691 6691 2
Width: 1629
VWidth: 3390
GlyphClass: 2
Flags: W
HStem: -30 99<488.085 630.835 1114.5 1299.57> 234 99<486.54 631.3> 1104 135<517.936 1015.34>
VStem: 18 135<324.544 776.888> 378 99<137.526 221.059> 642 99<78.2089 223.3> 1377 135<389.549 777.23>
AnchorPoint: "BelowRight" 1254 -63 basechar 0
AnchorPoint: "BelowBase" 780 -63 basechar 0
AnchorPoint: "AboveBase" 780 1324 basechar 0
LayerCount: 2
Back
SplineSet
559.5 105 m 9
 559.5 -30 l 1
 165 -30 18 258 18 561 c 3
 18 979.5 354 1239 780 1239 c 3
 1182 1239 1512 943.5 1512 582 c 3
 1512 366 1410 187.5 1201.5 69 c 1
 1209 61.5 1228.5 58.5 1237.5 58.5 c 3
 1281 58.5 1347 100.5 1437 183 c 1
 1366.5 40.5 1272 -30 1152 -30 c 3
 1077 -30 1041 -1.5 1041 70.5 c 3
 1041 88.5 1057.5 121.5 1072.5 127.5 c 0
 1237.5 192 1377 390 1377 582 c 3
 1377 880.5 1089 1104 780 1104 c 3
 429 1104 153 897 153 561 c 3
 153 304.5 264 105 559.5 105 c 9
477 151.5 m 3x3e54
 477 106.5 514.5 69 559.5 69 c 3
 604.5 69 642 106.5 642 151.5 c 3
 642 196.5 604.5 234 559.5 234 c 3
 514.5 234 477 196.5 477 151.5 c 3x3e54
559.5 333 m 3
 657 333 741 249 741 151.5 c 3
 741 54 657 -30 559.5 -30 c 3
 463.5 -30 378 55.5 378 151.5 c 3x3e4c
 378 249 462 333 559.5 333 c 3
EndSplineSet
Fore
SplineSet
560 333 m 3
 658 333 741 250 741 152 c 3
 741 54 658 -30 560 -30 c 3
 166 -30 18 258 18 561 c 3
 18 979 354 1239 780 1239 c 3
 1182 1239 1512 944 1512 582 c 3
 1512 366 1410 187 1202 69 c 1
 1210 61 1229 58 1238 58 c 3
 1282 58 1347 101 1437 183 c 1
 1367 41 1272 -30 1152 -30 c 3
 1077 -30 1041 -2 1041 70 c 3
 1041 88 1057 122 1072 128 c 0
 1237 194 1377 390 1377 582 c 3
 1377 880 1089 1104 780 1104 c 3
 429 1104 153 897 153 561 c 3
 153 366 218 202 378 136 c 1
 378 244 454 333 560 333 c 3
477 152 m 3
 477 107 515 69 560 69 c 3
 605 69 642 107 642 152 c 3
 642 197 605 234 560 234 c 3
 515 234 477 197 477 152 c 3
EndSplineSet
MultipleSubs2: "RA-deep prepend intermediate lookup" uni1A55.deep uni1A23 zerojoin
MultipleSubs2: "RA-UU prepend intermediate lookup" uni1A55 uni1A6A uni1A23 zerojoin
MultipleSubs2: "RA-U prepend intermediate lookup" uni1A55 uni1A69 uni1A23 zerojoin
MultipleSubs2: "RA-UEE prepend intermediate lookup" uni1A55 uni1A68 uni1A23 zerojoin
MultipleSubs2: "RA-UE prepend intermediate lookup" uni1A55 uni1A67 uni1A23 zerojoin
MultipleSubs2: "RA-II prepend intermediate lookup" uni1A55 uni1A66 uni1A23 zerojoin
MultipleSubs2: "RA-I prepend intermediate lookup" uni1A55 uni1A65 uni1A23 zerojoin
Ligature2: "RA-C remove intermediate lookup" uni1A23 zerojoin uni1A55
MultipleSubs2: "RA prepend intermediate lookup" uni1A55 uni1A23 zerojoin
Ligature2: "LV remove intermediate for cons" uni1A23 zerojoin uni1A72
Ligature2: "LV remove intermediate for cons" uni1A23 zerojoin uni1A71
Ligature2: "LV remove intermediate for cons" uni1A23 zerojoin uni1A70
Ligature2: "LV remove intermediate for cons" uni1A23 zerojoin uni1A6F
Ligature2: "LV remove intermediate for cons" uni1A23 zerojoin uni1A6E
MultipleSubs2: "LV AI MAIMUAN prepend intermediate lookup" uni1A72 uni1A23 zerojoin
MultipleSubs2: "LV AI MAIMALAI prepend intermediate lookup" uni1A71 uni1A23 zerojoin
MultipleSubs2: "LV O prepend intermediate lookup" uni1A70 uni1A23 zerojoin
MultipleSubs2: "LV AE prepend intermediate lookup" uni1A6F uni1A23 zerojoin
MultipleSubs2: "LV E prepend intermediate lookup" uni1A6E uni1A23 zerojoin
LCarets2: 3 0 0 0 
Ligature2: "ANG-LAN remove intermediate lookup" uni1A58 zerojoin uni1A23
MultipleSubs2: "ANG-LAN append intermediate lookup" zerojoin uni1A23 uni1A58.lai
EndChar

StartChar: uni1A25
Encoding: 6693 6693 3
Width: 2143
VWidth: 3390
GlyphClass: 2
Flags: W
HStem: -30 135<174.845 333.896 801.744 987.125 1499.42 1730.23> 138 135<487.104 647.256> 700 100<79.7258 226.704> 964 100<153 226.644> 984 135<377.5 511.028> 1104 135<153.646 290.63 594.82 785.458> 1120 119<1161.5 1290.63 1687 1815.87>
VStem: -28 98<811.509 952.071> 14 134<130.669 385.076> 236 98<811.087 952.913> 832 136<824.908 1059.33> 1264 136<475.463 868.459> 1870 136<290.09 791.881>
DStem2: 228 585 363 496 0.936329 0.351123<-104.943 634.648>
AnchorPoint: "BelowRight" 1768 -63 basechar 0
AnchorPoint: "BelowBase" 1053 -63 basechar 0
AnchorPoint: "AboveBase" 1053 1324 basechar 0
LayerCount: 2
Back
SplineSet
70.5 882 m 3
 70.5 837 108 799.5 153 799.5 c 3
 198 799.5 235.5 837 235.5 882 c 3
 235.5 927 198 964.5 153 964.5 c 3
 108 964.5 70.5 927 70.5 882 c 3
1869 1023 m 0
 1810.5 1089 1761 1120.5 1750.5 1120.5 c 3
 1731 1120.5 1722 1116 1722 1104 c 3
 1722 1093.5 1746 1065 1795.5 1020 c 0
 1915.5 906 2005.5 769.5 2005.5 562.5 c 3
 2005.5 310.5 1911 -30 1611 -30 c 3
 1441.5 -30 1354.5 64.5 1266 264 c 1
 1146 67.5 1018.5 -30 882 -30 c 3
 745.5 -30 637.5 138 567 138 c 3
 496.5 138 390 -30 253.5 -30 c 3
 117 -30 13.5 93 13.5 246 c 3
 13.5 384 103.5 538.5 228 585 c 2
 628.5 735 l 2
 786 793.5 832.5 847.5 832.5 952.5 c 3
 832.5 1017 775.5 1104 696 1104 c 3
 585 1104 567 984 450 984 c 3
 336 984 271.5 1104 211.5 1104 c 3
 144 1104 106.5 970.5 106.5 882 c 9
 -28.5 882 l 1
 -28.5 1098 84 1239 211.5 1239 c 3
 340.5 1239 393 1119 450 1119 c 3
 508.5 1119 517.5 1239 696 1239 c 3
 847.5 1239 967.5 1098 967.5 952.5 c 3
 967.5 826.5 873 672 756 631.5 c 2
 363 496.5 l 2
 204 442.5 148.5 354 148.5 246 c 3
 148.5 175.5 181.5 105 253.5 105 c 3
 324 105 430.5 273 567 273 c 3
 703.5 273 811.5 105 882 105 c 3
 1044 105 1264.5 468 1264.5 658.5 c 3
 1264.5 801 1224 1002 1039.5 1063.5 c 1
 1075.5 1180.5 1126.5 1239 1192.5 1239 c 3
 1243.5 1239 1299 1200 1360.5 1122 c 0
 1419 1047 1449 984 1449 933 c 3
 1449 928.5 1449 924 1443 924 c 3
 1435.5 924 1402.5 957 1344 1023 c 128
 1285.5 1089 1246.5 1120.5 1225.5 1120.5 c 3
 1206 1120.5 1197 1116 1197 1104 c 3
 1197 1093.5 1221 1065 1270.5 1020 c 0
 1335 961.5 1399.5 775.5 1399.5 658.5 c 3
 1399.5 630 1371 492 1371 462 c 3
 1371 304.5 1465.5 105 1611 105 c 3
 1794 105 1870.5 339 1870.5 562.5 c 3
 1870.5 786 1749 1002 1564.5 1063.5 c 1
 1600.5 1180.5 1651.5 1239 1717.5 1239 c 3
 1768.5 1239 1824 1200 1885.5 1122 c 0
 1944 1047 1974 984 1974 933 c 3
 1974 928.5 1974 924 1968 924 c 3
 1960.5 924 1927.5 957 1869 1023 c 0
153 1063.5 m 131
 250.5 1063.5 334.5 979.5 334.5 882 c 131
 334.5 784.5 250.5 700.5 153 700.5 c 131
 57 700.5 -28.5 786 -28.5 882 c 3
 -28.5 979.5 55.5 1063.5 153 1063.5 c 131
EndSplineSet
Fore
SplineSet
153 1064 m 1xf4f8
 251 1064 334 980 334 882 c 3
 334 784 251 700 153 700 c 3
 57 700 -28 786 -28 882 c 3
 -28 1098 84 1239 212 1239 c 3xf578
 341 1239 393 1119 450 1119 c 3xe978
 508 1119 518 1239 696 1239 c 3xe578
 848 1239 968 1098 968 952 c 3
 968 826 873 672 756 632 c 2
 363 496 l 2
 204 442 148 354 148 246 c 3
 148 176 182 105 254 105 c 3
 324 105 431 273 567 273 c 3
 703 273 812 105 882 105 c 3
 1044 105 1264 468 1264 658 c 3
 1264 800 1224 1002 1040 1064 c 1
 1076 1181 1126 1239 1192 1239 c 3
 1243 1239 1298 1200 1360 1122 c 1
 1418 1047 1449 984 1449 933 c 0
 1449 929 1449 924 1443 924 c 0
 1435 924 1402 957 1344 1023 c 0
 1286 1089 1247 1120 1226 1120 c 3xf2f8
 1206 1120 1197 1116 1197 1104 c 3xe4f8
 1197 1094 1220 1065 1270 1020 c 0
 1334 962 1400 775 1400 658 c 3
 1400 630 1371 492 1371 462 c 3
 1371 304 1465 105 1611 105 c 3
 1794 105 1870 338 1870 562 c 3
 1870 786 1748 1002 1564 1064 c 1
 1600 1181 1652 1239 1718 1239 c 3
 1769 1239 1824 1200 1886 1122 c 1
 1944 1047 1974 984 1974 933 c 0
 1974 929 1974 924 1968 924 c 0
 1960 924 1927 957 1869 1023 c 0
 1811 1089 1760 1120 1750 1120 c 3xf2f8
 1730 1120 1722 1116 1722 1104 c 3
 1722 1094 1746 1065 1796 1020 c 1
 1916 906 2006 769 2006 562 c 3
 2006 310 1911 -30 1611 -30 c 3
 1441 -30 1354 64 1266 264 c 1
 1146 68 1018 -30 882 -30 c 3
 746 -30 637 138 567 138 c 3
 497 138 390 -30 254 -30 c 3
 118 -30 14 93 14 246 c 3
 14 384 104 539 228 585 c 2
 628 735 l 1
 786 793 832 847 832 952 c 3
 832 1016 776 1104 696 1104 c 3xe4f8
 585 1104 567 984 450 984 c 3xe8f8
 336 984 272 1104 212 1104 c 3
 190 1104 169 1088 153 1064 c 1xf4f8
70 882 m 3
 70 837 108 800 153 800 c 3
 198 800 236 837 236 882 c 3
 236 927 198 964 153 964 c 3
 108 964 70 927 70 882 c 3
EndSplineSet
MultipleSubs2: "RA-deep prepend intermediate lookup" uni1A55.deep uni1A25 zerojoin
MultipleSubs2: "RA-UU prepend intermediate lookup" uni1A55 uni1A6A uni1A25 zerojoin
MultipleSubs2: "RA-U prepend intermediate lookup" uni1A55 uni1A69 uni1A25 zerojoin
MultipleSubs2: "RA-UEE prepend intermediate lookup" uni1A55 uni1A68 uni1A25 zerojoin
MultipleSubs2: "RA-UE prepend intermediate lookup" uni1A55 uni1A67 uni1A25 zerojoin
MultipleSubs2: "RA-II prepend intermediate lookup" uni1A55 uni1A66 uni1A25 zerojoin
MultipleSubs2: "RA-I prepend intermediate lookup" uni1A55 uni1A65 uni1A25 zerojoin
Ligature2: "RA-C remove intermediate lookup" uni1A25 zerojoin uni1A55
MultipleSubs2: "RA prepend intermediate lookup" uni1A55 uni1A25 zerojoin
Ligature2: "LV remove intermediate for cons" uni1A25 zerojoin uni1A72
Ligature2: "LV remove intermediate for cons" uni1A25 zerojoin uni1A71
Ligature2: "LV remove intermediate for cons" uni1A25 zerojoin uni1A70
Ligature2: "LV remove intermediate for cons" uni1A25 zerojoin uni1A6F
Ligature2: "LV remove intermediate for cons" uni1A25 zerojoin uni1A6E
MultipleSubs2: "LV AI MAIMUAN prepend intermediate lookup" uni1A72 uni1A25 zerojoin
MultipleSubs2: "LV AI MAIMALAI prepend intermediate lookup" uni1A71 uni1A25 zerojoin
MultipleSubs2: "LV O prepend intermediate lookup" uni1A70 uni1A25 zerojoin
MultipleSubs2: "LV AE prepend intermediate lookup" uni1A6F uni1A25 zerojoin
MultipleSubs2: "LV E prepend intermediate lookup" uni1A6E uni1A25 zerojoin
LCarets2: 3 0 0 0 
Ligature2: "ANG-LAN remove intermediate lookup" uni1A58 zerojoin uni1A25
MultipleSubs2: "ANG-LAN append intermediate lookup" zerojoin uni1A25 uni1A58.lai
EndChar

StartChar: uni1A26
Encoding: 6694 6694 4
Width: 1348
VWidth: 3390
GlyphClass: 2
Flags: W
HStem: -30 135<151.031 318.28> 118 136<480.772 915.598> 1104 135<367.185 831.433>
VStem: 0 135<120.145 298.495 675.693 917.974>
AnchorPoint: "BelowRight" 974 -63 basechar 0
AnchorPoint: "BelowBase" 597 -63 basechar 0
AnchorPoint: "AboveBase" 597 1324 basechar 0
LayerCount: 2
Fore
SplineSet
0 784 m 3
 0 1056 282 1239 597 1239 c 3
 927 1239 1212 1020 1212 706 c 3
 1212 694 1195 603 1161 432 c 1
 1110 822 989 1104 597 1104 c 3
 377 1104 135 988 135 784 c 3
 135 610 374 604 374 482 c 1
 215 366 135 258 135 208 c 3
 135 145 172 105 242 105 c 1
 284 125 467 254 674 254 c 3
 844 254 1116 168 1116 20 c 3
 1116 6 1114 -9 1110 -24 c 1
 1034 70 888 118 674 118 c 3
 536 118 377 30 261 -30 c 1
 97 -30 0 49 0 232 c 1
 22 284 88 390 176 494 c 1
 64 570 0 679 0 784 c 3
EndSplineSet
MultipleSubs2: "RA-deep prepend intermediate lookup" uni1A55.deep uni1A26 zerojoin
MultipleSubs2: "RA-UU prepend intermediate lookup" uni1A55 uni1A6A uni1A26 zerojoin
MultipleSubs2: "RA-U prepend intermediate lookup" uni1A55 uni1A69 uni1A26 zerojoin
MultipleSubs2: "RA-UEE prepend intermediate lookup" uni1A55 uni1A68 uni1A26 zerojoin
MultipleSubs2: "RA-UE prepend intermediate lookup" uni1A55 uni1A67 uni1A26 zerojoin
MultipleSubs2: "RA-II prepend intermediate lookup" uni1A55 uni1A66 uni1A26 zerojoin
MultipleSubs2: "RA-I prepend intermediate lookup" uni1A55 uni1A65 uni1A26 zerojoin
Ligature2: "RA-C remove intermediate lookup" uni1A26 zerojoin uni1A55
MultipleSubs2: "RA prepend intermediate lookup" uni1A55 uni1A26 zerojoin
Ligature2: "LV remove intermediate for cons" uni1A26 zerojoin uni1A72
Ligature2: "LV remove intermediate for cons" uni1A26 zerojoin uni1A71
Ligature2: "LV remove intermediate for cons" uni1A26 zerojoin uni1A70
Ligature2: "LV remove intermediate for cons" uni1A26 zerojoin uni1A6F
Ligature2: "LV remove intermediate for cons" uni1A26 zerojoin uni1A6E
MultipleSubs2: "LV AI MAIMUAN prepend intermediate lookup" uni1A72 uni1A26 zerojoin
MultipleSubs2: "LV AI MAIMALAI prepend intermediate lookup" uni1A71 uni1A26 zerojoin
MultipleSubs2: "LV O prepend intermediate lookup" uni1A70 uni1A26 zerojoin
MultipleSubs2: "LV AE prepend intermediate lookup" uni1A6F uni1A26 zerojoin
MultipleSubs2: "LV E prepend intermediate lookup" uni1A6E uni1A26 zerojoin
LCarets2: 3 0 0 0 
Ligature2: "ANG-LAN remove intermediate lookup" uni1A58 zerojoin uni1A26
MultipleSubs2: "ANG-LAN append intermediate lookup" zerojoin uni1A26 uni1A58.lai
EndChar

StartChar: uni1A27
Encoding: 6695 6695 5
Width: 1473
VWidth: 3373
GlyphClass: 2
Flags: W
HStem: -30 135<458.32 898.691> 1104 135<448.554 898.691>
VStem: 297 135<492.771 647.523> 1216 136<412.373 795.752>
AnchorPoint: "BelowRight" 1098 -63 basechar 0
AnchorPoint: "BelowBase" 681 -63 basechar 0
AnchorPoint: "AboveBase" 681 1324 basechar 0
LayerCount: 2
Back
SplineSet
145.5 604.5 m 0
 145.5 328.5 385.5 105 681 105 c 0
 976.5 105 1216.5 328.5 1216.5 604.5 c 0
 1216.5 880.5 976.5 1104 681 1104 c 0
 385.5 1104 145.5 880.5 145.5 604.5 c 0
10.5 604.5 m 0
 10.5 954 310.5 1239 681 1239 c 0
 1051.5 1239 1351.5 954 1351.5 604.5 c 0
 1351.5 255 1051.5 -30 681 -30 c 0
 310.5 -30 10.5 255 10.5 604.5 c 0
EndSplineSet
Fore
SplineSet
1352 604 m 3
 1352 253 1051 -30 681 -30 c 3
 372 -30 122 180 40 322 c 1
 202 439 297 506 297 586 c 3
 297 664 173 677 -4 680 c 1
 65 996 288 1239 681 1239 c 3
 1051 1239 1352 955 1352 604 c 3
236 297 m 1
 314 222 457 105 681 105 c 3
 977 105 1216 328 1216 604 c 3
 1216 880 977 1104 681 1104 c 3
 457 1104 278 1006 178 802 c 1
 361 784 432 690 432 586 c 3
 432 474 370 405 236 297 c 1
EndSplineSet
MultipleSubs2: "RA-deep prepend intermediate lookup" uni1A55.deep uni1A27 zerojoin
MultipleSubs2: "RA-UU prepend intermediate lookup" uni1A55 uni1A6A uni1A27 zerojoin
MultipleSubs2: "RA-U prepend intermediate lookup" uni1A55 uni1A69 uni1A27 zerojoin
MultipleSubs2: "RA-UEE prepend intermediate lookup" uni1A55 uni1A68 uni1A27 zerojoin
MultipleSubs2: "RA-UE prepend intermediate lookup" uni1A55 uni1A67 uni1A27 zerojoin
MultipleSubs2: "RA-II prepend intermediate lookup" uni1A55 uni1A66 uni1A27 zerojoin
MultipleSubs2: "RA-I prepend intermediate lookup" uni1A55 uni1A65 uni1A27 zerojoin
Ligature2: "RA-C remove intermediate lookup" uni1A27 zerojoin uni1A55
MultipleSubs2: "RA prepend intermediate lookup" uni1A55 uni1A27 zerojoin
Ligature2: "LV remove intermediate for cons" uni1A27 zerojoin uni1A72
Ligature2: "LV remove intermediate for cons" uni1A27 zerojoin uni1A71
Ligature2: "LV remove intermediate for cons" uni1A27 zerojoin uni1A70
Ligature2: "LV remove intermediate for cons" uni1A27 zerojoin uni1A6F
Ligature2: "LV remove intermediate for cons" uni1A27 zerojoin uni1A6E
MultipleSubs2: "LV AI MAIMUAN prepend intermediate lookup" uni1A72 uni1A27 zerojoin
MultipleSubs2: "LV AI MAIMALAI prepend intermediate lookup" uni1A71 uni1A27 zerojoin
MultipleSubs2: "LV O prepend intermediate lookup" uni1A70 uni1A27 zerojoin
MultipleSubs2: "LV AE prepend intermediate lookup" uni1A6F uni1A27 zerojoin
MultipleSubs2: "LV E prepend intermediate lookup" uni1A6E uni1A27 zerojoin
LCarets2: 3 0 0 0 
Ligature2: "ANG-LAN remove intermediate lookup" uni1A58 zerojoin uni1A27
MultipleSubs2: "ANG-LAN append intermediate lookup" zerojoin uni1A27 uni1A58.lai
EndChar

StartChar: uni1A28
Encoding: 6696 6696 6
Width: 1497
VWidth: 3390
GlyphClass: 2
Flags: W
HStem: -30 135<595.671 957.322> -30 99<173.511 313.327> 219 99<173.511 343.157> 378 99<223.114 368.016> 642 99<222.209 367.272> 1104 135<487.015 908.367>
VStem: 2 142<928.696 1058.32> 68 98<75.9239 212.076> 114 99<487.114 630.835> 376 136<291.777 623.218> 1222 136<409.204 792.714>
AnchorPoint: "BelowRight" 1122 -63 basechar 0
AnchorPoint: "BelowBase" 706 -63 basechar 0
AnchorPoint: "AboveBase" 706 1324 basechar 0
LayerCount: 2
Back
SplineSet
213 559.5 m 3x3e70
 213 514.5 250.5 477 295.5 477 c 3
 340.5 477 378 514.5 378 559.5 c 3
 378 604.5 340.5 642 295.5 642 c 3
 250.5 642 213 604.5 213 559.5 c 3x3e70
295.5 741 m 3
 393 741 477 657 477 559.5 c 3
 477 462 393 378 295.5 378 c 3
 199.5 378 114 463.5 114 559.5 c 3
 114 657 198 741 295.5 741 c 3
241.5 219 m 3
 199.5 219 166.5 186 166.5 144 c 3x7e84
 166.5 102 199.5 69 241.5 69 c 3
 351 69 376.5 307.5 376.5 379.5 c 3x3e0c
 376.5 468 360 546 334.5 585 c 1
 447 657 l 17
 492 591 511.5 495 511.5 379.5 c 3x3e10
 511.5 231 423 -30 241.5 -30 c 3
 145.5 -30 67.5 48 67.5 144 c 3
 67.5 240 145.5 318 241.5 318 c 3
 460.5 318 508.5 105 798 105 c 3
 1036.5 105 1222.5 376.5 1222.5 604.5 c 3
 1222.5 870 987 1104 706.5 1104 c 3
 628.5 1104 495 1068 327 1002 c 0
 159 936 58.5 903 28.5 903 c 3
 10.5 903 1.5 915 1.5 937.5 c 3
 1.5 1023 57 1093.5 168 1146 c 0
 208.5 1165.5 300 1192.5 444 1230 c 1
 277.5 1134 l 2
 192 1084.5 144 1044 144 1029 c 3
 144 1023 151.5 1023 162 1023 c 3
 183 1023 232.5 1051.5 310.5 1107 c 0
 460.5 1216.5 501 1239 706.5 1239 c 3
 1059 1239 1357.5 951 1357.5 604.5 c 3
 1357.5 279 1093.5 -30 798 -30 c 3xbf
 429 -30 391.5 219 241.5 219 c 3
EndSplineSet
Fore
SplineSet
213 560 m 3x3ce0
 213 515 251 477 296 477 c 3
 341 477 378 515 378 560 c 3
 378 605 341 642 296 642 c 3
 251 642 213 605 213 560 c 3x3ce0
344 177 m 1
 312 203 281 219 242 219 c 3
 200 219 166 186 166 144 c 3
 166 102 200 69 242 69 c 3x7d60
 292 69 323 117 344 177 c 1
296 741 m 3
 462 741 512 558 512 380 c 3
 512 334 502 275 484 218 c 1
 562 162 648 105 798 105 c 3
 1036 105 1222 376 1222 604 c 3
 1222 870 986 1104 706 1104 c 3
 628 1104 495 1068 327 1002 c 0
 159 936 58 903 28 903 c 3
 10 903 2 916 2 938 c 3
 2 1024 57 1094 168 1146 c 1
 208 1166 300 1192 444 1230 c 1
 278 1134 l 2
 192 1084 144 1044 144 1029 c 3
 144 1023 152 1023 162 1023 c 3
 183 1023 232 1051 310 1107 c 0
 460 1217 500 1239 706 1239 c 3
 1058 1239 1358 950 1358 604 c 3
 1358 278 1094 -30 798 -30 c 3xbe60
 609 -30 509 36 434 99 c 1
 389 25 324 -30 242 -30 c 3
 146 -30 68 48 68 144 c 3x7d60
 68 240 146 318 242 318 c 3
 292 318 331 306 369 290 c 1
 373 328 376 360 376 380 c 3
 376 386 376 392 376 398 c 1
 352 386 324 378 296 378 c 3
 200 378 114 464 114 560 c 3x7ce0
 114 658 198 741 296 741 c 3
EndSplineSet
MultipleSubs2: "RA-deep prepend intermediate lookup" uni1A55.deep uni1A28 zerojoin
MultipleSubs2: "RA-UU prepend intermediate lookup" uni1A55 uni1A6A uni1A28 zerojoin
MultipleSubs2: "RA-U prepend intermediate lookup" uni1A55 uni1A69 uni1A28 zerojoin
MultipleSubs2: "RA-UEE prepend intermediate lookup" uni1A55 uni1A68 uni1A28 zerojoin
MultipleSubs2: "RA-UE prepend intermediate lookup" uni1A55 uni1A67 uni1A28 zerojoin
MultipleSubs2: "RA-II prepend intermediate lookup" uni1A55 uni1A66 uni1A28 zerojoin
MultipleSubs2: "RA-I prepend intermediate lookup" uni1A55 uni1A65 uni1A28 zerojoin
Ligature2: "RA-C remove intermediate lookup" uni1A28 zerojoin uni1A55
MultipleSubs2: "RA prepend intermediate lookup" uni1A55 uni1A28 zerojoin
Ligature2: "LV remove intermediate for cons" uni1A28 zerojoin uni1A72
Ligature2: "LV remove intermediate for cons" uni1A28 zerojoin uni1A71
Ligature2: "LV remove intermediate for cons" uni1A28 zerojoin uni1A70
Ligature2: "LV remove intermediate for cons" uni1A28 zerojoin uni1A6F
Ligature2: "LV remove intermediate for cons" uni1A28 zerojoin uni1A6E
MultipleSubs2: "LV AI MAIMUAN prepend intermediate lookup" uni1A72 uni1A28 zerojoin
MultipleSubs2: "LV AI MAIMALAI prepend intermediate lookup" uni1A71 uni1A28 zerojoin
MultipleSubs2: "LV O prepend intermediate lookup" uni1A70 uni1A28 zerojoin
MultipleSubs2: "LV AE prepend intermediate lookup" uni1A6F uni1A28 zerojoin
MultipleSubs2: "LV E prepend intermediate lookup" uni1A6E uni1A28 zerojoin
LCarets2: 3 0 0 0 
Ligature2: "ANG-LAN remove intermediate lookup" uni1A58 zerojoin uni1A28
MultipleSubs2: "ANG-LAN append intermediate lookup" zerojoin uni1A28 uni1A58.lai
EndChar

StartChar: uni1A29
Encoding: 6697 6697 7
Width: 1423
VWidth: 3390
GlyphClass: 2
Flags: W
HStem: -30 135<237.234 447.366 836.634 1016.49> 99 135<552.634 731.366> 402 99<1063.11 1205.4> 666 99<1063.81 1190.54> 1104 135<420.111 922.131>
VStem: 88 136<120.205 267.673> 279 135<415.551 490.945> 954 99<511.114 654.835> 1216 215<428 626.197> 1401 30<354.148 400.444>
AnchorPoint: "BelowRight" 1048 -63 basechar 0
AnchorPoint: "BelowBase" 657 -63 basechar 0
AnchorPoint: "AboveBase" 657 1324 basechar 0
LayerCount: 2
Back
SplineSet
1216.5 607.5 m 3
 1216.5 633 1210.5 675 1203 711 c 0
 1152 970.5 964.5 1104 657 1104 c 3
 330 1104 216 937.5 147 669 c 1
 333 613.5 414 558 414 454.5 c 3
 414 334.5 223.5 268.5 223.5 216 c 3
 223.5 136.5 253.5 105 358.5 105 c 3
 417 105 529.5 234 642 234 c 3
 754.5 234 867 105 925.5 105 c 3
 963 105 1071 184.5 1084.5 204 c 1
 1104 181.5 1114.5 145.5 1114.5 120 c 3
 1114.5 46.5 1003.5 -30 925.5 -30 c 3
 813 -30 700.5 99 642 99 c 3
 583.5 99 471 -30 358.5 -30 c 3
 186 -30 88.5 52.5 88.5 216 c 3
 88.5 355.5 279 426 279 454.5 c 3
 279 483 166.5 525 0 574.5 c 1
 42 1009.5 261 1239 657 1239 c 3
 1018.5 1239 1332 1011 1332 697.5 c 3
 1332 540 1279.5 402 1135.5 402 c 3
 1039.5 402 954 487.5 954 583.5 c 3x3e4c
 954 681 1035 765 1135.5 765 c 3
 1237.5 765 1306.5 708 1329 688.5 c 0
 1386 637.5 1431 580.5 1431 456 c 3
 1431 400.5 1420.5 355.5 1401 315 c 1
 1393.5 376.5 1381.5 423 1368 451.5 c 0
 1351.5 486 1333.5 523.5 1303.5 568.5 c 0
 1264.5 628.5 1207.5 666 1135.5 666 c 3
 1090.5 666 1053 628.5 1053 583.5 c 3x3e54
 1053 538.5 1090.5 501 1135.5 501 c 3
 1192.5 501 1216.5 538.5 1216.5 607.5 c 3
EndSplineSet
Fore
SplineSet
1314 554 m 1xbf40
 1288 466 1232 402 1136 402 c 3
 1040 402 954 488 954 584 c 3
 954 682 1036 765 1136 765 c 3
 1156 765 1173 762 1191 759 c 1
 1128 987 945 1104 657 1104 c 3
 330 1104 216 937 147 669 c 1
 333 613 414 558 414 454 c 3
 414 334 224 268 224 216 c 3
 224 136 253 105 358 105 c 3xbf40
 416 105 530 234 642 234 c 3x7f40
 754 234 868 105 926 105 c 3
 964 105 1070 184 1084 204 c 1
 1104 182 1114 146 1114 120 c 3
 1114 46 1004 -30 926 -30 c 3xbf40
 814 -30 700 99 642 99 c 3x7f40
 584 99 470 -30 358 -30 c 3
 186 -30 88 52 88 216 c 3
 88 356 279 426 279 454 c 3
 279 482 166 524 0 574 c 1
 42 1009 261 1239 657 1239 c 3
 1026 1239 1332 1008 1332 686 c 1
 1388 635 1431 579 1431 456 c 3xbf80
 1431 400 1421 355 1401 315 c 1
 1386 437 1365 473 1314 554 c 1xbf40
1214 650 m 1
 1190 660 1164 666 1136 666 c 3
 1091 666 1053 629 1053 584 c 3
 1053 539 1091 501 1136 501 c 3
 1193 501 1216 539 1216 608 c 0x3f80
 1216 620 1216 634 1214 650 c 1
EndSplineSet
MultipleSubs2: "RA-deep prepend intermediate lookup" uni1A55.deep uni1A29 zerojoin
MultipleSubs2: "RA-UU prepend intermediate lookup" uni1A55 uni1A6A uni1A29 zerojoin
MultipleSubs2: "RA-U prepend intermediate lookup" uni1A55 uni1A69 uni1A29 zerojoin
MultipleSubs2: "RA-UEE prepend intermediate lookup" uni1A55 uni1A68 uni1A29 zerojoin
MultipleSubs2: "RA-UE prepend intermediate lookup" uni1A55 uni1A67 uni1A29 zerojoin
MultipleSubs2: "RA-II prepend intermediate lookup" uni1A55 uni1A66 uni1A29 zerojoin
MultipleSubs2: "RA-I prepend intermediate lookup" uni1A55 uni1A65 uni1A29 zerojoin
Ligature2: "RA-C remove intermediate lookup" uni1A29 zerojoin uni1A55
MultipleSubs2: "RA prepend intermediate lookup" uni1A55 uni1A29 zerojoin
Ligature2: "LV remove intermediate for cons" uni1A29 zerojoin uni1A72
Ligature2: "LV remove intermediate for cons" uni1A29 zerojoin uni1A71
Ligature2: "LV remove intermediate for cons" uni1A29 zerojoin uni1A70
Ligature2: "LV remove intermediate for cons" uni1A29 zerojoin uni1A6F
Ligature2: "LV remove intermediate for cons" uni1A29 zerojoin uni1A6E
MultipleSubs2: "LV AI MAIMUAN prepend intermediate lookup" uni1A72 uni1A29 zerojoin
MultipleSubs2: "LV AI MAIMALAI prepend intermediate lookup" uni1A71 uni1A29 zerojoin
MultipleSubs2: "LV O prepend intermediate lookup" uni1A70 uni1A29 zerojoin
MultipleSubs2: "LV AE prepend intermediate lookup" uni1A6F uni1A29 zerojoin
MultipleSubs2: "LV E prepend intermediate lookup" uni1A6E uni1A29 zerojoin
LCarets2: 2 0 0 
Ligature2: "ANG-LAN remove intermediate lookup" uni1A58 zerojoin uni1A29
MultipleSubs2: "ANG-LAN append intermediate lookup" zerojoin uni1A29 uni1A58.lai
EndChar

StartChar: uni1A2A
Encoding: 6698 6698 8
Width: 1657
VWidth: 3390
GlyphClass: 2
Flags: W
HStem: -30 135<237.234 447.366 836.634 1016.49> 99 135<552.634 731.366> 402 99<1063.11 1205.4> 666 99<1063.81 1190.54> 1104 135<416.683 922.131> 2042 134<491.779 1301.88>
VStem: 26 134<1030 1767.17> 88 136<120.205 267.673> 279 135<415.551 490.945> 954 99<511.114 654.835> 1216 215<428 626.197> 1401 30<354.148 400.444>
LayerCount: 2
Back
SplineSet
1216.5 607.5 m 3xbce0
 1216.5 633 1210.5 675 1203 711 c 0
 1152 970.5 964.5 1104 657 1104 c 3
 330 1104 216 937.5 147 669 c 1
 333 613.5 414 558 414 454.5 c 3
 414 334.5 223.5 268.5 223.5 216 c 3
 223.5 136.5 253.5 105 358.5 105 c 3xbde0
 417 105 529.5 234 642 234 c 3x7de0
 754.5 234 867 105 925.5 105 c 3
 963 105 1071 184.5 1084.5 204 c 1
 1104 181.5 1114.5 145.5 1114.5 120 c 3
 1114.5 46.5 1003.5 -30 925.5 -30 c 3xbde0
 813 -30 700.5 99 642 99 c 3x7de0
 583.5 99 471 -30 358.5 -30 c 3
 186 -30 88.5 52.5 88.5 216 c 3
 88.5 355.5 279 426 279 454.5 c 3
 279 483 166.5 525 0 574.5 c 1
 42 1009.5 261 1239 657 1239 c 3
 1018.5 1239 1332 1011 1332 697.5 c 3
 1332 540 1279.5 402 1135.5 402 c 3
 1039.5 402 954 487.5 954 583.5 c 3
 954 681 1035 765 1135.5 765 c 3
 1237.5 765 1306.5 708 1329 688.5 c 0
 1386 637.5 1431 580.5 1431 456 c 3xbde0
 1431 400.5 1420.5 355.5 1401 315 c 1xbcd0
 1393.5 376.5 1381.5 423 1368 451.5 c 0
 1351.5 486 1333.5 523.5 1303.5 568.5 c 0
 1264.5 628.5 1207.5 666 1135.5 666 c 3
 1090.5 666 1053 628.5 1053 583.5 c 3
 1053 538.5 1090.5 501 1135.5 501 c 3
 1192.5 501 1216.5 538.5 1216.5 607.5 c 3xbce0
1785 1816.5 m 1
 1459.5 1989 1408.5 2041.5 889.5 2041.5 c 3
 406.5 2041.5 160.5 1923 160.5 1537.5 c 2
 160.5 904.5 l 2
 160.5 858 153 826.5 136.5 807 c 0
 81 741 25.5 708 25.5 708 c 1
 25.5 708 25.5 754.5 25.5 846 c 2
 25.5 1537.5 l 2x3ec0
 25.5 2019 360 2176.5 889.5 2176.5 c 3
 1368 2176.5 1660.5 2043 1785 1816.5 c 1
EndSplineSet
Fore
SplineSet
1785 1816 m 1xbec0
 1459 1988 1409 2042 890 2042 c 3
 407 2042 160 1924 160 1538 c 2
 160 1030 l 1
 271 1168 437 1239 657 1239 c 3
 1026 1239 1332 1008 1332 686 c 1
 1388 635 1431 579 1431 456 c 3xbee0
 1431 400 1421 355 1401 315 c 1
 1386 437 1365 473 1314 554 c 1
 1288 466 1232 402 1136 402 c 3
 1040 402 954 488 954 584 c 3
 954 682 1036 765 1136 765 c 3
 1156 765 1173 762 1191 759 c 1
 1128 987 945 1104 657 1104 c 3
 330 1104 216 937 147 669 c 1
 333 613 414 558 414 454 c 3
 414 334 224 268 224 216 c 3
 224 136 253 105 358 105 c 3xbdd0
 416 105 530 234 642 234 c 3x7dd0
 754 234 868 105 926 105 c 3
 964 105 1070 184 1084 204 c 1
 1104 182 1114 146 1114 120 c 3
 1114 46 1004 -30 926 -30 c 3xbdd0
 814 -30 700 99 642 99 c 3x7dd0
 584 99 470 -30 358 -30 c 3
 186 -30 88 52 88 216 c 3xbdd0
 88 356 279 426 279 454 c 3
 279 482 166 524 0 574 c 1
 6 631 14 685 26 735 c 1
 26 1538 l 2
 26 2020 360 2176 890 2176 c 3
 1368 2176 1661 2042 1785 1816 c 1xbec0
1214 650 m 1
 1190 660 1164 666 1136 666 c 3
 1091 666 1053 629 1053 584 c 3
 1053 539 1091 501 1136 501 c 3
 1193 501 1216 539 1216 608 c 3
 1216 620 1216 634 1214 650 c 1
EndSplineSet
MultipleSubs2: "RA-deep prepend intermediate lookup" uni1A55.deep uni1A2A zerojoin
MultipleSubs2: "RA-UU prepend intermediate lookup" uni1A55 uni1A6A uni1A2A zerojoin
MultipleSubs2: "RA-U prepend intermediate lookup" uni1A55 uni1A69 uni1A2A zerojoin
MultipleSubs2: "RA-UEE prepend intermediate lookup" uni1A55 uni1A68 uni1A2A zerojoin
MultipleSubs2: "RA-UE prepend intermediate lookup" uni1A55 uni1A67 uni1A2A zerojoin
MultipleSubs2: "RA-II prepend intermediate lookup" uni1A55 uni1A66 uni1A2A zerojoin
MultipleSubs2: "RA-I prepend intermediate lookup" uni1A55 uni1A65 uni1A2A zerojoin
Ligature2: "RA-C remove intermediate lookup" uni1A2A zerojoin uni1A55
MultipleSubs2: "RA prepend intermediate lookup" uni1A55 uni1A2A zerojoin
Ligature2: "LV remove intermediate for cons" uni1A2A zerojoin uni1A72
Ligature2: "LV remove intermediate for cons" uni1A2A zerojoin uni1A71
Ligature2: "LV remove intermediate for cons" uni1A2A zerojoin uni1A70
Ligature2: "LV remove intermediate for cons" uni1A2A zerojoin uni1A6F
Ligature2: "LV remove intermediate for cons" uni1A2A zerojoin uni1A6E
MultipleSubs2: "LV AI MAIMUAN prepend intermediate lookup" uni1A72 uni1A2A zerojoin
MultipleSubs2: "LV AI MAIMALAI prepend intermediate lookup" uni1A71 uni1A2A zerojoin
MultipleSubs2: "LV O prepend intermediate lookup" uni1A70 uni1A2A zerojoin
MultipleSubs2: "LV AE prepend intermediate lookup" uni1A6F uni1A2A zerojoin
MultipleSubs2: "LV E prepend intermediate lookup" uni1A6E uni1A2A zerojoin
LCarets2: 3 0 0 0 
Ligature2: "ANG-LAN remove intermediate lookup" uni1A58 zerojoin uni1A2A
MultipleSubs2: "ANG-LAN append intermediate lookup" zerojoin uni1A2A uni1A58.lai
EndChar

StartChar: uni1A2B
Encoding: 6699 6699 9
Width: 1830
VWidth: 3390
GlyphClass: 2
Flags: W
HStem: -376 134<1012.95 1164.36 1353.59 1492.99> -30 135<237.234 447.366> 99 135<552.634 731.649> 402 99<1063.11 1205.4> 666 99<1063.81 1190.54> 1104 135<420.111 922.131> 1341 99<1221.48 1418.31>
VStem: 88 136<120.205 267.673> 279 135<415.551 490.945> 876 135<-238.244 -54.8969> 954 99<511.114 654.835> 1216 215<428 626.197> 1401 30<354.148 400.444> 1515 135<-225.152 970.015>
AnchorPoint: "BelowRight" 1455 -422 basechar 0
AnchorPoint: "BelowBase" 522 -63 basechar 0
AnchorPoint: "AboveBase" 657 1324 basechar 0
LayerCount: 2
Back
SplineSet
1216.5 607.5 m 3
 1216.5 633 1210.5 675 1203 711 c 0
 1152 970.5 964.5 1104 657 1104 c 3
 330 1104 216 937.5 147 669 c 1
 333 613.5 414 558 414 454.5 c 3
 414 334.5 223.5 268.5 223.5 216 c 3
 223.5 136.5 253.5 105 358.5 105 c 3
 417 105 529.5 234 642 234 c 3
 754.5 234 867 105 925.5 105 c 3
 963 105 1071 184.5 1084.5 204 c 1
 1104 181.5 1114.5 145.5 1114.5 120 c 3
 1114.5 46.5 1003.5 -30 925.5 -30 c 3
 813 -30 700.5 99 642 99 c 3
 583.5 99 471 -30 358.5 -30 c 3
 186 -30 88.5 52.5 88.5 216 c 3
 88.5 355.5 279 426 279 454.5 c 3
 279 483 166.5 525 0 574.5 c 1
 42 1009.5 261 1239 657 1239 c 3
 1018.5 1239 1332 1011 1332 697.5 c 3
 1332 540 1279.5 402 1135.5 402 c 3
 1039.5 402 954 487.5 954 583.5 c 3x3e4c
 954 681 1035 765 1135.5 765 c 3
 1237.5 765 1306.5 708 1329 688.5 c 0
 1386 637.5 1431 580.5 1431 456 c 3
 1431 400.5 1420.5 355.5 1401 315 c 1
 1393.5 376.5 1381.5 423 1368 451.5 c 0
 1351.5 486 1333.5 523.5 1303.5 568.5 c 0
 1264.5 628.5 1207.5 666 1135.5 666 c 3
 1090.5 666 1053 628.5 1053 583.5 c 3x3e54
 1053 538.5 1090.5 501 1135.5 501 c 3
 1192.5 501 1216.5 538.5 1216.5 607.5 c 3
1095 -376.5 m 3
 973.5 -376.5 876 -315 876 -187.5 c 3
 876 -88.5 969 136.5 1056 136.5 c 0
 1062 136.5 1114.5 135 1114.5 120 c 3
 1114.5 22.5 1011 -105 1011 -187.5 c 3
 1011 -225 1035 -241.5 1095 -241.5 c 3
 1149 -241.5 1191 -138 1261.5 -138 c 3
 1332 -138 1360.5 -241.5 1428 -241.5 c 3
 1486.5 -241.5 1515 -180 1515 -93 c 2
 1515 811.5 l 2
 1515 901.5 1480.5 979.5 1410 1047 c 0
 1393.5 1063.5 1329 1110 1216.5 1189.5 c 0
 1146 1237.5 1111.5 1282.5 1111.5 1326 c 0
 1111.5 1401 1159.5 1440 1255.5 1440 c 0
 1420.5 1440 1584 1306.5 1746 1044 c 1
 1635 1143 1563 1204.5 1528.5 1230 c 0
 1428 1303.5 1345.5 1341 1278 1341 c 0
 1254 1341 1234.5 1335 1219.5 1323 c 1
 1386 1207.5 l 2
 1492.5 1134 1558.5 1081.5 1590 1021.5 c 0
 1620 963 1650 874.5 1650 756 c 2
 1650 -93 l 2
 1650 -271.5 1558.5 -376.5 1428 -376.5 c 3
 1359 -376.5 1308 -333 1261.5 -289.5 c 1
 1216.5 -331.5 1164 -376.5 1095 -376.5 c 3
EndSplineSet
Fore
SplineSet
1095 -376 m 3xdfd4
 973 -376 876 -316 876 -188 c 3
 876 -148 891 -88 915 -30 c 1xdfd4
 805 -22 699 99 642 99 c 3xbfd4
 584 99 470 -30 358 -30 c 3
 186 -30 88 52 88 216 c 3
 88 356 279 426 279 454 c 3
 279 482 166 524 0 574 c 1
 42 1009 261 1239 657 1239 c 3
 1026 1239 1332 1008 1332 686 c 1
 1388 635 1431 579 1431 456 c 3xdfd4
 1431 400 1421 355 1401 315 c 1
 1386 437 1365 473 1314 554 c 1
 1288 466 1232 402 1136 402 c 3
 1040 402 954 488 954 584 c 3
 954 682 1036 765 1136 765 c 3
 1156 765 1173 762 1191 759 c 1
 1128 987 945 1104 657 1104 c 3
 330 1104 216 937 147 669 c 1
 333 613 414 558 414 454 c 3
 414 334 224 268 224 216 c 3
 224 136 253 105 358 105 c 3xdfac
 416 105 530 234 642 234 c 3xbfac
 754 234 868 105 926 105 c 3
 964 105 1070 184 1084 204 c 1
 1104 182 1114 146 1114 120 c 3
 1114 22 1011 -106 1011 -188 c 3
 1011 -226 1035 -242 1095 -242 c 3
 1149 -242 1192 -138 1262 -138 c 3
 1332 -138 1360 -242 1428 -242 c 3
 1486 -242 1515 -180 1515 -93 c 2
 1515 812 l 2
 1515 902 1480 979 1410 1047 c 0
 1394 1063 1328 1110 1216 1190 c 1
 1146 1238 1112 1282 1112 1326 c 3
 1112 1401 1160 1440 1256 1440 c 3
 1421 1440 1584 1306 1746 1044 c 1
 1635 1143 1562 1204 1528 1230 c 0
 1428 1304 1346 1341 1278 1341 c 3
 1254 1341 1235 1335 1220 1323 c 1
 1386 1208 l 2
 1492 1134 1558 1082 1590 1022 c 0
 1620 964 1650 874 1650 756 c 2
 1650 -93 l 2
 1650 -271 1558 -376 1428 -376 c 3
 1359 -376 1308 -334 1262 -290 c 1
 1217 -332 1164 -376 1095 -376 c 3xdfd4
1214 650 m 1
 1190 660 1164 666 1136 666 c 3
 1091 666 1053 629 1053 584 c 3x9fb4
 1053 539 1091 501 1136 501 c 3
 1193 501 1216 539 1216 608 c 3
 1216 620 1216 634 1214 650 c 1
EndSplineSet
MultipleSubs2: "RA-deep prepend intermediate lookup" uni1A55.deep uni1A2B zerojoin
MultipleSubs2: "RA-UU prepend intermediate lookup" uni1A55 uni1A6A uni1A2B zerojoin
MultipleSubs2: "RA-U prepend intermediate lookup" uni1A55 uni1A69 uni1A2B zerojoin
MultipleSubs2: "RA-UEE prepend intermediate lookup" uni1A55 uni1A68 uni1A2B zerojoin
MultipleSubs2: "RA-UE prepend intermediate lookup" uni1A55 uni1A67 uni1A2B zerojoin
MultipleSubs2: "RA-II prepend intermediate lookup" uni1A55 uni1A66 uni1A2B zerojoin
MultipleSubs2: "RA-I prepend intermediate lookup" uni1A55 uni1A65 uni1A2B zerojoin
Ligature2: "RA-C remove intermediate lookup" uni1A2B zerojoin uni1A55
MultipleSubs2: "RA prepend intermediate lookup" uni1A55 uni1A2B zerojoin
Ligature2: "LV remove intermediate for cons" uni1A2B zerojoin uni1A72
Ligature2: "LV remove intermediate for cons" uni1A2B zerojoin uni1A71
Ligature2: "LV remove intermediate for cons" uni1A2B zerojoin uni1A70
Ligature2: "LV remove intermediate for cons" uni1A2B zerojoin uni1A6F
Ligature2: "LV remove intermediate for cons" uni1A2B zerojoin uni1A6E
MultipleSubs2: "LV AI MAIMUAN prepend intermediate lookup" uni1A72 uni1A2B zerojoin
MultipleSubs2: "LV AI MAIMALAI prepend intermediate lookup" uni1A71 uni1A2B zerojoin
MultipleSubs2: "LV O prepend intermediate lookup" uni1A70 uni1A2B zerojoin
MultipleSubs2: "LV AE prepend intermediate lookup" uni1A6F uni1A2B zerojoin
MultipleSubs2: "LV E prepend intermediate lookup" uni1A6E uni1A2B zerojoin
LCarets2: 3 0 0 0 
Ligature2: "ANG-LAN remove intermediate lookup" uni1A58 zerojoin uni1A2B
MultipleSubs2: "ANG-LAN append intermediate lookup" zerojoin uni1A2B uni1A58.lai
EndChar

StartChar: uni1A2C
Encoding: 6700 6700 10
Width: 1957
VWidth: 3390
GlyphClass: 2
Flags: W
HStem: -1167 135<535.719 1239.28> -30 135<1092.02 1319.78> 632 98<133.509 274.913> 1104 135<343.299 788.121> 1155 84<1354.28 1505.54>
VStem: -3 135<-746.09 -373.02> 22 100<739.726 885.984> 286 100<739.296 886.622> 1050 135<387.077 840.004> 1638 135<395.937 781.581>
AnchorPoint: "BelowRight" 1582 -63 basechar 0
AnchorPoint: "BelowBase" 1118 -63 basechar 0
AnchorPoint: "AboveBase" 1118 1324 basechar 0
LayerCount: 2
Back
SplineSet
1198.5 1030.5 m 1
 1225.5 1117.5 1311 1239 1408.5 1239 c 3
 1449 1239 1497 1218 1540.5 1168.5 c 2
 1645.5 1047 l 1
 1645.5 1030.5 l 1
 1612.5 1068 1426.5 1155 1393.5 1155 c 3
 1380 1155 1354.5 1125 1354.5 1125 c 1
 1632 1027.5 1773 793.5 1773 579 c 3
 1773 315 1575 -30 1027.5 -30 c 3
 876 -30 706.5 -60 564 -109.5 c 0
 321 -195 132 -283.5 132 -573 c 3
 132 -895.5 510 -1032 855 -1032 c 3
 1132.5 -1032 1542 -937.5 1735.5 -852 c 1
 1524 -1062 1231.5 -1167 855 -1167 c 3
 418.5 -1167 -3 -973.5 -3 -573 c 3
 -3 -253.5 171 -102 519 19.5 c 0
 810 121.5 1050 261 1050 618 c 3
 1050 895.5 876 1104 580.5 1104 c 3
 366 1104 157.5 1014 157.5 813 c 1
 22.5 813 l 1
 22.5 1080 256.5 1239 580.5 1239 c 3
 912 1239 1185 1011 1185 618 c 3
 1185 562.5 1171.5 387 1135.5 274.5 c 2
 1135.5 274.5 1092 147 1092 136.5 c 0
 1092 115.5 1126.5 105 1194 105 c 3
 1414.5 105 1638 339 1638 579 c 3
 1638 801 1491 1032 1245 1032 c 3
 1230 1032 1215 1032 1198.5 1030.5 c 1
121.5 813 m 3x3e54
 121.5 768 159 730.5 204 730.5 c 3
 249 730.5 286.5 768 286.5 813 c 3
 286.5 858 249 895.5 204 895.5 c 3
 159 895.5 121.5 858 121.5 813 c 3x3e54
204 994.5 m 3
 301.5 994.5 385.5 910.5 385.5 813 c 3
 385.5 715.5 301.5 631.5 204 631.5 c 3
 108 631.5 22.5 717 22.5 813 c 3x3e4c
 22.5 910.5 106.5 994.5 204 994.5 c 3
EndSplineSet
Fore
SplineSet
122 813 m 3xe3c0
 122 768 159 730 204 730 c 3
 249 730 286 768 286 813 c 3
 286 858 249 896 204 896 c 3
 159 896 122 858 122 813 c 3xe3c0
234 992 m 1
 318 977 386 900 386 813 c 3
 386 715 302 632 204 632 c 3
 108 632 22 717 22 813 c 3
 22 1080 256 1239 580 1239 c 3xf3c0
 912 1239 1185 1011 1185 618 c 3
 1185 562 1172 386 1136 274 c 2
 1136 274 1092 146 1092 136 c 3
 1092 115 1126 105 1194 105 c 3
 1414 105 1638 339 1638 579 c 3
 1638 801 1491 1032 1245 1032 c 3
 1230 1032 1214 1032 1198 1030 c 1
 1225 1117 1310 1239 1408 1239 c 3
 1448 1239 1496 1218 1540 1168 c 2
 1646 1047 l 1
 1646 1030 l 1
 1613 1068 1427 1155 1394 1155 c 3xebc0
 1380 1155 1354 1125 1354 1125 c 1
 1632 1027 1773 793 1773 579 c 3
 1773 315 1576 -30 1028 -30 c 3
 876 -30 706 -60 564 -110 c 0
 321 -196 132 -283 132 -573 c 3
 132 -895 510 -1032 855 -1032 c 3
 1133 -1032 1542 -938 1736 -852 c 1
 1524 -1062 1231 -1167 855 -1167 c 3
 419 -1167 -3 -973 -3 -573 c 3
 -3 -253 171 -102 519 20 c 0
 810 122 1050 261 1050 618 c 3
 1050 896 876 1104 580 1104 c 3xf5c0
 445 1104 314 1068 234 992 c 1
EndSplineSet
MultipleSubs2: "RA-deep prepend intermediate lookup" uni1A55.deep uni1A2C zerojoin
MultipleSubs2: "RA-UU prepend intermediate lookup" uni1A55 uni1A6A uni1A2C zerojoin
MultipleSubs2: "RA-U prepend intermediate lookup" uni1A55 uni1A69 uni1A2C zerojoin
MultipleSubs2: "RA-UEE prepend intermediate lookup" uni1A55 uni1A68 uni1A2C zerojoin
MultipleSubs2: "RA-UE prepend intermediate lookup" uni1A55 uni1A67 uni1A2C zerojoin
MultipleSubs2: "RA-II prepend intermediate lookup" uni1A55 uni1A66 uni1A2C zerojoin
MultipleSubs2: "RA-I prepend intermediate lookup" uni1A55 uni1A65 uni1A2C zerojoin
Ligature2: "RA-C remove intermediate lookup" uni1A2C zerojoin uni1A55
MultipleSubs2: "RA prepend intermediate lookup" uni1A55 uni1A2C zerojoin
Ligature2: "LV remove intermediate for cons" uni1A2C zerojoin uni1A72
Ligature2: "LV remove intermediate for cons" uni1A2C zerojoin uni1A71
Ligature2: "LV remove intermediate for cons" uni1A2C zerojoin uni1A70
Ligature2: "LV remove intermediate for cons" uni1A2C zerojoin uni1A6F
Ligature2: "LV remove intermediate for cons" uni1A2C zerojoin uni1A6E
MultipleSubs2: "LV AI MAIMUAN prepend intermediate lookup" uni1A72 uni1A2C zerojoin
MultipleSubs2: "LV AI MAIMALAI prepend intermediate lookup" uni1A71 uni1A2C zerojoin
MultipleSubs2: "LV O prepend intermediate lookup" uni1A70 uni1A2C zerojoin
MultipleSubs2: "LV AE prepend intermediate lookup" uni1A6F uni1A2C zerojoin
MultipleSubs2: "LV E prepend intermediate lookup" uni1A6E uni1A2C zerojoin
LCarets2: 3 0 0 0 
Ligature2: "ANG-LAN remove intermediate lookup" uni1A58 zerojoin uni1A2C
MultipleSubs2: "ANG-LAN append intermediate lookup" zerojoin uni1A2C uni1A58.lai
EndChar

StartChar: uni1A2D
Encoding: 6701 6701 11
Width: 1597
VWidth: 3390
GlyphClass: 2
Flags: W
HStem: -30 135<216.262 390.142 847.881 1075.57> 188 134<564.119 677.244> 876 99<300.469 442.913> 1140 99<301.447 443.379> 1155 84<943.504 1149.38>
VStem: 14 134<176.836 417.777 843.872 1032.08> 156 135<539.913 725.229> 454 100<984.209 1129.3> 792 150<1070 1153.59> 1305 135<336.317 750.376>
AnchorPoint: "BelowRight" 1222 -63 basechar 0
AnchorPoint: "BelowBase" 726 -63 basechar 0
AnchorPoint: "AboveBase" 726 1324 basechar 0
LayerCount: 2
Back
SplineSet
792 1077 m 3xf7c0
 792 1165.5 904.5 1239 999 1239 c 3xefc0
 1050 1239 1131 1209 1243.5 1153.5 c 0
 1396.5 1077 1407 1051.5 1429.5 1003.5 c 1
 1425 1003.5 1369.5 1029 1255.5 1080 c 0
 1143 1131 1060.5 1155 1011 1155 c 3
 964.5 1155 942 1143 942 1117.5 c 3
 942 1113 943.5 1108.5 948 1107 c 0
 1273.5 1021.5 1440 841.5 1440 532.5 c 3
 1440 213 1185 -30 916.5 -30 c 3
 741 -30 688.5 187.5 621 187.5 c 3
 552 187.5 501 -30 312 -30 c 3
 133.5 -30 13.5 138 13.5 313.5 c 3
 13.5 471 156 553.5 156 630 c 3
 156 727.5 13.5 778.5 13.5 922.5 c 3
 13.5 1096.5 156 1239 372 1239 c 1
 372 1104 l 1
 250.5 1104 148.5 1036.5 148.5 922.5 c 3
 148.5 846 291 793.5 291 630 c 3
 291 492 148.5 411 148.5 313.5 c 3
 148.5 202.5 222 105 312 105 c 3
 417 105 456 322.5 621 322.5 c 3
 784.5 322.5 825 105 916.5 105 c 3
 1072.5 105 1305 253.5 1305 532.5 c 3
 1305 807 1141.5 978 810 1051.5 c 0
 798 1054.5 792 1063.5 792 1077 c 3xf7c0
289.5 1057.5 m 3
 289.5 1012.5 327 975 372 975 c 3
 417 975 454.5 1012.5 454.5 1057.5 c 3
 454.5 1102.5 417 1140 372 1140 c 3
 327 1140 289.5 1102.5 289.5 1057.5 c 3
372 1239 m 3xf7c0
 469.5 1239 553.5 1155 553.5 1057.5 c 3
 553.5 960 469.5 876 372 876 c 3
 276 876 190.5 961.5 190.5 1057.5 c 3
 190.5 1155 274.5 1239 372 1239 c 3xf7c0
EndSplineSet
Fore
SplineSet
290 1058 m 3xf7c0
 290 1013 327 975 372 975 c 3
 417 975 454 1013 454 1058 c 3
 454 1103 417 1140 372 1140 c 3
 327 1140 290 1103 290 1058 c 3xf7c0
372 1239 m 3
 470 1239 554 1156 554 1058 c 3
 554 960 470 876 372 876 c 3
 284 876 204 948 192 1035 c 1
 165 1005 148 967 148 922 c 3
 148 846 291 794 291 630 c 3
 291 492 148 412 148 314 c 3
 148 203 222 105 312 105 c 3
 417 105 456 322 621 322 c 3
 785 322 824 105 916 105 c 3
 1072 105 1305 253 1305 532 c 3
 1305 806 1142 978 810 1052 c 0
 798 1055 792 1063 792 1077 c 3
 792 1165 905 1239 999 1239 c 3
 1050 1239 1132 1210 1244 1154 c 0
 1397 1078 1408 1052 1430 1004 c 1
 1426 1004 1370 1029 1256 1080 c 0
 1144 1131 1061 1155 1011 1155 c 3xefc0
 965 1155 942 1144 942 1118 c 3
 942 1114 944 1109 948 1107 c 0
 1274 1021 1440 841 1440 532 c 3
 1440 212 1184 -30 916 -30 c 3
 740 -30 689 188 621 188 c 3
 552 188 501 -30 312 -30 c 3
 134 -30 14 138 14 314 c 3
 14 472 156 554 156 630 c 3
 156 728 14 778 14 922 c 3
 14 1096 156 1239 372 1239 c 3
EndSplineSet
MultipleSubs2: "RA-deep prepend intermediate lookup" uni1A55.deep uni1A2D zerojoin
MultipleSubs2: "RA-UU prepend intermediate lookup" uni1A55 uni1A6A uni1A2D zerojoin
MultipleSubs2: "RA-U prepend intermediate lookup" uni1A55 uni1A69 uni1A2D zerojoin
MultipleSubs2: "RA-UEE prepend intermediate lookup" uni1A55 uni1A68 uni1A2D zerojoin
MultipleSubs2: "RA-UE prepend intermediate lookup" uni1A55 uni1A67 uni1A2D zerojoin
MultipleSubs2: "RA-II prepend intermediate lookup" uni1A55 uni1A66 uni1A2D zerojoin
MultipleSubs2: "RA-I prepend intermediate lookup" uni1A55 uni1A65 uni1A2D zerojoin
Ligature2: "RA-C remove intermediate lookup" uni1A2D zerojoin uni1A55
MultipleSubs2: "RA prepend intermediate lookup" uni1A55 uni1A2D zerojoin
Ligature2: "LV remove intermediate for cons" uni1A2D zerojoin uni1A72
Ligature2: "LV remove intermediate for cons" uni1A2D zerojoin uni1A71
Ligature2: "LV remove intermediate for cons" uni1A2D zerojoin uni1A70
Ligature2: "LV remove intermediate for cons" uni1A2D zerojoin uni1A6F
Ligature2: "LV remove intermediate for cons" uni1A2D zerojoin uni1A6E
MultipleSubs2: "LV AI MAIMUAN prepend intermediate lookup" uni1A72 uni1A2D zerojoin
MultipleSubs2: "LV AI MAIMALAI prepend intermediate lookup" uni1A71 uni1A2D zerojoin
MultipleSubs2: "LV O prepend intermediate lookup" uni1A70 uni1A2D zerojoin
MultipleSubs2: "LV AE prepend intermediate lookup" uni1A6F uni1A2D zerojoin
MultipleSubs2: "LV E prepend intermediate lookup" uni1A6E uni1A2D zerojoin
LCarets2: 3 0 0 0 
Ligature2: "ANG-LAN remove intermediate lookup" uni1A58 zerojoin uni1A2D
MultipleSubs2: "ANG-LAN append intermediate lookup" zerojoin uni1A2D uni1A58.lai
EndChar

StartChar: uni1A2E
Encoding: 6702 6702 12
Width: 1609
VWidth: 3390
GlyphClass: 2
Flags: W
HStem: -810 135<261.553 951.45> -230 136<275.006 829.126> -30 135<287.831 739.731> 684 135<828.851 1040> 1104 135<404.85 981.695>
VStem: -16 134<-567.644 -340.569 744.565 910.075> 20 134<211.063 382.447> 894 135<232.465 468.907> 1119 135<-541.986 581.278> 1342 89<519.319 753.405>
AnchorPoint: "BelowRight" 1234 -810 basechar 0
AnchorPoint: "BelowBase" 608 -855 basechar 0
AnchorPoint: "AboveBase" 698 1324 basechar 0
LayerCount: 2
Fore
SplineSet
590 -230 m 3xfdc0
 292 -230 118 -308 118 -448 c 3xfdc0
 118 -608 276 -675 608 -675 c 3
 980 -675 1119 -604 1119 -366 c 2
 1119 334 l 2
 1119 498 1079 684 944 684 c 3
 908 684 868 670 826 642 c 1
 961 591 1029 517 1029 358 c 3
 1029 122 827 -30 513 -30 c 3
 237 -30 20 108 20 312 c 3
 20 408 74 454 184 556 c 1
 82 612 -3 688 -3 826 c 3
 -3 1081 338 1239 698 1239 c 3
 1133 1239 1431 1010 1431 636 c 3
 1431 518 1400 455 1342 387 c 1
 1309 743 1333 841 1102 1000 c 0
 994 1074 846 1104 698 1104 c 3
 436 1104 132 994 132 826 c 3
 132 685 339 674 339 556 c 3
 339 470 154 380 154 312 c 3xfbc0
 154 178 341 105 513 105 c 3
 725 105 894 190 894 358 c 3
 894 462 826 509 682 560 c 0
 655 570 642 576 642 579 c 3
 642 690 785 819 944 819 c 3
 1124 819 1254 662 1254 334 c 2
 1254 -366 l 2
 1254 -698 1043 -810 608 -810 c 3
 210 -810 -16 -709 -16 -448 c 3
 -16 -224 198 -94 590 -94 c 3
 848 -94 936 -190 1066 -358 c 1
 817 -246 762 -230 590 -230 c 3xfdc0
EndSplineSet
MultipleSubs2: "RA-deep prepend intermediate lookup" uni1A55.deep uni1A2E zerojoin
MultipleSubs2: "RA-UU prepend intermediate lookup" uni1A55 uni1A6A uni1A2E zerojoin
MultipleSubs2: "RA-U prepend intermediate lookup" uni1A55 uni1A69 uni1A2E zerojoin
MultipleSubs2: "RA-UEE prepend intermediate lookup" uni1A55 uni1A68 uni1A2E zerojoin
MultipleSubs2: "RA-UE prepend intermediate lookup" uni1A55 uni1A67 uni1A2E zerojoin
MultipleSubs2: "RA-II prepend intermediate lookup" uni1A55 uni1A66 uni1A2E zerojoin
MultipleSubs2: "RA-I prepend intermediate lookup" uni1A55 uni1A65 uni1A2E zerojoin
Ligature2: "RA-C remove intermediate lookup" uni1A2E zerojoin uni1A55
MultipleSubs2: "RA prepend intermediate lookup" uni1A55 uni1A2E zerojoin
Ligature2: "LV remove intermediate for cons" uni1A2E zerojoin uni1A72
Ligature2: "LV remove intermediate for cons" uni1A2E zerojoin uni1A71
Ligature2: "LV remove intermediate for cons" uni1A2E zerojoin uni1A70
Ligature2: "LV remove intermediate for cons" uni1A2E zerojoin uni1A6F
Ligature2: "LV remove intermediate for cons" uni1A2E zerojoin uni1A6E
MultipleSubs2: "LV AI MAIMUAN prepend intermediate lookup" uni1A72 uni1A2E zerojoin
MultipleSubs2: "LV AI MAIMALAI prepend intermediate lookup" uni1A71 uni1A2E zerojoin
MultipleSubs2: "LV O prepend intermediate lookup" uni1A70 uni1A2E zerojoin
MultipleSubs2: "LV AE prepend intermediate lookup" uni1A6F uni1A2E zerojoin
MultipleSubs2: "LV E prepend intermediate lookup" uni1A6E uni1A2E zerojoin
LCarets2: 3 0 0 0 
Ligature2: "ANG-LAN remove intermediate lookup" uni1A58 zerojoin uni1A2E
MultipleSubs2: "ANG-LAN append intermediate lookup" zerojoin uni1A2E uni1A58.lai
EndChar

StartChar: uni1A2F
Encoding: 6703 6703 13
Width: 1443
VWidth: 3390
GlyphClass: 2
Flags: W
HStem: -30 135<159.364 413.091> 105 135<643.062 972.214> 584 98<125.587 267.297> 1104 135<424.807 893.158>
VStem: 15 99<691.726 838.231> 24 135<106.788 206.524> 279 99<693.781 837.854> 992 134<-370.298 85.0336> 1112 134<641.282 935.976>
DStem2: 184 346 270 232 0.95885 0.283913<-78.093 943.949> 382 142 420 4 0.971709 0.236179<-180.673 465.733>
AnchorPoint: "BelowRight" 405 -63 basechar 0
AnchorPoint: "BelowBase" 630 -63 basechar 0
AnchorPoint: "AboveBase" 630 1324 basechar 0
LayerCount: 2
Back
SplineSet
420 4.5 m 2
 342 -16.5 262.5 -30 204 -30 c 3
 106.5 -30 24 54 24 154.5 c 3xf7
 24 226.5 72 313.5 184.5 346.5 c 2
 927 565.5 l 2
 1042.5 600 1111.5 634.5 1111.5 798 c 3
 1111.5 1012.5 864 1104 630 1104 c 3
 399 1104 150 927 150 765 c 1
 15 765 l 1
 15 1029 349.5 1239 630 1239 c 3
 957 1239 1246.5 1090.5 1246.5 798 c 3xfa80
 1246.5 564 1153.5 493.5 895.5 417 c 2
 270 232.5 l 2
 184.5 207 159 183 159 154.5 c 3
 159 133.5 180 105 204 105 c 3
 226.5 105 285 118.5 382.5 142.5 c 2
 670.5 211.5 l 2
 759 232.5 825 240 873 240 c 3
 1039.5 240 1135.5 132 1135.5 -69 c 3
 1135.5 -121.5 1126.5 -207 1126.5 -234 c 3
 1126.5 -328.5 1177.5 -412.5 1296 -483 c 1
 1282.5 -487.5 1269 -489 1258.5 -489 c 3
 1108.5 -489 991.5 -384 991.5 -234 c 3xf7
 991.5 -204 1000.5 -99 1000.5 -69 c 3
 1000.5 67.5 954 105 873 105 c 3
 814.5 105 766.5 91.5 700.5 75 c 2
 420 4.5 l 2
114 765 m 3xfa
 114 720 151.5 682.5 196.5 682.5 c 3
 241.5 682.5 279 720 279 765 c 3
 279 810 241.5 847.5 196.5 847.5 c 3
 151.5 847.5 114 810 114 765 c 3xfa
196.5 946.5 m 3
 294 946.5 378 862.5 378 765 c 3
 378 667.5 294 583.5 196.5 583.5 c 3
 100.5 583.5 15 669 15 765 c 3
 15 862.5 99 946.5 196.5 946.5 c 3
EndSplineSet
Fore
SplineSet
114 765 m 3x3a
 114 720 151 682 196 682 c 3
 241 682 279 720 279 765 c 3
 279 810 241 848 196 848 c 3
 151 848 114 810 114 765 c 3x3a
238 940 m 1
 316 920 378 847 378 765 c 3
 378 667 294 584 196 584 c 3
 100 584 15 669 15 765 c 3xba80
 15 1029 350 1239 630 1239 c 3
 957 1239 1246 1090 1246 798 c 3
 1246 564 1154 493 896 417 c 2
 270 232 l 2
 184 206 159 182 159 154 c 3
 159 133 180 105 204 105 c 3xb680
 226 105 284 118 382 142 c 2
 670 212 l 2
 758 233 825 240 873 240 c 3
 1039 240 1136 132 1136 -69 c 3
 1136 -121 1126 -207 1126 -234 c 3
 1126 -328 1178 -413 1296 -483 c 1
 1282 -487 1268 -489 1258 -489 c 3
 1108 -489 992 -384 992 -234 c 3
 992 -204 1000 -99 1000 -69 c 3
 1000 67 954 105 873 105 c 3x77
 815 105 766 91 700 75 c 2
 420 4 l 1
 342 -17 262 -30 204 -30 c 3
 106 -30 24 54 24 154 c 3
 24 226 72 313 184 346 c 2
 927 566 l 2
 1043 600 1112 634 1112 798 c 3xb680
 1112 1012 864 1104 630 1104 c 3
 484 1104 331 1033 238 940 c 1
EndSplineSet
MultipleSubs2: "RA-deep prepend intermediate lookup" uni1A55.deep uni1A2F zerojoin
MultipleSubs2: "RA-UU prepend intermediate lookup" uni1A55 uni1A6A uni1A2F zerojoin
MultipleSubs2: "RA-U prepend intermediate lookup" uni1A55 uni1A69 uni1A2F zerojoin
MultipleSubs2: "RA-UEE prepend intermediate lookup" uni1A55 uni1A68 uni1A2F zerojoin
MultipleSubs2: "RA-UE prepend intermediate lookup" uni1A55 uni1A67 uni1A2F zerojoin
MultipleSubs2: "RA-II prepend intermediate lookup" uni1A55 uni1A66 uni1A2F zerojoin
MultipleSubs2: "RA-I prepend intermediate lookup" uni1A55 uni1A65 uni1A2F zerojoin
Ligature2: "RA-C remove intermediate lookup" uni1A2F zerojoin uni1A55
MultipleSubs2: "RA prepend intermediate lookup" uni1A55 uni1A2F zerojoin
Ligature2: "LV remove intermediate for cons" uni1A2F zerojoin uni1A72
Ligature2: "LV remove intermediate for cons" uni1A2F zerojoin uni1A71
Ligature2: "LV remove intermediate for cons" uni1A2F zerojoin uni1A70
Ligature2: "LV remove intermediate for cons" uni1A2F zerojoin uni1A6F
Ligature2: "LV remove intermediate for cons" uni1A2F zerojoin uni1A6E
MultipleSubs2: "LV AI MAIMUAN prepend intermediate lookup" uni1A72 uni1A2F zerojoin
MultipleSubs2: "LV AI MAIMALAI prepend intermediate lookup" uni1A71 uni1A2F zerojoin
MultipleSubs2: "LV O prepend intermediate lookup" uni1A70 uni1A2F zerojoin
MultipleSubs2: "LV AE prepend intermediate lookup" uni1A6F uni1A2F zerojoin
MultipleSubs2: "LV E prepend intermediate lookup" uni1A6E uni1A2F zerojoin
LCarets2: 3 0 0 0 
Ligature2: "ANG-LAN remove intermediate lookup" uni1A58 zerojoin uni1A2F
MultipleSubs2: "ANG-LAN append intermediate lookup" zerojoin uni1A2F uni1A58.lai
EndChar

StartChar: uni1A30
Encoding: 6704 6704 14
Width: 1948
VWidth: 3390
GlyphClass: 2
Flags: W
HStem: -30 135<173.649 455.297 1285.76 1500.23> 192 135<826.875 1092.28> 700 100<102.639 247.3> 927 135<473.544 604.467> 964 100<182 248.976> 1104 135<183.167 336.06 748.124 909.933> 1120 119<1467.5 1571.44>
VStem: -6 99<811.509 954.258> 33 135<116.316 286.584> 258 99<810.621 954.734> 987 135<736.72 1013.89> 1736 134<375.295 767.246>
DStem2: 363 513 402 382 0.955259 0.295771<-223.216 622.502> 570 194 620 68 0.933002 0.359872<-293.915 387.885>
AnchorPoint: "BelowRight" 1574 -63 basechar 0
AnchorPoint: "BelowBase" 1054 -63 basechar 0
AnchorPoint: "AboveBase" 1054 1324 basechar 0
LayerCount: 2
Back
SplineSet
93 882 m 3xeee0
 93 837 130.5 799.5 175.5 799.5 c 3
 220.5 799.5 258 837 258 882 c 3
 258 927 220.5 964.5 175.5 964.5 c 3
 130.5 964.5 93 927 93 882 c 3xeee0
175.5 1063.5 m 3
 273 1063.5 357 979.5 357 882 c 3
 357 784.5 273 700.5 175.5 700.5 c 3
 79.5 700.5 -6 786 -6 882 c 3
 -6 979.5 78 1063.5 175.5 1063.5 c 3
900 175.5 m 2
 619.5 67.5 l 2
 468 9 381 -30 286.5 -30 c 3
 117 -30 33 49.5 33 181.5 c 3xf5e0
 33 306 90 429 363 513 c 2
 840 658.5 l 2
 922.5 684 987 769.5 987 876 c 3
 987 978 901.5 1104 834 1104 c 3
 736.5 1104 687 927 540 927 c 3
 381 927 349.5 1104 262.5 1104 c 3
 175.5 1104 129 994.5 129 882 c 9xf6e0
 -6 882 l 1
 -6 1053 79.5 1239 262.5 1239 c 3
 424.5 1239 468 1062 540 1062 c 3
 607.5 1062 660 1239 834 1239 c 3
 987 1239 1122 1045.5 1122 876 c 3
 1122 733.5 1041 579 880.5 529.5 c 2
 402 382.5 l 2
 205.5 322.5 168 256.5 168 181.5 c 3xf5e0
 168 129 192 105 286.5 105 c 3
 357 105 447 145.5 570 193.5 c 2
 850.5 301.5 l 2
 912 325.5 957 327 988.5 327 c 3
 1192.5 327 1276.5 105 1359 105 c 3
 1560 105 1735.5 343.5 1735.5 571.5 c 3
 1735.5 655.5 1702.5 790.5 1639.5 855 c 0
 1611 885 1554 936 1438.5 1009.5 c 0
 1399.5 1035 1381.5 1042.5 1381.5 1077 c 3
 1381.5 1146 1414.5 1239 1455 1239 c 3
 1524 1239 1581 1188 1674 1120.5 c 0
 1752 1063.5 1797 1020 1812 991.5 c 1
 1797 969 l 1
 1665 1072.5 1579.5 1120.5 1542 1120.5 c 3
 1527 1120.5 1519.5 1096.5 1519.5 1096.5 c 1
 1668 1026 1870.5 811.5 1870.5 571.5 c 3
 1870.5 271.5 1638 -30 1359 -30 c 3
 1183.5 -30 1135.5 192 988.5 192 c 3
 957 192 939 190.5 900 175.5 c 2
EndSplineSet
Fore
SplineSet
93 882 m 3xe970
 93 837 131 800 176 800 c 3
 221 800 258 837 258 882 c 3
 258 927 221 964 176 964 c 3
 131 964 93 927 93 882 c 3xe970
-6 882 m 3
 -6 1053 79 1239 262 1239 c 3
 424 1239 468 1062 540 1062 c 3
 608 1062 660 1239 834 1239 c 3xf570
 987 1239 1122 1046 1122 876 c 3
 1122 734 1040 580 880 530 c 2
 402 382 l 2
 206 322 168 257 168 182 c 3
 168 130 192 105 286 105 c 3
 356 105 447 146 570 194 c 2
 850 302 l 2
 912 326 956 327 988 327 c 3
 1192 327 1277 105 1359 105 c 3
 1560 105 1736 344 1736 572 c 3
 1736 656 1703 791 1640 855 c 1
 1612 885 1554 936 1438 1010 c 0
 1399 1036 1382 1043 1382 1077 c 3
 1382 1146 1415 1239 1455 1239 c 3
 1524 1239 1581 1188 1674 1120 c 0
 1752 1063 1797 1020 1812 992 c 1
 1797 969 l 1
 1665 1073 1580 1120 1542 1120 c 3xe2f0
 1527 1120 1520 1096 1520 1096 c 1
 1668 1026 1870 812 1870 572 c 3
 1870 272 1638 -30 1359 -30 c 3
 1183 -30 1135 192 988 192 c 3
 956 192 939 191 900 176 c 2
 620 68 l 2
 468 10 380 -30 286 -30 c 3
 116 -30 33 50 33 182 c 3
 33 306 90 429 363 513 c 2
 840 658 l 1
 922 684 987 770 987 876 c 3
 987 978 902 1104 834 1104 c 3
 736 1104 687 927 540 927 c 3
 381 927 349 1104 262 1104 c 3xf4f0
 229 1104 203 1090 182 1064 c 1
 276 1061 357 978 357 882 c 3
 357 784 274 700 176 700 c 3
 80 700 -6 786 -6 882 c 3
EndSplineSet
MultipleSubs2: "RA-deep prepend intermediate lookup" uni1A55.deep uni1A30 zerojoin
MultipleSubs2: "RA-UU prepend intermediate lookup" uni1A55 uni1A6A uni1A30 zerojoin
MultipleSubs2: "RA-U prepend intermediate lookup" uni1A55 uni1A69 uni1A30 zerojoin
MultipleSubs2: "RA-UEE prepend intermediate lookup" uni1A55 uni1A68 uni1A30 zerojoin
MultipleSubs2: "RA-UE prepend intermediate lookup" uni1A55 uni1A67 uni1A30 zerojoin
MultipleSubs2: "RA-II prepend intermediate lookup" uni1A55 uni1A66 uni1A30 zerojoin
MultipleSubs2: "RA-I prepend intermediate lookup" uni1A55 uni1A65 uni1A30 zerojoin
Ligature2: "RA-C remove intermediate lookup" uni1A30 zerojoin uni1A55
MultipleSubs2: "RA prepend intermediate lookup" uni1A55 uni1A30 zerojoin
Ligature2: "LV remove intermediate for cons" uni1A30 zerojoin uni1A72
Ligature2: "LV remove intermediate for cons" uni1A30 zerojoin uni1A71
Ligature2: "LV remove intermediate for cons" uni1A30 zerojoin uni1A70
Ligature2: "LV remove intermediate for cons" uni1A30 zerojoin uni1A6F
Ligature2: "LV remove intermediate for cons" uni1A30 zerojoin uni1A6E
MultipleSubs2: "LV AI MAIMUAN prepend intermediate lookup" uni1A72 uni1A30 zerojoin
MultipleSubs2: "LV AI MAIMALAI prepend intermediate lookup" uni1A71 uni1A30 zerojoin
MultipleSubs2: "LV O prepend intermediate lookup" uni1A70 uni1A30 zerojoin
MultipleSubs2: "LV AE prepend intermediate lookup" uni1A6F uni1A30 zerojoin
MultipleSubs2: "LV E prepend intermediate lookup" uni1A6E uni1A30 zerojoin
LCarets2: 3 0 0 0 
Ligature2: "ANG-LAN remove intermediate lookup" uni1A58 zerojoin uni1A30
MultipleSubs2: "ANG-LAN append intermediate lookup" zerojoin uni1A30 uni1A58.lai
EndChar

StartChar: uni1A31
Encoding: 6705 6705 15
Width: 2361
VWidth: 3390
GlyphClass: 2
Flags: W
HStem: -30 135<1045.27 1322.57> -30 99<422.878 562.913> 234 99<418.961 563.379> 1104 135<394.125 790.246 1569.91 1909.84>
VStem: 6 135<357.656 830.886> 574 100<78.2089 223.3> 814 136<197.715 461.89> 987 135<649.697 923.684> 1245 135<649.697 933.318> 1418 134<197.715 461.89> 2154 135<459.66 840.971>
AnchorPoint: "BelowRight" 1986 -63 basechar 0
AnchorPoint: "BelowBase" 1184 -63 basechar 0
AnchorPoint: "AboveBase" 1184 1324 basechar 0
LayerCount: 2
Back
SplineSet
492 333 m 3
 589.5 333 673.5 249 673.5 151.5 c 3
 673.5 54 589.5 -30 492 -30 c 3
 396 -30 310.5 55.5 310.5 151.5 c 3x3e4c
 310.5 249 394.5 333 492 333 c 3
409.5 151.5 m 3x3e54
 409.5 106.5 447 69 492 69 c 3
 537 69 574.5 106.5 574.5 151.5 c 3
 574.5 196.5 537 234 492 234 c 3
 447 234 409.5 196.5 409.5 151.5 c 3x3e54
594 1239 m 3
 862.5 1239 1122 1051.5 1122 780 c 3
 1122 598.5 949.5 457.5 949.5 333 c 3
 949.5 198 1054.5 105 1183.5 105 c 3
 1312.5 105 1417.5 198 1417.5 333 c 3
 1417.5 457.5 1245 598.5 1245 780 c 3
 1245 1051.5 1489.5 1239 1752 1239 c 3
 2044.5 1239 2289 952.5 2289 646.5 c 3
 2289 460.5 2167.5 291 1929 130.5 c 1
 1992 139.5 2071.5 187.5 2166 276 c 1
 2071.5 72 1965 -30 1846.5 -30 c 3
 1747.5 -30 1698 -7.5 1698 37.5 c 3
 1698 61.5 1722 91.5 1770 126 c 2
 1923 237 l 2
 2082 352.5 2154 492 2154 646.5 c 3
 2154 891 1956 1104 1752 1104 c 3
 1579.5 1104 1380 985.5 1380 780 c 3
 1380 658.5 1552.5 496.5 1552.5 333 c 3
 1552.5 108 1372.5 -30 1183.5 -30 c 3
 994.5 -30 814.5 108 814.5 333 c 3
 814.5 496.5 987 658.5 987 780 c 3
 987 951 814.5 1104 594 1104 c 3
 309 1104 141 886.5 141 600 c 3
 141 352.5 273 105 492 105 c 1
 492 -30 l 1
 202.5 -30 6 264 6 600 c 3
 6 976.5 244.5 1239 594 1239 c 3
EndSplineSet
Fore
SplineSet
410 152 m 3x7fe0
 410 107 447 69 492 69 c 3
 537 69 574 107 574 152 c 3
 574 197 537 234 492 234 c 3
 447 234 410 197 410 152 c 3x7fe0
492 333 m 3
 590 333 674 250 674 152 c 3
 674 54 590 -30 492 -30 c 3x7fe0
 202 -30 6 264 6 600 c 3
 6 976 244 1239 594 1239 c 3
 862 1239 1122 1052 1122 780 c 3
 1122 598 950 457 950 333 c 3
 950 198 1055 105 1184 105 c 3xbfe0
 1313 105 1418 198 1418 333 c 3
 1418 457 1245 598 1245 780 c 3
 1245 1052 1490 1239 1752 1239 c 3
 2044 1239 2289 952 2289 646 c 3
 2289 460 2167 290 1929 130 c 1
 1992 139 2072 188 2166 276 c 1
 2072 72 1964 -30 1846 -30 c 3x7fe0
 1747 -30 1698 -7 1698 38 c 3
 1698 62 1722 92 1770 126 c 2
 1923 237 l 2
 2082 353 2154 492 2154 646 c 3
 2154 890 1956 1104 1752 1104 c 3
 1580 1104 1380 986 1380 780 c 3
 1380 658 1552 497 1552 333 c 3
 1552 108 1373 -30 1184 -30 c 3xbfe0
 995 -30 814 108 814 333 c 3
 814 497 987 658 987 780 c 3
 987 951 814 1104 594 1104 c 3
 309 1104 141 886 141 600 c 3
 141 430 202 261 312 171 c 1
 322 259 400 333 492 333 c 3
EndSplineSet
MultipleSubs2: "RA-deep prepend intermediate lookup" uni1A55.deep uni1A31 zerojoin
MultipleSubs2: "RA-UU prepend intermediate lookup" uni1A55 uni1A6A uni1A31 zerojoin
MultipleSubs2: "RA-U prepend intermediate lookup" uni1A55 uni1A69 uni1A31 zerojoin
MultipleSubs2: "RA-UEE prepend intermediate lookup" uni1A55 uni1A68 uni1A31 zerojoin
MultipleSubs2: "RA-UE prepend intermediate lookup" uni1A55 uni1A67 uni1A31 zerojoin
MultipleSubs2: "RA-II prepend intermediate lookup" uni1A55 uni1A66 uni1A31 zerojoin
MultipleSubs2: "RA-I prepend intermediate lookup" uni1A55 uni1A65 uni1A31 zerojoin
Ligature2: "RA-C remove intermediate lookup" uni1A31 zerojoin uni1A55
MultipleSubs2: "RA prepend intermediate lookup" uni1A55 uni1A31 zerojoin
Ligature2: "LV remove intermediate for cons" uni1A31 zerojoin uni1A72
Ligature2: "LV remove intermediate for cons" uni1A31 zerojoin uni1A71
Ligature2: "LV remove intermediate for cons" uni1A31 zerojoin uni1A70
Ligature2: "LV remove intermediate for cons" uni1A31 zerojoin uni1A6F
Ligature2: "LV remove intermediate for cons" uni1A31 zerojoin uni1A6E
MultipleSubs2: "LV AI MAIMUAN prepend intermediate lookup" uni1A72 uni1A31 zerojoin
MultipleSubs2: "LV AI MAIMALAI prepend intermediate lookup" uni1A71 uni1A31 zerojoin
MultipleSubs2: "LV O prepend intermediate lookup" uni1A70 uni1A31 zerojoin
MultipleSubs2: "LV AE prepend intermediate lookup" uni1A6F uni1A31 zerojoin
MultipleSubs2: "LV E prepend intermediate lookup" uni1A6E uni1A31 zerojoin
LCarets2: 3 0 0 0 
Ligature2: "ANG-LAN remove intermediate lookup" uni1A58 zerojoin uni1A31
MultipleSubs2: "ANG-LAN append intermediate lookup" zerojoin uni1A31 uni1A58.lai
EndChar

StartChar: uni1A32
Encoding: 6706 6706 16
Width: 2131
VWidth: 3360
GlyphClass: 2
Flags: W
HStem: -30 135<386.145 723.855 1505.89 1679.07> 1104 135<386.145 724.511 1325.95 1630.6>
VStem: 0 135<386.777 821.381> 975 135<387.484 820.709> 1850 134<505.979 870.889>
AnchorPoint: "BelowRight" 1756 -63 basechar 0
AnchorPoint: "BelowBase" 1035 -63 basechar 0
AnchorPoint: "AboveBase" 1035 1324 basechar 0
LayerCount: 2
Back
SplineSet
1110 604.5 m 1
 975 604.5 l 17
 975 954 1173 1239 1479 1239 c 3
 1732.5 1239 1984.5 1000.5 1984.5 684 c 3
 1984.5 429 1737 195 1611 124.5 c 1
 1611 112.5 1615.5 105 1626 105 c 3
 1665 105 1755 151.5 1897.5 240 c 1
 1851 136.5 1678.5 -28.5 1545 -30 c 0
 1488 -30 1461 -3 1461 49.5 c 3
 1461 105 1494 165 1561.5 228 c 0
 1690.5 349.5 1849.5 474 1849.5 684 c 3
 1849.5 918 1660.5 1104 1479 1104 c 3
 1252.5 1104 1110 874.5 1110 604.5 c 1
135 604.5 m 3
 135 328.5 322.5 105 555 105 c 3
 787.5 105 975 328.5 975 604.5 c 3
 975 880.5 787.5 1104 555 1104 c 3
 322.5 1104 135 880.5 135 604.5 c 3
0 604.5 m 3
 0 954 249 1239 555 1239 c 3
 861 1239 1110 954 1110 604.5 c 3
 1110 255 861 -30 555 -30 c 3
 249 -30 0 255 0 604.5 c 3
EndSplineSet
Fore
SplineSet
0 604 m 3
 0 954 249 1239 555 1239 c 3
 761 1239 940 1111 1036 921 c 1
 1117 1111 1273 1239 1479 1239 c 3
 1733 1239 1984 1000 1984 684 c 3
 1984 429 1737 194 1611 124 c 1
 1611 112 1616 105 1626 105 c 3
 1665 105 1756 152 1898 240 c 1
 1852 136 1679 -28 1545 -30 c 0
 1488 -30 1461 -2 1461 50 c 3
 1461 106 1494 165 1562 228 c 0
 1691 350 1850 474 1850 684 c 3
 1850 918 1661 1104 1479 1104 c 3
 1253 1104 1110 874 1110 604 c 3
 1110 254 861 -30 555 -30 c 3
 249 -30 0 254 0 604 c 3
135 604 m 3
 135 328 323 105 555 105 c 3
 787 105 975 328 975 604 c 3
 975 880 787 1104 555 1104 c 3
 323 1104 135 880 135 604 c 3
EndSplineSet
MultipleSubs2: "RA-deep prepend intermediate lookup" uni1A55.deep uni1A32 zerojoin
MultipleSubs2: "RA-UU prepend intermediate lookup" uni1A55 uni1A6A uni1A32 zerojoin
MultipleSubs2: "RA-U prepend intermediate lookup" uni1A55 uni1A69 uni1A32 zerojoin
MultipleSubs2: "RA-UEE prepend intermediate lookup" uni1A55 uni1A68 uni1A32 zerojoin
MultipleSubs2: "RA-UE prepend intermediate lookup" uni1A55 uni1A67 uni1A32 zerojoin
MultipleSubs2: "RA-II prepend intermediate lookup" uni1A55 uni1A66 uni1A32 zerojoin
MultipleSubs2: "RA-I prepend intermediate lookup" uni1A55 uni1A65 uni1A32 zerojoin
Ligature2: "RA-C remove intermediate lookup" uni1A32 zerojoin uni1A55
MultipleSubs2: "RA prepend intermediate lookup" uni1A55 uni1A32 zerojoin
Ligature2: "LV remove intermediate for cons" uni1A32 zerojoin uni1A72
Ligature2: "LV remove intermediate for cons" uni1A32 zerojoin uni1A71
Ligature2: "LV remove intermediate for cons" uni1A32 zerojoin uni1A70
Ligature2: "LV remove intermediate for cons" uni1A32 zerojoin uni1A6F
Ligature2: "LV remove intermediate for cons" uni1A32 zerojoin uni1A6E
MultipleSubs2: "LV AI MAIMUAN prepend intermediate lookup" uni1A72 uni1A32 zerojoin
MultipleSubs2: "LV AI MAIMALAI prepend intermediate lookup" uni1A71 uni1A32 zerojoin
MultipleSubs2: "LV O prepend intermediate lookup" uni1A70 uni1A32 zerojoin
MultipleSubs2: "LV AE prepend intermediate lookup" uni1A6F uni1A32 zerojoin
MultipleSubs2: "LV E prepend intermediate lookup" uni1A6E uni1A32 zerojoin
LCarets2: 3 0 0 0 
Ligature2: "ANG-LAN remove intermediate lookup" uni1A58 zerojoin uni1A32
MultipleSubs2: "ANG-LAN append intermediate lookup" zerojoin uni1A32 uni1A58.lai
EndChar

StartChar: uni1A33
Encoding: 6707 6707 17
Width: 1530
VWidth: 3390
GlyphClass: 2
Flags: W
HStem: -30 99<463.609 603.297> 234 99<460.7 605.791> 1104 135<383.726 877.346>
VStem: 4 136<216.755 411.572 697.585 936.722> 351 99<129.474 223.3> 615 99<80.7028 222.835> 1228 136<388.88 773.458>
AnchorPoint: "BelowRight" 1155 -63 basechar 0
AnchorPoint: "BelowBase" 636 -63 basechar 0
AnchorPoint: "AboveBase" 636 1324 basechar 0
LayerCount: 2
Back
SplineSet
450 151.5 m 3x3e54
 450 106.5 487.5 69 532.5 69 c 3
 577.5 69 615 106.5 615 151.5 c 3
 615 196.5 577.5 234 532.5 234 c 3
 487.5 234 450 196.5 450 151.5 c 3x3e54
532.5 333 m 3
 630 333 714 249 714 151.5 c 3
 714 54 630 -30 532.5 -30 c 3
 436.5 -30 351 55.5 351 151.5 c 3x3e4c
 351 249 435 333 532.5 333 c 3
532.5 -30 m 1
 253.5 -30 4.5 94.5 4.5 315 c 3
 4.5 394.5 43.5 460.5 139.5 559.5 c 1
 27 652.5 0 694.5 0 826.5 c 3
 0 1081.5 337.5 1239 636 1239 c 3
 1011 1239 1363.5 987 1363.5 570 c 3
 1363.5 390 1251 246 1027.5 79.5 c 1
 885 79.5 l 1
 1068 228 1228.5 336 1228.5 570 c 3
 1228.5 892.5 961.5 1104 636 1104 c 3
 400.5 1104 135 982.5 135 826.5 c 3
 135 703.5 222 657 370.5 559.5 c 1
 223.5 495 139.5 366 139.5 315 c 3
 139.5 165 379.5 105 532.5 105 c 1
 532.5 -30 l 1
EndSplineSet
Fore
SplineSet
532 333 m 3
 630 333 714 250 714 152 c 3
 714 54 630 -30 532 -30 c 3
 253 -30 4 95 4 315 c 3
 4 395 44 461 140 560 c 1
 28 653 0 694 0 826 c 3
 0 1081 338 1239 636 1239 c 3
 1011 1239 1364 987 1364 570 c 3
 1364 390 1252 246 1028 80 c 1
 885 80 l 1
 1068 228 1228 336 1228 570 c 3
 1228 892 962 1104 636 1104 c 3
 400 1104 135 982 135 826 c 3
 135 703 222 658 370 560 c 1
 223 496 140 366 140 315 c 3
 140 217 240 159 352 129 c 1
 350 137 351 144 351 152 c 3
 351 250 434 333 532 333 c 3
450 152 m 3
 450 107 487 69 532 69 c 3
 577 69 615 107 615 152 c 3
 615 197 577 234 532 234 c 3
 487 234 450 197 450 152 c 3
EndSplineSet
MultipleSubs2: "RA-deep prepend intermediate lookup" uni1A55.deep uni1A33 zerojoin
MultipleSubs2: "RA-UU prepend intermediate lookup" uni1A55 uni1A6A uni1A33 zerojoin
MultipleSubs2: "RA-U prepend intermediate lookup" uni1A55 uni1A69 uni1A33 zerojoin
MultipleSubs2: "RA-UEE prepend intermediate lookup" uni1A55 uni1A68 uni1A33 zerojoin
MultipleSubs2: "RA-UE prepend intermediate lookup" uni1A55 uni1A67 uni1A33 zerojoin
MultipleSubs2: "RA-II prepend intermediate lookup" uni1A55 uni1A66 uni1A33 zerojoin
MultipleSubs2: "RA-I prepend intermediate lookup" uni1A55 uni1A65 uni1A33 zerojoin
Ligature2: "RA-C remove intermediate lookup" uni1A33 zerojoin uni1A55
MultipleSubs2: "RA prepend intermediate lookup" uni1A55 uni1A33 zerojoin
Ligature2: "LV remove intermediate for cons" uni1A33 zerojoin uni1A72
Ligature2: "LV remove intermediate for cons" uni1A33 zerojoin uni1A71
Ligature2: "LV remove intermediate for cons" uni1A33 zerojoin uni1A70
Ligature2: "LV remove intermediate for cons" uni1A33 zerojoin uni1A6F
Ligature2: "LV remove intermediate for cons" uni1A33 zerojoin uni1A6E
MultipleSubs2: "LV AI MAIMUAN prepend intermediate lookup" uni1A72 uni1A33 zerojoin
MultipleSubs2: "LV AI MAIMALAI prepend intermediate lookup" uni1A71 uni1A33 zerojoin
MultipleSubs2: "LV O prepend intermediate lookup" uni1A70 uni1A33 zerojoin
MultipleSubs2: "LV AE prepend intermediate lookup" uni1A6F uni1A33 zerojoin
MultipleSubs2: "LV E prepend intermediate lookup" uni1A6E uni1A33 zerojoin
LCarets2: 3 0 0 0 
Ligature2: "ANG-LAN remove intermediate lookup" uni1A58 zerojoin uni1A33
MultipleSubs2: "ANG-LAN append intermediate lookup" zerojoin uni1A33 uni1A58.lai
EndChar

StartChar: uni1A34
Encoding: 6708 6708 18
Width: 1537
VWidth: 3390
GlyphClass: 2
Flags: W
HStem: -30 135<366.625 662.047> 219 99<635.778 714.272> 483 99<637.087 778.913> 1104 135<462.057 931.35>
VStem: -3 135<367.796 796.639> 526 100<328.278 473.791> 790 100<330.941 473.791> 1262 134<388.705 789.858>
AnchorPoint: "BelowRight" 1162 -63 basechar 0
AnchorPoint: "BelowBase" 710 -63 basechar 0
AnchorPoint: "AboveBase" 710 1324 basechar 0
LayerCount: 2
Back
SplineSet
625.5 400.5 m 3x3e54
 625.5 355.5 663 318 708 318 c 3
 753 318 790.5 355.5 790.5 400.5 c 3
 790.5 445.5 753 483 708 483 c 3
 663 483 625.5 445.5 625.5 400.5 c 3x3e54
708 582 m 3
 805.5 582 889.5 498 889.5 400.5 c 3
 889.5 303 805.5 219 708 219 c 3
 612 219 526.5 304.5 526.5 400.5 c 3x3e4c
 526.5 498 610.5 582 708 582 c 3
709.5 1104 m 3
 397.5 1104 132 922.5 132 588 c 3
 132 345 283.5 105 535.5 105 c 3
 691.5 105 754.5 258 754.5 400.5 c 1
 889.5 400.5 l 1
 889.5 165 763.5 -30 535.5 -30 c 3
 213 -30 -3 261 -3 588 c 3
 -3 985.5 307.5 1239 709.5 1239 c 3
 1086 1239 1396.5 960 1396.5 588 c 3
 1396.5 297 1236 103.5 915 -30 c 1
 735 -15 l 1
 987 79.5 1261.5 282 1261.5 588 c 3
 1261.5 883.5 1006.5 1104 709.5 1104 c 3
EndSplineSet
Fore
SplineSet
626 400 m 3
 626 355 663 318 708 318 c 3
 753 318 790 355 790 400 c 3
 790 445 753 483 708 483 c 3
 663 483 626 445 626 400 c 3
716 219 m 1
 616 219 526 300 526 400 c 3
 526 498 610 582 708 582 c 3
 806 582 890 498 890 400 c 3
 890 164 764 -30 536 -30 c 3
 214 -30 -3 261 -3 588 c 3
 -3 986 308 1239 710 1239 c 3
 1086 1239 1396 960 1396 588 c 3
 1396 297 1236 104 915 -30 c 1
 735 -15 l 1
 987 79 1262 282 1262 588 c 3
 1262 884 1007 1104 710 1104 c 3
 398 1104 132 922 132 588 c 3
 132 345 284 105 536 105 c 3
 623 105 682 153 716 219 c 1
EndSplineSet
MultipleSubs2: "RA-deep prepend intermediate lookup" uni1A55.deep uni1A34 zerojoin
MultipleSubs2: "RA-UU prepend intermediate lookup" uni1A55 uni1A6A uni1A34 zerojoin
MultipleSubs2: "RA-U prepend intermediate lookup" uni1A55 uni1A69 uni1A34 zerojoin
MultipleSubs2: "RA-UEE prepend intermediate lookup" uni1A55 uni1A68 uni1A34 zerojoin
MultipleSubs2: "RA-UE prepend intermediate lookup" uni1A55 uni1A67 uni1A34 zerojoin
MultipleSubs2: "RA-II prepend intermediate lookup" uni1A55 uni1A66 uni1A34 zerojoin
MultipleSubs2: "RA-I prepend intermediate lookup" uni1A55 uni1A65 uni1A34 zerojoin
Ligature2: "RA-C remove intermediate lookup" uni1A34 zerojoin uni1A55
MultipleSubs2: "RA prepend intermediate lookup" uni1A55 uni1A34 zerojoin
Ligature2: "LV remove intermediate for cons" uni1A34 zerojoin uni1A72
Ligature2: "LV remove intermediate for cons" uni1A34 zerojoin uni1A71
Ligature2: "LV remove intermediate for cons" uni1A34 zerojoin uni1A70
Ligature2: "LV remove intermediate for cons" uni1A34 zerojoin uni1A6F
Ligature2: "LV remove intermediate for cons" uni1A34 zerojoin uni1A6E
MultipleSubs2: "LV AI MAIMUAN prepend intermediate lookup" uni1A72 uni1A34 zerojoin
MultipleSubs2: "LV AI MAIMALAI prepend intermediate lookup" uni1A71 uni1A34 zerojoin
MultipleSubs2: "LV O prepend intermediate lookup" uni1A70 uni1A34 zerojoin
MultipleSubs2: "LV AE prepend intermediate lookup" uni1A6F uni1A34 zerojoin
MultipleSubs2: "LV E prepend intermediate lookup" uni1A6E uni1A34 zerojoin
LCarets2: 3 0 0 0 
Ligature2: "ANG-LAN remove intermediate lookup" uni1A58 zerojoin uni1A34
MultipleSubs2: "ANG-LAN append intermediate lookup" zerojoin uni1A34 uni1A58.lai
EndChar

StartChar: uni1A35
Encoding: 6709 6709 19
Width: 1584
VWidth: 3390
GlyphClass: 2
Flags: W
HStem: -30 21G<256.5 506 918 1089.5> 202 136<610.674 783.363> 1104 135<483.548 974.509>
VStem: 6 135<417.898 784.871> 60 104<886.243 1030.77> 1281 135<465.008 833.676>
AnchorPoint: "BelowRight" 1209 -63 basechar 0
AnchorPoint: "AboveBase" 700 1324 basechar 0
AnchorPoint: "BelowBase" 700 -63 basechar 0
LayerCount: 2
Fore
SplineSet
141 642 m 3xf4
 141 400 247 284 430 156 c 1
 508 262 582 338 700 338 c 3
 793 338 893 256 968 160 c 1
 1163 298 1281 469 1281 657 c 3
 1281 913 1032 1104 747 1104 c 3
 589 1104 390 1052 238 922 c 0
 192 882 146 862 96 862 c 3
 72 862 60 879 60 909 c 3
 60 1123 408 1254 642 1254 c 1
 492 1227 164 1075 164 988 c 0xec
 164 984 166 979 170 976 c 1
 324 1152 517 1239 747 1239 c 3
 1111 1239 1416 985 1416 657 c 3
 1416 399 1253 166 926 -30 c 1
 910 44 766 202 700 202 c 3
 643 202 565 130 447 -30 c 1
 66 237 6 394 6 642 c 3
 6 772 79 844 195 844 c 1
 197 842 199 840 201 836 c 1
 161 784 141 710 141 642 c 3xf4
EndSplineSet
MultipleSubs2: "RA-deep prepend intermediate lookup" uni1A55.deep uni1A35 zerojoin
MultipleSubs2: "RA-UU prepend intermediate lookup" uni1A55 uni1A6A uni1A35 zerojoin
MultipleSubs2: "RA-U prepend intermediate lookup" uni1A55 uni1A69 uni1A35 zerojoin
MultipleSubs2: "RA-UEE prepend intermediate lookup" uni1A55 uni1A68 uni1A35 zerojoin
MultipleSubs2: "RA-UE prepend intermediate lookup" uni1A55 uni1A67 uni1A35 zerojoin
MultipleSubs2: "RA-II prepend intermediate lookup" uni1A55 uni1A66 uni1A35 zerojoin
MultipleSubs2: "RA-I prepend intermediate lookup" uni1A55 uni1A65 uni1A35 zerojoin
Ligature2: "RA-C remove intermediate lookup" uni1A35 zerojoin uni1A55
MultipleSubs2: "RA prepend intermediate lookup" uni1A55 uni1A35 zerojoin
Ligature2: "LV remove intermediate for cons" uni1A35 zerojoin uni1A72
Ligature2: "LV remove intermediate for cons" uni1A35 zerojoin uni1A71
Ligature2: "LV remove intermediate for cons" uni1A35 zerojoin uni1A70
Ligature2: "LV remove intermediate for cons" uni1A35 zerojoin uni1A6F
Ligature2: "LV remove intermediate for cons" uni1A35 zerojoin uni1A6E
MultipleSubs2: "LV AI MAIMUAN prepend intermediate lookup" uni1A72 uni1A35 zerojoin
MultipleSubs2: "LV AI MAIMALAI prepend intermediate lookup" uni1A71 uni1A35 zerojoin
MultipleSubs2: "LV O prepend intermediate lookup" uni1A70 uni1A35 zerojoin
MultipleSubs2: "LV AE prepend intermediate lookup" uni1A6F uni1A35 zerojoin
MultipleSubs2: "LV E prepend intermediate lookup" uni1A6E uni1A35 zerojoin
LCarets2: 3 0 0 0 
Ligature2: "ANG-LAN remove intermediate lookup" uni1A58 zerojoin uni1A35
MultipleSubs2: "ANG-LAN append intermediate lookup" zerojoin uni1A35 uni1A58.lai
EndChar

StartChar: uni1A36
Encoding: 6710 6710 20
Width: 1542
VWidth: 3390
GlyphClass: 2
Flags: W
HStem: 111 135<155.756 994.576> 474 99<991.509 1130.87> 738 99<990.621 1134.43> 1104 135<388.404 1038.42>
VStem: 4 136<200 848.057> 880 100<582.639 727.3> 1290 135<683.95 927.814> 1743 48<-769.874 -676.828>
AnchorPoint: "BelowRight" 588 -63 basechar 0
AnchorPoint: "BelowBase" 726 -63 basechar 0
AnchorPoint: "AboveBase" 726 1324 basechar 0
LayerCount: 2
Back
SplineSet
726 1104 m 3
 262.5 1104 139.5 973.5 139.5 495 c 2
 139.5 199.5 l 1
 256.5 223.5 388.5 246 598.5 246 c 3
 1251 246 1791 -72 1791 -610.5 c 3
 1791 -708 1774.5 -810 1743 -918 c 1
 1735.5 -232.5 1354.5 111 598.5 111 c 3
 426 111 288 93 4.5 40.5 c 1
 4.5 495 l 2
 4.5 1029 160.5 1239 726 1239 c 3
 1069.5 1239 1425 1114.5 1425 808.5 c 3
 1425 604.5 1267.5 474 1062 474 c 1
 1062 609 l 1
 1183.5 609 1290 675 1290 808.5 c 3
 1290 1002 1026 1104 726 1104 c 3
979.5 655.5 m 3x3e54
 979.5 610.5 1017 573 1062 573 c 3
 1107 573 1144.5 610.5 1144.5 655.5 c 3
 1144.5 700.5 1107 738 1062 738 c 3
 1017 738 979.5 700.5 979.5 655.5 c 3x3e54
1062 837 m 3
 1159.5 837 1243.5 753 1243.5 655.5 c 3
 1243.5 558 1159.5 474 1062 474 c 3
 966 474 880.5 559.5 880.5 655.5 c 3x3e4c
 880.5 753 964.5 837 1062 837 c 3
EndSplineSet
Fore
SplineSet
980 656 m 3
 980 611 1017 573 1062 573 c 3
 1107 573 1144 611 1144 656 c 3
 1144 701 1107 738 1062 738 c 3
 1017 738 980 701 980 656 c 3
1062 474 m 3
 966 474 880 560 880 656 c 3
 880 754 964 837 1062 837 c 3
 1152 837 1230 765 1242 678 c 1
 1272 710 1290 752 1290 808 c 3
 1290 1002 1026 1104 726 1104 c 3
 262 1104 140 973 140 495 c 2
 140 200 l 1
 257 224 388 246 598 246 c 3
 1250 246 1791 -72 1791 -610 c 3
 1791 -708 1775 -810 1743 -918 c 1
 1735 -232 1354 111 598 111 c 3
 426 111 288 92 4 40 c 1
 4 495 l 2
 4 1029 160 1239 726 1239 c 3
 1070 1239 1425 1114 1425 808 c 3
 1425 604 1268 474 1062 474 c 3
EndSplineSet
MultipleSubs2: "RA-deep prepend intermediate lookup" uni1A55.deep uni1A36 zerojoin
MultipleSubs2: "RA-UU prepend intermediate lookup" uni1A55 uni1A6A uni1A36 zerojoin
MultipleSubs2: "RA-U prepend intermediate lookup" uni1A55 uni1A69 uni1A36 zerojoin
MultipleSubs2: "RA-UEE prepend intermediate lookup" uni1A55 uni1A68 uni1A36 zerojoin
MultipleSubs2: "RA-UE prepend intermediate lookup" uni1A55 uni1A67 uni1A36 zerojoin
MultipleSubs2: "RA-II prepend intermediate lookup" uni1A55 uni1A66 uni1A36 zerojoin
MultipleSubs2: "RA-I prepend intermediate lookup" uni1A55 uni1A65 uni1A36 zerojoin
Ligature2: "RA-C remove intermediate lookup" uni1A36 zerojoin uni1A55
MultipleSubs2: "RA prepend intermediate lookup" uni1A55 uni1A36 zerojoin
Ligature2: "LV remove intermediate for cons" uni1A36 zerojoin uni1A72
Ligature2: "LV remove intermediate for cons" uni1A36 zerojoin uni1A71
Ligature2: "LV remove intermediate for cons" uni1A36 zerojoin uni1A70
Ligature2: "LV remove intermediate for cons" uni1A36 zerojoin uni1A6F
Ligature2: "LV remove intermediate for cons" uni1A36 zerojoin uni1A6E
MultipleSubs2: "LV AI MAIMUAN prepend intermediate lookup" uni1A72 uni1A36 zerojoin
MultipleSubs2: "LV AI MAIMALAI prepend intermediate lookup" uni1A71 uni1A36 zerojoin
MultipleSubs2: "LV O prepend intermediate lookup" uni1A70 uni1A36 zerojoin
MultipleSubs2: "LV AE prepend intermediate lookup" uni1A6F uni1A36 zerojoin
MultipleSubs2: "LV E prepend intermediate lookup" uni1A6E uni1A36 zerojoin
LCarets2: 2 0 0 
Ligature2: "ANG-LAN remove intermediate lookup" uni1A58 zerojoin uni1A36
MultipleSubs2: "ANG-LAN append intermediate lookup" zerojoin uni1A36 uni1A58.lai
EndChar

StartChar: uni1A37
Encoding: 6711 6711 21
Width: 1476
VWidth: 3390
GlyphClass: 2
Flags: W
HStem: -30 135<409.622 900.098> 1140 99<94.6996 239.791>
VStem: -15 99<984.691 1129.3> -4 134<341.205 663.053> 249 99<985.26 1128.84> 1071 179<1038.57 1191.94> 1168 136<360.104 1003.11>
AnchorPoint: "BelowRight" 1101 -63 basechar 0
AnchorPoint: "BelowBase" 650 -63 basechar 0
AnchorPoint: "AboveBase" 650 1324 basechar 0
LayerCount: 2
Back
SplineSet
84 1057.5 m 3x3e54
 84 1012.5 121.5 975 166.5 975 c 3
 211.5 975 249 1012.5 249 1057.5 c 3
 249 1102.5 211.5 1140 166.5 1140 c 3
 121.5 1140 84 1102.5 84 1057.5 c 3x3e54
166.5 1239 m 3
 264 1239 348 1155 348 1057.5 c 3
 348 960 264 876 166.5 876 c 3
 70.5 876 -15 961.5 -15 1057.5 c 3x3e4c
 -15 1155 69 1239 166.5 1239 c 3
649.5 105 m 3
 1003.5 105 1168.5 286.5 1168.5 603 c 3
 1168.5 879 1114.5 1042.5 1071 1197 c 1
 1071 1225.5 1098 1239 1153.5 1239 c 0
 1188 1239 1219.5 1180.5 1249.5 1062 c 0
 1281 939 1303.5 757.5 1303.5 603 c 3
 1303.5 195 1063.5 -30 649.5 -30 c 3
 300 -30 -4.5 183 -4.5 496.5 c 3
 -4.5 741 213 942 213 1057.5 c 1
 348 1057.5 l 1
 348 889.5 130.5 690 130.5 496.5 c 3
 130.5 268.5 367.5 105 649.5 105 c 3
EndSplineSet
Fore
SplineSet
84 1058 m 3xe8
 84 1013 121 975 166 975 c 3
 211 975 249 1013 249 1058 c 3
 249 1103 211 1140 166 1140 c 3
 121 1140 84 1103 84 1058 c 3xe8
135 879 m 1
 53 895 -15 972 -15 1058 c 3xe8
 -15 1156 68 1239 166 1239 c 3
 264 1239 348 1156 348 1058 c 3
 348 890 130 690 130 496 c 3
 130 268 368 105 650 105 c 3
 1004 105 1168 287 1168 603 c 3xda
 1168 879 1115 1043 1071 1197 c 1
 1071 1225 1098 1239 1154 1239 c 3
 1188 1239 1220 1180 1250 1062 c 0xcc
 1282 939 1304 757 1304 603 c 3
 1304 195 1064 -30 650 -30 c 3
 300 -30 -4 182 -4 496 c 3xda
 -4 642 72 773 135 879 c 1
EndSplineSet
MultipleSubs2: "RA-deep prepend intermediate lookup" uni1A55.deep uni1A37 zerojoin
MultipleSubs2: "RA-UU prepend intermediate lookup" uni1A55 uni1A6A uni1A37 zerojoin
MultipleSubs2: "RA-U prepend intermediate lookup" uni1A55 uni1A69 uni1A37 zerojoin
MultipleSubs2: "RA-UEE prepend intermediate lookup" uni1A55 uni1A68 uni1A37 zerojoin
MultipleSubs2: "RA-UE prepend intermediate lookup" uni1A55 uni1A67 uni1A37 zerojoin
MultipleSubs2: "RA-II prepend intermediate lookup" uni1A55 uni1A66 uni1A37 zerojoin
MultipleSubs2: "RA-I prepend intermediate lookup" uni1A55 uni1A65 uni1A37 zerojoin
Ligature2: "RA-C remove intermediate lookup" uni1A37 zerojoin uni1A55
MultipleSubs2: "RA prepend intermediate lookup" uni1A55 uni1A37 zerojoin
Ligature2: "LV remove intermediate for cons" uni1A37 zerojoin uni1A72
Ligature2: "LV remove intermediate for cons" uni1A37 zerojoin uni1A71
Ligature2: "LV remove intermediate for cons" uni1A37 zerojoin uni1A70
Ligature2: "LV remove intermediate for cons" uni1A37 zerojoin uni1A6F
Ligature2: "LV remove intermediate for cons" uni1A37 zerojoin uni1A6E
MultipleSubs2: "LV AI MAIMUAN prepend intermediate lookup" uni1A72 uni1A37 zerojoin
MultipleSubs2: "LV AI MAIMALAI prepend intermediate lookup" uni1A71 uni1A37 zerojoin
MultipleSubs2: "LV O prepend intermediate lookup" uni1A70 uni1A37 zerojoin
MultipleSubs2: "LV AE prepend intermediate lookup" uni1A6F uni1A37 zerojoin
MultipleSubs2: "LV E prepend intermediate lookup" uni1A6E uni1A37 zerojoin
LCarets2: 3 0 0 0 
Ligature2: "ANG-LAN remove intermediate lookup" uni1A58 zerojoin uni1A37
MultipleSubs2: "ANG-LAN append intermediate lookup" zerojoin uni1A37 uni1A58.lai
EndChar

StartChar: uni1A38
Encoding: 6712 6712 22
Width: 1476
VWidth: 3390
GlyphClass: 2
Flags: W
HStem: -30 135<409.622 900.098> 1140 99<94.6996 239.791 1042 1168.34>
VStem: -15 99<984.691 1129.3> -4 134<341.205 663.053> 249 99<985.26 1128.84> 1168 136<360.505 851.806>
AnchorPoint: "BelowRight" 1251 -63 basechar 0
AnchorPoint: "AboveBase" 650 1324 basechar 0
AnchorPoint: "BelowBase" 650 -63 basechar 0
LayerCount: 2
Back
SplineSet
84 1057.5 m 3x3e54
 84 1012.5 121.5 975 166.5 975 c 3
 211.5 975 249 1012.5 249 1057.5 c 3
 249 1102.5 211.5 1140 166.5 1140 c 3
 121.5 1140 84 1102.5 84 1057.5 c 3x3e54
166.5 1239 m 3
 264 1239 348 1155 348 1057.5 c 3
 348 960 264 876 166.5 876 c 3
 70.5 876 -15 961.5 -15 1057.5 c 3x3e4c
 -15 1155 69 1239 166.5 1239 c 3
873 1167 m 0
 873 1191 1027.5 1239 1056 1239 c 3
 1134 1239 1195.5 1203 1242 1131 c 0
 1267.5 1092 1294.5 1021.5 1326 918 c 1
 1203 1072.5 1123.5 1149 1087.5 1149 c 3
 1086 1149 1080 1147.5 1071 1144.5 c 1
 1189.5 1036.5 1303.5 871.5 1303.5 603 c 3
 1303.5 196.5 1063.5 -30 649.5 -30 c 3
 300 -30 -4.5 183 -4.5 496.5 c 3
 -4.5 741 213 942 213 1057.5 c 1
 348 1057.5 l 1
 348 889.5 130.5 690 130.5 496.5 c 3
 130.5 268.5 367.5 105 649.5 105 c 3
 1003.5 105 1168.5 286.5 1168.5 603 c 3
 1168.5 855 1084.5 940.5 952.5 1075.5 c 0
 901.5 1128 873 1159.5 873 1167 c 0
EndSplineSet
Fore
SplineSet
84 1058 m 3xec
 84 1013 121 975 166 975 c 3
 211 975 249 1013 249 1058 c 3
 249 1103 211 1140 166 1140 c 3
 121 1140 84 1103 84 1058 c 3xec
135 879 m 1
 53 895 -15 972 -15 1058 c 3xec
 -15 1156 68 1239 166 1239 c 3
 264 1239 348 1156 348 1058 c 3
 348 890 130 690 130 496 c 3
 130 268 368 105 650 105 c 3
 1004 105 1168 287 1168 603 c 3
 1168 855 1084 941 952 1076 c 0
 901 1128 873 1159 873 1167 c 3
 873 1191 1028 1239 1056 1239 c 3
 1134 1239 1196 1203 1242 1131 c 0
 1268 1092 1294 1022 1326 918 c 1
 1203 1072 1124 1149 1088 1149 c 3
 1086 1149 1080 1147 1071 1144 c 1
 1189 1036 1304 871 1304 603 c 3
 1304 197 1064 -30 650 -30 c 3
 300 -30 -4 182 -4 496 c 3xdc
 -4 642 72 773 135 879 c 1
EndSplineSet
MultipleSubs2: "RA-deep prepend intermediate lookup" uni1A55.deep uni1A38 zerojoin
MultipleSubs2: "RA-UU prepend intermediate lookup" uni1A55 uni1A6A uni1A38 zerojoin
MultipleSubs2: "RA-U prepend intermediate lookup" uni1A55 uni1A69 uni1A38 zerojoin
MultipleSubs2: "RA-UEE prepend intermediate lookup" uni1A55 uni1A68 uni1A38 zerojoin
MultipleSubs2: "RA-UE prepend intermediate lookup" uni1A55 uni1A67 uni1A38 zerojoin
MultipleSubs2: "RA-II prepend intermediate lookup" uni1A55 uni1A66 uni1A38 zerojoin
MultipleSubs2: "RA-I prepend intermediate lookup" uni1A55 uni1A65 uni1A38 zerojoin
Ligature2: "RA-C remove intermediate lookup" uni1A38 zerojoin uni1A55
MultipleSubs2: "RA prepend intermediate lookup" uni1A55 uni1A38 zerojoin
Ligature2: "LV remove intermediate for cons" uni1A38 zerojoin uni1A72
Ligature2: "LV remove intermediate for cons" uni1A38 zerojoin uni1A71
Ligature2: "LV remove intermediate for cons" uni1A38 zerojoin uni1A70
Ligature2: "LV remove intermediate for cons" uni1A38 zerojoin uni1A6F
Ligature2: "LV remove intermediate for cons" uni1A38 zerojoin uni1A6E
MultipleSubs2: "LV AI MAIMUAN prepend intermediate lookup" uni1A72 uni1A38 zerojoin
MultipleSubs2: "LV AI MAIMALAI prepend intermediate lookup" uni1A71 uni1A38 zerojoin
MultipleSubs2: "LV O prepend intermediate lookup" uni1A70 uni1A38 zerojoin
MultipleSubs2: "LV AE prepend intermediate lookup" uni1A6F uni1A38 zerojoin
MultipleSubs2: "LV E prepend intermediate lookup" uni1A6E uni1A38 zerojoin
LCarets2: 3 0 0 0 
Ligature2: "ANG-LAN remove intermediate lookup" uni1A58 zerojoin uni1A38
MultipleSubs2: "ANG-LAN append intermediate lookup" zerojoin uni1A38 uni1A58.lai
EndChar

StartChar: uni1A39
Encoding: 6713 6713 23
Width: 1597
VWidth: 3390
GlyphClass: 2
Flags: W
HStem: -30 135<218.459 396.255 837.816 1090.45> 153 135<551.252 686.527> 844 136<879.94 1124.96> 876 99<300.097 442.913> 1104 135<881.626 1101.99> 1140 99<301.464 443.379> 1194 20G<1305 1328>
VStem: 21 135<171.734 402.862 803.49 1018.5> 154 136<522.227 699.772> 454 100<984.209 1129.3> 742 136<984.681 1097.22> 1280 134<335.329 871.701>
AnchorPoint: "BelowRight" 1222 -63 basechar 0
AnchorPoint: "BelowBase" 726 -63 basechar 0
AnchorPoint: "AboveBase" 726 1324 basechar 0
LayerCount: 2
Back
SplineSet
289.5 1057.5 m 3x3e54
 289.5 1012.5 327 975 372 975 c 3
 417 975 454.5 1012.5 454.5 1057.5 c 3
 454.5 1102.5 417 1140 372 1140 c 3
 327 1140 289.5 1102.5 289.5 1057.5 c 3x3e54
372 1239 m 3
 469.5 1239 553.5 1155 553.5 1057.5 c 3
 553.5 960 469.5 876 372 876 c 3
 276 876 190.5 961.5 190.5 1057.5 c 3x3e4c
 190.5 1155 274.5 1239 372 1239 c 3
1279.5 589.5 m 3
 1279.5 856.5 1177.5 1104 958.5 1104 c 3
 909 1104 877.5 1078.5 877.5 1042.5 c 3
 877.5 1000.5 906 979.5 958.5 979.5 c 3
 1122 979.5 1183.5 1062 1270.5 1182 c 0
 1285.5 1203 1299 1213.5 1309.5 1213.5 c 3
 1345.5 1213.5 1363.5 1185 1363.5 1126.5 c 3
 1363.5 1110 1353 1084.5 1332 1050 c 0
 1270.5 946.5 1158 844.5 958.5 844.5 c 3
 829.5 844.5 742.5 925.5 742.5 1042.5 c 3
 742.5 1150.5 823.5 1239 958.5 1239 c 3
 1263 1239 1414.5 942 1414.5 589.5 c 3
 1414.5 246 1251 -30 928.5 -30 c 3
 748.5 -30 688.5 153 621 153 c 3
 553.5 153 475.5 -30 312 -30 c 3
 133.5 -30 21 145.5 21 297 c 3
 21 423 154.5 559.5 154.5 625.5 c 3
 154.5 679.5 15 762 15 885 c 3
 15 1083 156 1239 372 1239 c 1
 372 1104 l 1
 225 1104 150 999 150 885 c 3
 150 825 289.5 748.5 289.5 625.5 c 3
 289.5 507 156 369 156 297 c 3
 156 211.5 223.5 105 312 105 c 3
 411 105 469.5 288 621 288 c 3
 780 288 811.5 105 928.5 105 c 3
 1179 105 1279.5 339 1279.5 589.5 c 3
EndSplineSet
Fore
SplineSet
290 1058 m 3xd4f0
 290 1013 327 975 372 975 c 3
 417 975 454 1013 454 1058 c 3
 454 1103 417 1140 372 1140 c 3
 327 1140 290 1103 290 1058 c 3xd4f0
1364 1126 m 3
 1364 1105 1336 1050 1316 1023 c 1
 1382 907 1414 755 1414 590 c 3
 1414 246 1250 -30 928 -30 c 3
 748 -30 689 153 621 153 c 3
 553 153 476 -30 312 -30 c 3
 134 -30 21 145 21 297 c 3xc370
 21 423 154 560 154 626 c 3
 154 680 15 762 15 885 c 3
 15 1083 156 1239 372 1239 c 3
 470 1239 554 1156 554 1058 c 3
 554 960 470 876 372 876 c 3
 288 876 210 942 194 1023 c 1
 164 984 150 936 150 885 c 3
 150 825 290 749 290 626 c 3xd4f0
 290 508 156 369 156 297 c 3
 156 211 224 105 312 105 c 3
 411 105 469 288 621 288 c 3
 780 288 811 105 928 105 c 3
 1178 105 1280 340 1280 590 c 3
 1280 712 1259 829 1215 921 c 1
 1152 876 1068 844 958 844 c 3
 829 844 742 925 742 1042 c 3
 742 1150 823 1239 958 1239 c 3xe970
 1070 1239 1163 1200 1233 1131 c 1
 1270 1182 l 2
 1285 1203 1300 1214 1310 1214 c 3xc370
 1346 1214 1364 1184 1364 1126 c 3
1137 1032 m 1
 1089 1077 1030 1104 958 1104 c 3
 908 1104 878 1078 878 1042 c 3
 878 1000 906 980 958 980 c 3xe870
 1036 980 1092 999 1137 1032 c 1
EndSplineSet
MultipleSubs2: "RA-deep prepend intermediate lookup" uni1A55.deep uni1A39 zerojoin
MultipleSubs2: "RA-UU prepend intermediate lookup" uni1A55 uni1A6A uni1A39 zerojoin
MultipleSubs2: "RA-U prepend intermediate lookup" uni1A55 uni1A69 uni1A39 zerojoin
MultipleSubs2: "RA-UEE prepend intermediate lookup" uni1A55 uni1A68 uni1A39 zerojoin
MultipleSubs2: "RA-UE prepend intermediate lookup" uni1A55 uni1A67 uni1A39 zerojoin
MultipleSubs2: "RA-II prepend intermediate lookup" uni1A55 uni1A66 uni1A39 zerojoin
MultipleSubs2: "RA-I prepend intermediate lookup" uni1A55 uni1A65 uni1A39 zerojoin
Ligature2: "RA-C remove intermediate lookup" uni1A39 zerojoin uni1A55
MultipleSubs2: "RA prepend intermediate lookup" uni1A55 uni1A39 zerojoin
Ligature2: "LV remove intermediate for cons" uni1A39 zerojoin uni1A72
Ligature2: "LV remove intermediate for cons" uni1A39 zerojoin uni1A71
Ligature2: "LV remove intermediate for cons" uni1A39 zerojoin uni1A70
Ligature2: "LV remove intermediate for cons" uni1A39 zerojoin uni1A6F
Ligature2: "LV remove intermediate for cons" uni1A39 zerojoin uni1A6E
MultipleSubs2: "LV AI MAIMUAN prepend intermediate lookup" uni1A72 uni1A39 zerojoin
MultipleSubs2: "LV AI MAIMALAI prepend intermediate lookup" uni1A71 uni1A39 zerojoin
MultipleSubs2: "LV O prepend intermediate lookup" uni1A70 uni1A39 zerojoin
MultipleSubs2: "LV AE prepend intermediate lookup" uni1A6F uni1A39 zerojoin
MultipleSubs2: "LV E prepend intermediate lookup" uni1A6E uni1A39 zerojoin
LCarets2: 3 0 0 0 
Ligature2: "ANG-LAN remove intermediate lookup" uni1A58 zerojoin uni1A39
MultipleSubs2: "ANG-LAN append intermediate lookup" zerojoin uni1A39 uni1A58.lai
EndChar

StartChar: uni1A3A
Encoding: 6714 6714 24
Width: 1432
VWidth: 3390
GlyphClass: 2
Flags: W
HStem: -30 135<196.413 374.092 815.654 1032.15> 153 135<528.407 663.675> 876 99<277.899 420.835> 1140 99<279.053 421.3> 1728 105<214.993 721.99>
VStem: -2 136<171.734 405.449 803.49 1018.5> 132 135<524.766 697.322> 432 99<984.209 1129.3> 1198 136<323.597 1048.33>
AnchorPoint: "BelowRight" 1058 -63 basechar 0
AnchorPoint: "BelowBase" 598 -63 basechar 0
AnchorPoint: "AboveBase" 598 1872 basechar 0
LayerCount: 2
Back
SplineSet
267 1057.5 m 3x3e54
 267 1012.5 304.5 975 349.5 975 c 3
 394.5 975 432 1012.5 432 1057.5 c 3
 432 1102.5 394.5 1140 349.5 1140 c 3
 304.5 1140 267 1102.5 267 1057.5 c 3x3e54
349.5 1239 m 3
 447 1239 531 1155 531 1057.5 c 3
 531 960 447 876 349.5 876 c 3
 253.5 876 168 961.5 168 1057.5 c 3x3e4c
 168 1155 252 1239 349.5 1239 c 3
1198.5 589.5 m 3
 1198.5 877.5 1173 1029 1117.5 1141.5 c 0
 1057.5 1261.5 937.5 1353 825 1402.5 c 0
 634.5 1486.5 402 1525.5 28.5 1599 c 0
 15 1602 7.5 1608 6 1617 c 1
 6 1759.5 139.5 1833 412.5 1833 c 3
 567 1833 736.5 1800 912 1735.5 c 0
 1138.5 1651.5 1251 1542 1251 1408.5 c 1
 1191 1498.5 1063.5 1576.5 867 1641 c 0
 694.5 1698 543 1728 412.5 1728 c 3
 327 1728 261 1714.5 213 1689 c 1
 342 1674 663 1629 888 1522.5 c 0
 1056 1443 1170 1330.5 1239 1201.5 c 0
 1302 1083 1333.5 904.5 1333.5 589.5 c 3
 1333.5 246 1170 -30 906 -30 c 3
 726 -30 666 153 598.5 153 c 3
 531 153 453 -30 289.5 -30 c 3
 111 -30 -1.5 145.5 -1.5 297 c 3
 -1.5 423 132 559.5 132 625.5 c 3
 132 679.5 -7.5 762 -7.5 885 c 3
 -7.5 1083 133.5 1239 349.5 1239 c 1
 349.5 1104 l 1
 202.5 1104 127.5 999 127.5 885 c 3
 127.5 825 267 748.5 267 625.5 c 3
 267 507 133.5 369 133.5 297 c 3
 133.5 211.5 201 105 289.5 105 c 3
 388.5 105 447 288 598.5 288 c 3
 757.5 288 789 105 906 105 c 3
 1095 105 1198.5 339 1198.5 589.5 c 3
EndSplineSet
Fore
SplineSet
267 1058 m 3xfb80
 267 1013 305 975 350 975 c 3
 395 975 432 1013 432 1058 c 3
 432 1103 395 1140 350 1140 c 3
 305 1140 267 1103 267 1058 c 3xfb80
172 1023 m 1
 142 984 128 936 128 885 c 3
 128 825 267 749 267 626 c 3xfb80
 267 508 134 369 134 297 c 3
 134 211 202 105 290 105 c 3
 389 105 446 288 598 288 c 3
 757 288 789 105 906 105 c 3
 1095 105 1198 340 1198 590 c 3
 1198 878 1174 1030 1118 1142 c 0
 1058 1262 937 1352 825 1402 c 0
 635 1486 402 1525 28 1599 c 0
 14 1602 8 1608 6 1617 c 1
 6 1759 139 1833 412 1833 c 3
 566 1833 736 1800 912 1736 c 1
 1138 1652 1251 1542 1251 1408 c 1
 1191 1498 1063 1577 867 1641 c 0
 695 1698 542 1728 412 1728 c 3
 326 1728 261 1715 213 1689 c 1
 342 1674 663 1628 888 1522 c 0
 1056 1442 1170 1331 1239 1202 c 0
 1302 1084 1334 905 1334 590 c 3
 1334 246 1170 -30 906 -30 c 3
 726 -30 666 153 598 153 c 3
 530 153 454 -30 290 -30 c 3
 112 -30 -2 145 -2 297 c 3xfd80
 -2 423 132 560 132 626 c 3
 132 680 -8 762 -8 885 c 3
 -8 1083 134 1239 350 1239 c 3
 448 1239 531 1156 531 1058 c 3
 531 960 448 876 350 876 c 3
 266 876 190 942 172 1023 c 1
EndSplineSet
MultipleSubs2: "RA-deep prepend intermediate lookup" uni1A55.deep uni1A3A zerojoin
MultipleSubs2: "RA-UU prepend intermediate lookup" uni1A55 uni1A6A uni1A3A zerojoin
MultipleSubs2: "RA-U prepend intermediate lookup" uni1A55 uni1A69 uni1A3A zerojoin
MultipleSubs2: "RA-UEE prepend intermediate lookup" uni1A55 uni1A68 uni1A3A zerojoin
MultipleSubs2: "RA-UE prepend intermediate lookup" uni1A55 uni1A67 uni1A3A zerojoin
MultipleSubs2: "RA-II prepend intermediate lookup" uni1A55 uni1A66 uni1A3A zerojoin
MultipleSubs2: "RA-I prepend intermediate lookup" uni1A55 uni1A65 uni1A3A zerojoin
Ligature2: "RA-C remove intermediate lookup" uni1A3A zerojoin uni1A55
MultipleSubs2: "RA prepend intermediate lookup" uni1A55 uni1A3A zerojoin
Ligature2: "LV remove intermediate for cons" uni1A3A zerojoin uni1A72
Ligature2: "LV remove intermediate for cons" uni1A3A zerojoin uni1A71
Ligature2: "LV remove intermediate for cons" uni1A3A zerojoin uni1A70
Ligature2: "LV remove intermediate for cons" uni1A3A zerojoin uni1A6F
Ligature2: "LV remove intermediate for cons" uni1A3A zerojoin uni1A6E
MultipleSubs2: "LV AI MAIMUAN prepend intermediate lookup" uni1A72 uni1A3A zerojoin
MultipleSubs2: "LV AI MAIMALAI prepend intermediate lookup" uni1A71 uni1A3A zerojoin
MultipleSubs2: "LV O prepend intermediate lookup" uni1A70 uni1A3A zerojoin
MultipleSubs2: "LV AE prepend intermediate lookup" uni1A6F uni1A3A zerojoin
MultipleSubs2: "LV E prepend intermediate lookup" uni1A6E uni1A3A zerojoin
LCarets2: 2 0 0 
Ligature2: "ANG-LAN remove intermediate lookup" uni1A58 zerojoin uni1A3A
MultipleSubs2: "ANG-LAN append intermediate lookup" zerojoin uni1A3A uni1A58.lai
EndChar

StartChar: uni1A3B
Encoding: 6715 6715 25
Width: 1800
VWidth: 3390
GlyphClass: 2
Flags: W
HStem: -30 135<345.29 645.714> -30 88<1267 1455.55> 327 99<685.726 803.331> 591 99<687.781 830.677> 1104 135<368.011 668.418 1099.93 1379.13>
VStem: -3 135<361.312 810.472> 578 98<437.587 579.297> 842 110<363.823 579.609> 1576 136<377.75 848.023>
AnchorPoint: "BelowRight" 1430 -63 basechar 0
AnchorPoint: "BelowBase" 880 -63 basechar 0
AnchorPoint: "AboveBase" 880 1324 basechar 0
LayerCount: 2
Back
SplineSet
676.5 508.5 m 3x3e54
 676.5 463.5 714 426 759 426 c 3
 804 426 841.5 463.5 841.5 508.5 c 3
 841.5 553.5 804 591 759 591 c 3
 714 591 676.5 553.5 676.5 508.5 c 3x3e54
759 690 m 3
 856.5 690 940.5 606 940.5 508.5 c 3
 940.5 411 856.5 327 759 327 c 3
 663 327 577.5 412.5 577.5 508.5 c 3x3e4c
 577.5 606 661.5 690 759 690 c 3
802.5 523.5 m 9
 930 565.5 l 1
 940.5 537 952.5 459 952.5 408 c 3
 952.5 199.5 741 -30 490.5 -30 c 3xbf80
 214.5 -30 -3 249 -3 586.5 c 3
 -3 916.5 220.5 1239 505.5 1239 c 3
 648 1239 774 1177.5 880.5 1054.5 c 1
 993 1176 1119 1239 1255.5 1239 c 3
 1503 1239 1711.5 949.5 1711.5 603 c 3
 1711.5 312 1593 204 1357.5 70.5 c 1
 1369.5 63 1381.5 58.5 1393.5 58.5 c 3
 1435.5 58.5 1503 100.5 1594.5 184.5 c 1
 1525.5 42 1431 -30 1309.5 -30 c 3x7f80
 1224 -30 1197 3 1197 70.5 c 0
 1197 90 1215 123 1228.5 127.5 c 0
 1456.5 204 1576.5 349.5 1576.5 603 c 3
 1576.5 892.5 1411.5 1104 1255.5 1104 c 3
 1125 1104 999 1006.5 880.5 879 c 1
 750 1030.5 625.5 1104 505.5 1104 c 3
 303 1104 132 841.5 132 586.5 c 3
 132 309 306 105 490.5 105 c 3xbf80
 657 105 817.5 264 817.5 408 c 3
 817.5 439.5 814.5 487.5 802.5 523.5 c 9
EndSplineSet
Fore
SplineSet
676 508 m 3x3f80
 676 463 714 426 759 426 c 3
 804 426 842 463 842 508 c 3
 842 553 804 591 759 591 c 3
 714 591 676 553 676 508 c 3x3f80
804 333 m 1
 789 329 774 327 759 327 c 3
 663 327 578 412 578 508 c 3
 578 606 661 690 759 690 c 3
 901 690 952 555 952 408 c 3
 952 200 740 -30 490 -30 c 3xbf80
 214 -30 -3 248 -3 586 c 3
 -3 916 221 1239 506 1239 c 3
 648 1239 774 1177 880 1054 c 1
 992 1176 1120 1239 1256 1239 c 3
 1504 1239 1712 949 1712 603 c 3
 1712 312 1594 204 1358 70 c 1
 1370 62 1382 58 1394 58 c 3
 1436 58 1502 100 1594 184 c 1
 1525 42 1432 -30 1310 -30 c 3x7f80
 1224 -30 1197 2 1197 70 c 3
 1197 90 1214 124 1228 128 c 0
 1456 204 1576 349 1576 603 c 3
 1576 893 1412 1104 1256 1104 c 3
 1126 1104 998 1007 880 879 c 1
 750 1031 626 1104 506 1104 c 3
 304 1104 132 841 132 586 c 3
 132 308 306 105 490 105 c 3xbf80
 628 105 762 213 804 333 c 1
EndSplineSet
MultipleSubs2: "RA-deep prepend intermediate lookup" uni1A55.deep uni1A3B zerojoin
MultipleSubs2: "RA-UU prepend intermediate lookup" uni1A55 uni1A6A uni1A3B zerojoin
MultipleSubs2: "RA-U prepend intermediate lookup" uni1A55 uni1A69 uni1A3B zerojoin
MultipleSubs2: "RA-UEE prepend intermediate lookup" uni1A55 uni1A68 uni1A3B zerojoin
MultipleSubs2: "RA-UE prepend intermediate lookup" uni1A55 uni1A67 uni1A3B zerojoin
MultipleSubs2: "RA-II prepend intermediate lookup" uni1A55 uni1A66 uni1A3B zerojoin
MultipleSubs2: "RA-I prepend intermediate lookup" uni1A55 uni1A65 uni1A3B zerojoin
Ligature2: "RA-C remove intermediate lookup" uni1A3B zerojoin uni1A55
MultipleSubs2: "RA prepend intermediate lookup" uni1A55 uni1A3B zerojoin
Ligature2: "LV remove intermediate for cons" uni1A3B zerojoin uni1A72
Ligature2: "LV remove intermediate for cons" uni1A3B zerojoin uni1A71
Ligature2: "LV remove intermediate for cons" uni1A3B zerojoin uni1A70
Ligature2: "LV remove intermediate for cons" uni1A3B zerojoin uni1A6F
Ligature2: "LV remove intermediate for cons" uni1A3B zerojoin uni1A6E
MultipleSubs2: "LV AI MAIMUAN prepend intermediate lookup" uni1A72 uni1A3B zerojoin
MultipleSubs2: "LV AI MAIMALAI prepend intermediate lookup" uni1A71 uni1A3B zerojoin
MultipleSubs2: "LV O prepend intermediate lookup" uni1A70 uni1A3B zerojoin
MultipleSubs2: "LV AE prepend intermediate lookup" uni1A6F uni1A3B zerojoin
MultipleSubs2: "LV E prepend intermediate lookup" uni1A6E uni1A3B zerojoin
LCarets2: 3 0 0 0 
Ligature2: "ANG-LAN remove intermediate lookup" uni1A58 zerojoin uni1A3B
MultipleSubs2: "ANG-LAN append intermediate lookup" zerojoin uni1A3B uni1A58.lai
EndChar

StartChar: uni1A3C
Encoding: 6716 6716 26
Width: 1821
VWidth: 3390
GlyphClass: 2
Flags: W
HStem: -30 135<338.996 658.224> -30 88<1272.5 1455.55> 296 98<689.587 801.142> 560 98<689.165 831.631> 1005 135<424.825 585.794 1096.49 1383.24> 1360 100<636.666 945.358>
VStem: -3 135<337.556 735.48> 312 99<1152.51 1287.75> 579 99<403.726 550.704> 600 99<1152.41 1288.9> 843 109<338.657 549.359> 1576 136<380.834 773.447>
AnchorPoint: "BelowRight" 1446 -63 basechar 0
AnchorPoint: "BelowBase" 880 -63 basechar 0
AnchorPoint: "AboveBase" 880 1500 basechar 0
LayerCount: 2
Back
SplineSet
312 1221 m 3
 312 1320 399 1401 505.5 1401 c 3
 612 1401 699 1320 699 1221 c 3
 699 1122 612 1041 505.5 1041 c 3
 399 1041 312 1122 312 1221 c 3
805.5 486 m 9
 937.5 514.5 l 1
 942 492 952.5 429 952.5 378 c 3
 952.5 165 741 -30 490.5 -30 c 3xbb90
 214.5 -30 -3 241.5 -3 540 c 3
 -3 825 220.5 1140 505.5 1140 c 3
 648 1140 774 1081.5 880.5 958.5 c 1
 993 1080 1119 1140 1255.5 1140 c 3
 1503 1140 1711.5 859.5 1711.5 577.5 c 27
 1711.5 336 1593 204 1357.5 70.5 c 1
 1369.5 63 1381.5 58.5 1393.5 58.5 c 3
 1435.5 58.5 1503 100.5 1594.5 184.5 c 1
 1525.5 42 1431 -30 1309.5 -30 c 3x7b98
 1234.5 -30 1197 3 1197 70.5 c 3
 1197 84 1209 120 1228.5 127.5 c 0
 1453.5 210 1576.5 369 1576.5 577.5 c 3
 1576.5 798 1414.5 1005 1255.5 1005 c 3
 1123.5 1005 999 910.5 880.5 783 c 1
 754.5 930 625.5 1005 505.5 1005 c 3
 309 1005 132 757.5 132 540 c 3
 132 310.5 295.5 105 490.5 105 c 3xbb90
 657 105 817.5 234 817.5 378 c 3
 817.5 414 813 450 805.5 486 c 9
678 477 m 3x3e54
 678 432 715.5 394.5 760.5 394.5 c 3
 805.5 394.5 843 432 843 477 c 3
 843 522 805.5 559.5 760.5 559.5 c 3
 715.5 559.5 678 522 678 477 c 3x3e54
760.5 658.5 m 3
 858 658.5 942 574.5 942 477 c 3
 942 379.5 858 295.5 760.5 295.5 c 3
 664.5 295.5 579 381 579 477 c 3x3e4c
 579 574.5 663 658.5 760.5 658.5 c 3
411 1221 m 3
 411 1176 453 1140 505.5 1140 c 3x3bf0
 558 1140 600 1176 600 1221 c 3
 600 1266 558 1302 505.5 1302 c 3
 453 1302 411 1266 411 1221 c 3
1513.5 1089 m 1
 1326 1186.5 1041 1360.5 694.5 1360.5 c 3
 613.5 1360.5 411 1338 411 1221 c 9
 312 1221 l 1
 312 1389 502.5 1459.5 694.5 1459.5 c 3
 972 1459.5 1371 1246.5 1513.5 1089 c 1
EndSplineSet
Fore
SplineSet
1514 1089 m 1xbfb0
 1326 1187 1040 1360 694 1360 c 3
 678 1360 656 1361 632 1358 c 1
 672 1325 699 1275 699 1221 c 3
 699 1181 686 1144 662 1114 c 1
 742 1086 814 1034 880 958 c 1
 992 1080 1120 1140 1256 1140 c 3
 1504 1140 1712 860 1712 578 c 3
 1712 336 1594 204 1358 70 c 1
 1370 62 1382 58 1394 58 c 3
 1436 58 1502 100 1594 184 c 1
 1525 42 1432 -30 1310 -30 c 3x7f70
 1235 -30 1197 2 1197 70 c 3
 1197 84 1208 120 1228 128 c 0
 1453 210 1576 370 1576 578 c 3
 1576 798 1415 1005 1256 1005 c 3
 1124 1005 998 911 880 783 c 1
 754 930 626 1005 506 1005 c 3
 310 1005 132 758 132 540 c 3
 132 310 295 105 490 105 c 3
 626 105 758 190 802 300 c 1
 788 297 774 296 760 296 c 3
 664 296 579 381 579 477 c 3
 579 575 662 658 760 658 c 3
 902 658 952 528 952 378 c 3
 952 165 740 -30 490 -30 c 3
 214 -30 -3 242 -3 540 c 3
 -3 772 146 1024 354 1110 c 1
 328 1140 312 1179 312 1221 c 3
 312 1389 502 1460 694 1460 c 3
 972 1460 1372 1247 1514 1089 c 1xbfb0
678 477 m 3x3fb0
 678 432 715 394 760 394 c 3
 805 394 843 432 843 477 c 3
 843 522 805 560 760 560 c 3
 715 560 678 522 678 477 c 3x3fb0
411 1221 m 3
 411 1176 454 1140 506 1140 c 3
 558 1140 600 1176 600 1221 c 3x3f70
 600 1266 558 1302 506 1302 c 3
 454 1302 411 1266 411 1221 c 3
EndSplineSet
MultipleSubs2: "RA-deep prepend intermediate lookup" uni1A55.deep uni1A3C zerojoin
MultipleSubs2: "RA-UU prepend intermediate lookup" uni1A55 uni1A6A uni1A3C zerojoin
MultipleSubs2: "RA-U prepend intermediate lookup" uni1A55 uni1A69 uni1A3C zerojoin
MultipleSubs2: "RA-UEE prepend intermediate lookup" uni1A55 uni1A68 uni1A3C zerojoin
MultipleSubs2: "RA-UE prepend intermediate lookup" uni1A55 uni1A67 uni1A3C zerojoin
MultipleSubs2: "RA-II prepend intermediate lookup" uni1A55 uni1A66 uni1A3C zerojoin
MultipleSubs2: "RA-I prepend intermediate lookup" uni1A55 uni1A65 uni1A3C zerojoin
Ligature2: "RA-C remove intermediate lookup" uni1A3C zerojoin uni1A55
MultipleSubs2: "RA prepend intermediate lookup" uni1A55 uni1A3C zerojoin
Ligature2: "LV remove intermediate for cons" uni1A3C zerojoin uni1A72
Ligature2: "LV remove intermediate for cons" uni1A3C zerojoin uni1A71
Ligature2: "LV remove intermediate for cons" uni1A3C zerojoin uni1A70
Ligature2: "LV remove intermediate for cons" uni1A3C zerojoin uni1A6F
Ligature2: "LV remove intermediate for cons" uni1A3C zerojoin uni1A6E
MultipleSubs2: "LV AI MAIMUAN prepend intermediate lookup" uni1A72 uni1A3C zerojoin
MultipleSubs2: "LV AI MAIMALAI prepend intermediate lookup" uni1A71 uni1A3C zerojoin
MultipleSubs2: "LV O prepend intermediate lookup" uni1A70 uni1A3C zerojoin
MultipleSubs2: "LV AE prepend intermediate lookup" uni1A6F uni1A3C zerojoin
MultipleSubs2: "LV E prepend intermediate lookup" uni1A6E uni1A3C zerojoin
LCarets2: 3 0 0 0 
Ligature2: "ANG-LAN remove intermediate lookup" uni1A58 zerojoin uni1A3C
MultipleSubs2: "ANG-LAN append intermediate lookup" zerojoin uni1A3C uni1A58.lai
EndChar

StartChar: uni1A3D
Encoding: 6717 6717 27
Width: 1579
VWidth: 3390
GlyphClass: 2
Flags: W
HStem: -30 132<1075.98 1203> -30 112<1179 1295.49> 1104 135<581.319 1053.74> 1140 99<103.296 250.529>
VStem: -4 98<985.352 1128.84> 9 135<325.662 575.729> 1353 135<409.602 830.732>
AnchorPoint: "BelowRight" 1204 -63 basechar 0
AnchorPoint: "BelowBase" 824 -63 basechar 0
AnchorPoint: "AboveBase" 824 1324 basechar 0
LayerCount: 2
Back
SplineSet
94.5 1057.5 m 3x3e54
 94.5 1012.5 132 975 177 975 c 3
 222 975 259.5 1012.5 259.5 1057.5 c 3
 259.5 1102.5 222 1140 177 1140 c 3
 132 1140 94.5 1102.5 94.5 1057.5 c 3x3e54
177 1239 m 3
 274.5 1239 358.5 1155 358.5 1057.5 c 3
 358.5 960 274.5 876 177 876 c 3
 81 876 -4.5 961.5 -4.5 1057.5 c 3x3e4c
 -4.5 1155 79.5 1239 177 1239 c 3
1179 84 m 1
 1186.5 84 1192.5 82.5 1198.5 82.5 c 3
 1320 82.5 1315.5 109.5 1440 198 c 1
 1365 46.5 1272 -30 1159.5 -30 c 3
 1074 -30 976.5 15 870 105 c 1
 1203 159 1353 360 1353 652.5 c 3
 1353 906 1120.5 1104 823.5 1104 c 259
 546 1104 277.5 948 277.5 652.5 c 3
 277.5 442.5 354 235.5 694.5 102 c 1
 619.5 13.5 552 -30 490.5 -30 c 3
 223.5 -30 9 207 9 541.5 c 3
 9 808.5 223.5 940.5 223.5 1057.5 c 1
 358.5 1057.5 l 17
 358.5 883.5 144 751.5 144 541.5 c 3
 144 343.5 243 171 420 103.5 c 1
 258 193.5 142.5 388.5 142.5 652.5 c 3
 142.5 1017 457.5 1239 823.5 1239 c 3
 1189.5 1239 1488 990 1488 652.5 c 3
 1488 384 1389 190.5 1179 84 c 1
EndSplineSet
Fore
SplineSet
94 1058 m 3x1a
 94 1013 132 975 177 975 c 3
 222 975 260 1013 260 1058 c 3
 260 1103 222 1140 177 1140 c 3
 132 1140 94 1103 94 1058 c 3x1a
146 576 m 1
 144 566 144 554 144 542 c 3x06
 144 344 243 172 420 104 c 1
 274 185 166 351 146 576 c 1
134 882 m 1
 58 903 -4 977 -4 1058 c 3
 -4 1156 79 1239 177 1239 c 3x5a
 264 1239 340 1172 356 1090 c 1
 479 1186 646 1239 824 1239 c 3
 1190 1239 1488 990 1488 652 c 3
 1488 384 1389 190 1179 84 c 1
 1187 84 1192 82 1198 82 c 3x6a
 1320 82 1316 110 1440 198 c 1
 1365 46 1272 -30 1160 -30 c 3
 1074 -30 976 15 870 105 c 1
 1203 159 1353 360 1353 652 c 3
 1353 906 1121 1104 824 1104 c 3
 546 1104 278 948 278 652 c 3
 278 442 354 236 694 102 c 1xaa
 619 14 552 -30 490 -30 c 3x4a
 223 -30 9 208 9 542 c 3
 9 690 76 796 134 882 c 1
EndSplineSet
MultipleSubs2: "RA-deep prepend intermediate lookup" uni1A55.deep uni1A3D zerojoin
MultipleSubs2: "RA-UU prepend intermediate lookup" uni1A55 uni1A6A uni1A3D zerojoin
MultipleSubs2: "RA-U prepend intermediate lookup" uni1A55 uni1A69 uni1A3D zerojoin
MultipleSubs2: "RA-UEE prepend intermediate lookup" uni1A55 uni1A68 uni1A3D zerojoin
MultipleSubs2: "RA-UE prepend intermediate lookup" uni1A55 uni1A67 uni1A3D zerojoin
MultipleSubs2: "RA-II prepend intermediate lookup" uni1A55 uni1A66 uni1A3D zerojoin
MultipleSubs2: "RA-I prepend intermediate lookup" uni1A55 uni1A65 uni1A3D zerojoin
Ligature2: "RA-C remove intermediate lookup" uni1A3D zerojoin uni1A55
MultipleSubs2: "RA prepend intermediate lookup" uni1A55 uni1A3D zerojoin
Ligature2: "LV remove intermediate for cons" uni1A3D zerojoin uni1A72
Ligature2: "LV remove intermediate for cons" uni1A3D zerojoin uni1A71
Ligature2: "LV remove intermediate for cons" uni1A3D zerojoin uni1A70
Ligature2: "LV remove intermediate for cons" uni1A3D zerojoin uni1A6F
Ligature2: "LV remove intermediate for cons" uni1A3D zerojoin uni1A6E
MultipleSubs2: "LV AI MAIMUAN prepend intermediate lookup" uni1A72 uni1A3D zerojoin
MultipleSubs2: "LV AI MAIMALAI prepend intermediate lookup" uni1A71 uni1A3D zerojoin
MultipleSubs2: "LV O prepend intermediate lookup" uni1A70 uni1A3D zerojoin
MultipleSubs2: "LV AE prepend intermediate lookup" uni1A6F uni1A3D zerojoin
MultipleSubs2: "LV E prepend intermediate lookup" uni1A6E uni1A3D zerojoin
LCarets2: 3 0 0 0 
Ligature2: "ANG-LAN remove intermediate lookup" uni1A58 zerojoin uni1A3D
MultipleSubs2: "ANG-LAN append intermediate lookup" zerojoin uni1A3D uni1A58.lai
EndChar

StartChar: uni1A3E
Encoding: 6718 6718 28
Width: 1498
VWidth: 3390
GlyphClass: 2
Flags: W
HStem: -30 135<409.622 908.785> 324 99<587.587 729.297> 588 99<586.7 731.395> 1140 99<94.6996 239.791 1042 1168.34>
VStem: -15 99<984.691 1129.3> -4 134<341.205 663.053> 249 99<985.26 1128.84> 477 99<432.639 577.3> 741 99<434.703 535.74> 1168 136<567.639 849.447> 1370 127<-74.0312 224.733>
AnchorPoint: "BelowRight" 1124 -63 basechar 0
AnchorPoint: "BelowBase" 650 -63 basechar 0
AnchorPoint: "AboveBase" 650 1324 basechar 0
LayerCount: 2
Back
SplineSet
84 1057.5 m 3x3e54
 84 1012.5 121.5 975 166.5 975 c 3
 211.5 975 249 1012.5 249 1057.5 c 3
 249 1102.5 211.5 1140 166.5 1140 c 3
 121.5 1140 84 1102.5 84 1057.5 c 3x3e54
166.5 1239 m 3
 264 1239 348 1155 348 1057.5 c 3
 348 960 264 876 166.5 876 c 3
 70.5 876 -15 961.5 -15 1057.5 c 3x3e4c
 -15 1155 69 1239 166.5 1239 c 3
873 1167 m 0
 873 1191 1027.5 1239 1056 1239 c 3
 1134 1239 1195.5 1203 1242 1131 c 0
 1267.5 1092 1294.5 1021.5 1326 918 c 1
 1203 1072.5 1123.5 1149 1087.5 1149 c 3
 1086 1149 1080 1147.5 1071 1144.5 c 1
 1189.5 1036.5 1303.5 871.5 1303.5 603 c 3
 1303.5 196.5 1063.5 -30 649.5 -30 c 3
 300 -30 -4.5 183 -4.5 496.5 c 3
 -4.5 741 213 942 213 1057.5 c 1
 348 1057.5 l 1
 348 889.5 130.5 690 130.5 496.5 c 3
 130.5 268.5 367.5 105 649.5 105 c 3
 1003.5 105 1168.5 286.5 1168.5 603 c 3
 1168.5 855 1084.5 940.5 952.5 1075.5 c 0
 901.5 1128 873 1159.5 873 1167 c 0
1198.5 388.5 m 0
 1053 499.5 837 552 658.5 552 c 1
 658.5 687 l 1
 828 687 1066.5 639 1233 529.5 c 0
 1417.5 408 1497 307.5 1497 115.5 c 27
 1497 -37.5 1444.5 -121.5 1314 -231 c 1
 1351.5 -145.5 1369.5 -63 1369.5 15 c 3
 1369.5 163.5 1311 303 1198.5 388.5 c 0
576 505.5 m 3x3e54
 576 460.5 613.5 423 658.5 423 c 3
 703.5 423 741 460.5 741 505.5 c 3
 741 550.5 703.5 588 658.5 588 c 3
 613.5 588 576 550.5 576 505.5 c 3x3e54
658.5 687 m 3
 756 687 840 603 840 505.5 c 3
 840 408 756 324 658.5 324 c 3
 562.5 324 477 409.5 477 505.5 c 3x3e4c
 477 603 561 687 658.5 687 c 3
EndSplineSet
Fore
SplineSet
576 506 m 3xf3e0
 576 461 613 423 658 423 c 3
 703 423 741 461 741 506 c 3
 741 551 703 588 658 588 c 3
 613 588 576 551 576 506 c 3xf3e0
84 1058 m 3xfbe0
 84 1013 121 975 166 975 c 3
 211 975 249 1013 249 1058 c 3
 249 1103 211 1140 166 1140 c 3
 121 1140 84 1103 84 1058 c 3xfbe0
837 536 m 1
 839 526 840 516 840 506 c 3
 840 408 756 324 658 324 c 3
 562 324 477 410 477 506 c 3
 477 604 560 687 658 687 c 3
 806 687 1009 649 1168 567 c 1
 1168 579 1168 591 1168 603 c 3
 1168 855 1084 941 952 1076 c 0
 901 1128 873 1159 873 1167 c 3
 873 1191 1028 1239 1056 1239 c 3
 1134 1239 1196 1203 1242 1131 c 0
 1268 1092 1294 1022 1326 918 c 1
 1203 1072 1124 1149 1088 1149 c 3
 1086 1149 1080 1147 1071 1144 c 1
 1189 1036 1304 871 1304 603 c 3
 1304 563 1300 524 1296 486 c 1
 1436 382 1497 284 1497 116 c 3
 1497 -37 1444 -121 1314 -231 c 1
 1352 -145 1370 -63 1370 15 c 3
 1370 133 1332 248 1258 332 c 1
 1171 98 960 -30 650 -30 c 3
 300 -30 -4 182 -4 496 c 3xf7e0
 -4 642 72 773 135 879 c 1
 53 895 -15 972 -15 1058 c 3xfbe0
 -15 1156 68 1239 166 1239 c 3
 264 1239 348 1156 348 1058 c 3
 348 890 130 690 130 496 c 3xf7e0
 130 268 368 105 650 105 c 3
 930 105 1092 219 1148 423 c 1
 1056 479 947 516 837 536 c 1
EndSplineSet
MultipleSubs2: "RA-deep prepend intermediate lookup" uni1A55.deep uni1A3E zerojoin
MultipleSubs2: "RA-UU prepend intermediate lookup" uni1A55 uni1A6A uni1A3E zerojoin
MultipleSubs2: "RA-U prepend intermediate lookup" uni1A55 uni1A69 uni1A3E zerojoin
MultipleSubs2: "RA-UEE prepend intermediate lookup" uni1A55 uni1A68 uni1A3E zerojoin
MultipleSubs2: "RA-UE prepend intermediate lookup" uni1A55 uni1A67 uni1A3E zerojoin
MultipleSubs2: "RA-II prepend intermediate lookup" uni1A55 uni1A66 uni1A3E zerojoin
MultipleSubs2: "RA-I prepend intermediate lookup" uni1A55 uni1A65 uni1A3E zerojoin
Ligature2: "RA-C remove intermediate lookup" uni1A3E zerojoin uni1A55
MultipleSubs2: "RA prepend intermediate lookup" uni1A55 uni1A3E zerojoin
Ligature2: "LV remove intermediate for cons" uni1A3E zerojoin uni1A72
Ligature2: "LV remove intermediate for cons" uni1A3E zerojoin uni1A71
Ligature2: "LV remove intermediate for cons" uni1A3E zerojoin uni1A70
Ligature2: "LV remove intermediate for cons" uni1A3E zerojoin uni1A6F
Ligature2: "LV remove intermediate for cons" uni1A3E zerojoin uni1A6E
MultipleSubs2: "LV AI MAIMUAN prepend intermediate lookup" uni1A72 uni1A3E zerojoin
MultipleSubs2: "LV AI MAIMALAI prepend intermediate lookup" uni1A71 uni1A3E zerojoin
MultipleSubs2: "LV O prepend intermediate lookup" uni1A70 uni1A3E zerojoin
MultipleSubs2: "LV AE prepend intermediate lookup" uni1A6F uni1A3E zerojoin
MultipleSubs2: "LV E prepend intermediate lookup" uni1A6E uni1A3E zerojoin
LCarets2: 3 0 0 0 
Ligature2: "ANG-LAN remove intermediate lookup" uni1A58 zerojoin uni1A3E
MultipleSubs2: "ANG-LAN append intermediate lookup" zerojoin uni1A3E uni1A58.lai
EndChar

StartChar: uni1A3F
Encoding: 6719 6719 29
Width: 2062
VWidth: 3390
GlyphClass: 2
Flags: W
HStem: -30 135<364.604 695.818 1229.93 1557.79> 1149 90<99.825 232.575 846 962.757 1591 1707.76>
VStem: -15 99<984.691 1129.3> -4 134<330.383 663.053> 249 99<985.26 1128.84> 912 135<362.833 923.241> 1778 134<360.945 809.234>
AnchorPoint: "BelowRight" 1688 -63 basechar 0
AnchorPoint: "AboveBase" 951 1324 basechar 0
AnchorPoint: "BelowBase" 951 -63 basechar 0
LayerCount: 2
Back
SplineSet
1012.5 393 m 17
 1066.5 220.5 1257 105 1387.5 105 c 3
 1611 105 1777.5 289.5 1777.5 603 c 3
 1777.5 855 1633.5 940.5 1501.5 1075.5 c 0
 1450.5 1128 1422 1159.5 1422 1167 c 0
 1422 1191 1576.5 1239 1605 1239 c 3
 1683 1239 1744.5 1203 1791 1131 c 0
 1816.5 1092 1843.5 1021.5 1875 918 c 1
 1752 1072.5 1672.5 1149 1636.5 1149 c 3
 1635 1149 1629 1147.5 1620 1144.5 c 1
 1738.5 1036.5 1912.5 871.5 1912.5 603 c 3
 1912.5 196.5 1674 -30 1387.5 -30 c 3
 1201.5 -30 957 118.5 883.5 352.5 c 1
 1012.5 393 l 17
84 1057.5 m 3x3e54
 84 1012.5 121.5 975 166.5 975 c 3
 211.5 975 249 1012.5 249 1057.5 c 3
 249 1102.5 211.5 1140 166.5 1140 c 3
 121.5 1140 84 1102.5 84 1057.5 c 3x3e54
166.5 1239 m 3
 264 1239 348 1155 348 1057.5 c 3
 348 960 264 876 166.5 876 c 3
 70.5 876 -15 961.5 -15 1057.5 c 3x3e4c
 -15 1155 69 1239 166.5 1239 c 3
676.5 1167 m 0
 676.5 1191 831 1239 859.5 1239 c 3
 937.5 1239 999 1203 1045.5 1131 c 0
 1071 1092 1098 1021.5 1129.5 918 c 1
 1006.5 1072.5 927 1149 891 1149 c 3
 889.5 1149 883.5 1147.5 874.5 1144.5 c 1
 993 1036.5 1047 871.5 1047 603 c 3
 1047 196.5 808.5 -30 522 -30 c 3
 300 -30 -4.5 183 -4.5 496.5 c 3
 -4.5 741 213 942 213 1057.5 c 1
 348 1057.5 l 1
 348 889.5 130.5 690 130.5 496.5 c 3
 130.5 268.5 363 105 522 105 c 3
 750 105 912 286.5 912 603 c 3
 912 855 888 940.5 756 1075.5 c 0
 705 1128 676.5 1159.5 676.5 1167 c 0
EndSplineSet
Fore
SplineSet
84 1058 m 3xee
 84 1013 121 975 166 975 c 3
 211 975 249 1013 249 1058 c 3
 249 1103 211 1140 166 1140 c 3
 121 1140 84 1103 84 1058 c 3xee
135 879 m 1
 53 895 -15 972 -15 1058 c 3xee
 -15 1156 68 1239 166 1239 c 3
 264 1239 348 1156 348 1058 c 3
 348 890 130 690 130 496 c 3
 130 268 363 105 522 105 c 3
 750 105 912 287 912 603 c 3
 912 855 888 941 756 1076 c 0
 705 1128 676 1159 676 1167 c 3
 676 1191 832 1239 860 1239 c 3
 938 1239 1000 1203 1046 1131 c 0
 1072 1092 1098 1022 1130 918 c 1
 1007 1072 927 1149 891 1149 c 3
 889 1149 883 1147 874 1144 c 1
 992 1036 1047 871 1047 603 c 3
 1047 519 1036 443 1018 375 c 1
 1080 211 1262 105 1388 105 c 3
 1612 105 1778 289 1778 603 c 3
 1778 855 1634 941 1502 1076 c 0
 1451 1128 1422 1159 1422 1167 c 3
 1422 1191 1577 1239 1605 1239 c 3
 1683 1239 1745 1203 1791 1131 c 0
 1817 1092 1843 1022 1875 918 c 1
 1752 1072 1672 1149 1636 1149 c 3
 1634 1149 1629 1147 1620 1144 c 1
 1738 1036 1912 871 1912 603 c 3
 1912 197 1674 -30 1388 -30 c 3
 1241 -30 1057 63 951 216 c 1
 855 56 698 -30 522 -30 c 3
 300 -30 -4 182 -4 496 c 3xde
 -4 642 72 773 135 879 c 1
EndSplineSet
MultipleSubs2: "RA-deep prepend intermediate lookup" uni1A55.deep uni1A3F zerojoin
MultipleSubs2: "RA-UU prepend intermediate lookup" uni1A55 uni1A6A uni1A3F zerojoin
MultipleSubs2: "RA-U prepend intermediate lookup" uni1A55 uni1A69 uni1A3F zerojoin
MultipleSubs2: "RA-UEE prepend intermediate lookup" uni1A55 uni1A68 uni1A3F zerojoin
MultipleSubs2: "RA-UE prepend intermediate lookup" uni1A55 uni1A67 uni1A3F zerojoin
MultipleSubs2: "RA-II prepend intermediate lookup" uni1A55 uni1A66 uni1A3F zerojoin
MultipleSubs2: "RA-I prepend intermediate lookup" uni1A55 uni1A65 uni1A3F zerojoin
Ligature2: "RA-C remove intermediate lookup" uni1A3F zerojoin uni1A55
MultipleSubs2: "RA prepend intermediate lookup" uni1A55 uni1A3F zerojoin
Ligature2: "LV remove intermediate for cons" uni1A3F zerojoin uni1A72
Ligature2: "LV remove intermediate for cons" uni1A3F zerojoin uni1A71
Ligature2: "LV remove intermediate for cons" uni1A3F zerojoin uni1A70
Ligature2: "LV remove intermediate for cons" uni1A3F zerojoin uni1A6F
Ligature2: "LV remove intermediate for cons" uni1A3F zerojoin uni1A6E
MultipleSubs2: "LV AI MAIMUAN prepend intermediate lookup" uni1A72 uni1A3F zerojoin
MultipleSubs2: "LV AI MAIMALAI prepend intermediate lookup" uni1A71 uni1A3F zerojoin
MultipleSubs2: "LV O prepend intermediate lookup" uni1A70 uni1A3F zerojoin
MultipleSubs2: "LV AE prepend intermediate lookup" uni1A6F uni1A3F zerojoin
MultipleSubs2: "LV E prepend intermediate lookup" uni1A6E uni1A3F zerojoin
LCarets2: 3 0 0 0 
Ligature2: "ANG-LAN remove intermediate lookup" uni1A58 zerojoin uni1A3F
MultipleSubs2: "ANG-LAN append intermediate lookup" zerojoin uni1A3F uni1A58.lai
EndChar

StartChar: uni1A40
Encoding: 6720 6720 30
Width: 1480
VWidth: 3390
GlyphClass: 2
Flags: W
HStem: -30 135<340.282 932.752> 876 99<173.628 316.913> 1140 99<175.708 317.379> 1814 104<287.099 785.138>
VStem: 3 135<253.033 500.649> 9 155<893.002 1125.56> 328 100<984.209 1129.3> 1202 134<388.904 1130.78>
AnchorPoint: "BelowRight" 1106 -63 basechar 0
AnchorPoint: "AboveBase" 628 1950 basechar 0
AnchorPoint: "BelowBase" 628 -63 basechar 0
LayerCount: 2
Back
SplineSet
1336.5 765 m 3
 1336.5 219 1180.5 -30 628.5 -30 c 3
 310.5 -30 3 91.5 3 376.5 c 3
 3 501 61.5 604.5 193.5 678 c 1
 60 736.5 9 813 9 964.5 c 3
 9 1093.5 90 1239 246 1239 c 1
 246 1104 l 1
 178.5 1104 144 1051.5 144 964.5 c 3
 144 891 160.5 831 240 808.5 c 0
 259.5 804 339 777 477 777 c 3
 508.5 777 529.5 744 529.5 732 c 3
 529.5 709.5 511.5 699 463.5 673.5 c 2
 247.5 553.5 l 2
 186 519 138 460.5 138 376.5 c 3
 138 183 388.5 105 628.5 105 c 3
 1066.5 105 1201.5 255 1201.5 765 c 3
 1201.5 1425 909 1563 394.5 1590 c 2
 43.5 1608 l 1
 126 1815 283.5 1918.5 517.5 1918.5 c 3
 823.5 1918.5 1177.5 1720.5 1290 1536 c 1
 999 1713 747 1813.5 532.5 1813.5 c 3
 396 1813.5 280.5 1795.5 192 1698 c 1
 217.5 1698 l 2
 957 1698 1336.5 1527 1336.5 765 c 3
163.5 1057.5 m 3x3e54
 163.5 1012.5 201 975 246 975 c 3
 291 975 328.5 1012.5 328.5 1057.5 c 3
 328.5 1102.5 291 1140 246 1140 c 3
 201 1140 163.5 1102.5 163.5 1057.5 c 3x3e54
246 1239 m 3
 343.5 1239 427.5 1155 427.5 1057.5 c 3
 427.5 960 343.5 876 246 876 c 3
 150 876 64.5 961.5 64.5 1057.5 c 3x3e4c
 64.5 1155 148.5 1239 246 1239 c 3
EndSplineSet
Fore
SplineSet
164 1058 m 3xf7
 164 1013 201 975 246 975 c 3
 291 975 328 1013 328 1058 c 3
 328 1103 291 1140 246 1140 c 3
 201 1140 164 1103 164 1058 c 3xf7
246 1239 m 3
 344 1239 428 1156 428 1058 c 3
 428 960 344 876 246 876 c 3
 212 876 176 886 148 906 c 1
 157 860 183 824 240 808 c 1
 260 804 339 777 477 777 c 3
 509 777 530 744 530 732 c 3
 530 710 512 700 464 674 c 2
 248 554 l 2
 186 520 138 460 138 376 c 3
 138 182 388 105 628 105 c 3
 1066 105 1202 255 1202 765 c 3
 1202 1425 908 1563 394 1590 c 2
 44 1608 l 1
 126 1815 284 1918 518 1918 c 3
 824 1918 1178 1720 1290 1536 c 1
 999 1713 746 1814 532 1814 c 3
 396 1814 280 1796 192 1698 c 1
 218 1698 l 2
 958 1698 1336 1527 1336 765 c 3
 1336 219 1180 -30 628 -30 c 3
 310 -30 3 91 3 376 c 3xfb
 3 500 62 604 194 678 c 1
 60 736 9 812 9 964 c 3
 9 1093 90 1239 246 1239 c 3
EndSplineSet
MultipleSubs2: "RA-deep prepend intermediate lookup" uni1A55.deep uni1A40 zerojoin
MultipleSubs2: "RA-UU prepend intermediate lookup" uni1A55 uni1A6A uni1A40 zerojoin
MultipleSubs2: "RA-U prepend intermediate lookup" uni1A55 uni1A69 uni1A40 zerojoin
MultipleSubs2: "RA-UEE prepend intermediate lookup" uni1A55 uni1A68 uni1A40 zerojoin
MultipleSubs2: "RA-UE prepend intermediate lookup" uni1A55 uni1A67 uni1A40 zerojoin
MultipleSubs2: "RA-II prepend intermediate lookup" uni1A55 uni1A66 uni1A40 zerojoin
MultipleSubs2: "RA-I prepend intermediate lookup" uni1A55 uni1A65 uni1A40 zerojoin
Ligature2: "RA-C remove intermediate lookup" uni1A40 zerojoin uni1A55
MultipleSubs2: "RA prepend intermediate lookup" uni1A55 uni1A40 zerojoin
Ligature2: "LV remove intermediate for cons" uni1A40 zerojoin uni1A72
Ligature2: "LV remove intermediate for cons" uni1A40 zerojoin uni1A71
Ligature2: "LV remove intermediate for cons" uni1A40 zerojoin uni1A70
Ligature2: "LV remove intermediate for cons" uni1A40 zerojoin uni1A6F
Ligature2: "LV remove intermediate for cons" uni1A40 zerojoin uni1A6E
MultipleSubs2: "LV AI MAIMUAN prepend intermediate lookup" uni1A72 uni1A40 zerojoin
MultipleSubs2: "LV AI MAIMALAI prepend intermediate lookup" uni1A71 uni1A40 zerojoin
MultipleSubs2: "LV O prepend intermediate lookup" uni1A70 uni1A40 zerojoin
MultipleSubs2: "LV AE prepend intermediate lookup" uni1A6F uni1A40 zerojoin
MultipleSubs2: "LV E prepend intermediate lookup" uni1A6E uni1A40 zerojoin
LCarets2: 3 0 0 0 
Ligature2: "ANG-LAN remove intermediate lookup" uni1A58 zerojoin uni1A40
MultipleSubs2: "ANG-LAN append intermediate lookup" zerojoin uni1A40 uni1A58.lai
EndChar

StartChar: uni1A41
Encoding: 6721 6721 31
Width: 1248
VWidth: 3390
GlyphClass: 2
Flags: W
HStem: -30 135<296.268 772.553> 416 98<137.165 279.297> 933 75<1014.05 1168.66> 1104 135<184.371 648.976>
VStem: 2 134<914.75 1058.45> 27 99<261.603 406.704> 291 99<260.954 404.219> 957 135<249.408 499.319>
AnchorPoint: "BelowRight" 873 -63 basechar 0
AnchorPoint: "AboveBase" 544 1324 basechar 0
AnchorPoint: "BelowBase" 544 -63 basechar 0
LayerCount: 2
Back
SplineSet
126 333 m 3xf7
 126 288 163.5 250.5 208.5 250.5 c 3
 253.5 250.5 291 288 291 333 c 3
 291 378 253.5 415.5 208.5 415.5 c 3
 163.5 415.5 126 378 126 333 c 3xf7
208.5 514.5 m 3
 306 514.5 390 430.5 390 333 c 3
 390 235.5 306 151.5 208.5 151.5 c 3
 112.5 151.5 27 237 27 333 c 3
 27 430.5 111 514.5 208.5 514.5 c 3
1191 993 m 3
 1191 972 1099.5 933 1066.5 933 c 3
 951 933 870 970.5 771 1014 c 0
 625.5 1080 484.5 1104 355.5 1104 c 3
 202.5 1104 136.5 1048.5 136.5 963 c 3
 136.5 906 265.5 874.5 492 835.5 c 0
 783 786 1092 660 1092 376.5 c 3
 1092 106.5 816 -30 544.5 -30 c 3
 285 -30 27 73.5 27 333 c 1
 162 333 l 1
 162 166.5 349.5 105 544.5 105 c 3
 739.5 105 957 193.5 957 376.5 c 3
 957 526.5 790.5 646.5 469.5 702 c 0
 327 726 1.5 754.5 1.5 963 c 3
 1.5 1132.5 123 1239 355.5 1239 c 3
 517.5 1239 676.5 1201.5 834 1125 c 0
 994.5 1047 1098 1008 1144.5 1008 c 3
 1176 1008 1191 1003.5 1191 993 c 3
EndSplineSet
Fore
SplineSet
208 514 m 3xf7
 306 514 390 431 390 333 c 3
 390 257 339 188 270 162 c 1
 342 122 440 105 544 105 c 3
 739 105 957 193 957 376 c 3
 957 526 791 646 470 702 c 0
 328 726 2 755 2 963 c 3
 2 1133 124 1239 356 1239 c 3
 518 1239 676 1201 834 1125 c 0
 994 1047 1098 1008 1144 1008 c 3
 1176 1008 1191 1003 1191 993 c 3
 1191 972 1099 933 1066 933 c 3
 950 933 870 970 771 1014 c 0
 625 1080 485 1104 356 1104 c 3
 203 1104 136 1049 136 963 c 3xfb
 136 906 266 875 492 836 c 0
 783 786 1092 660 1092 376 c 3
 1092 106 816 -30 544 -30 c 3
 284 -30 27 73 27 333 c 3
 27 431 110 514 208 514 c 3xf7
126 333 m 3xf7
 126 288 163 250 208 250 c 3
 253 250 291 288 291 333 c 3
 291 378 253 416 208 416 c 3
 163 416 126 378 126 333 c 3xf7
EndSplineSet
MultipleSubs2: "RA-deep prepend intermediate lookup" uni1A55.deep uni1A41 zerojoin
MultipleSubs2: "RA-UU prepend intermediate lookup" uni1A55 uni1A6A uni1A41 zerojoin
MultipleSubs2: "RA-U prepend intermediate lookup" uni1A55 uni1A69 uni1A41 zerojoin
MultipleSubs2: "RA-UEE prepend intermediate lookup" uni1A55 uni1A68 uni1A41 zerojoin
MultipleSubs2: "RA-UE prepend intermediate lookup" uni1A55 uni1A67 uni1A41 zerojoin
MultipleSubs2: "RA-II prepend intermediate lookup" uni1A55 uni1A66 uni1A41 zerojoin
MultipleSubs2: "RA-I prepend intermediate lookup" uni1A55 uni1A65 uni1A41 zerojoin
Ligature2: "RA-C remove intermediate lookup" uni1A41 zerojoin uni1A55
MultipleSubs2: "RA prepend intermediate lookup" uni1A55 uni1A41 zerojoin
Ligature2: "LV remove intermediate for cons" uni1A41 zerojoin uni1A72
Ligature2: "LV remove intermediate for cons" uni1A41 zerojoin uni1A71
Ligature2: "LV remove intermediate for cons" uni1A41 zerojoin uni1A70
Ligature2: "LV remove intermediate for cons" uni1A41 zerojoin uni1A6F
Ligature2: "LV remove intermediate for cons" uni1A41 zerojoin uni1A6E
MultipleSubs2: "LV AI MAIMUAN prepend intermediate lookup" uni1A72 uni1A41 zerojoin
MultipleSubs2: "LV AI MAIMALAI prepend intermediate lookup" uni1A71 uni1A41 zerojoin
MultipleSubs2: "LV O prepend intermediate lookup" uni1A70 uni1A41 zerojoin
MultipleSubs2: "LV AE prepend intermediate lookup" uni1A6F uni1A41 zerojoin
MultipleSubs2: "LV E prepend intermediate lookup" uni1A6E uni1A41 zerojoin
LCarets2: 3 0 0 0 
Ligature2: "ANG-LAN remove intermediate lookup" uni1A58 zerojoin uni1A41
MultipleSubs2: "ANG-LAN append intermediate lookup" zerojoin uni1A41 uni1A58.lai
EndChar

StartChar: uni1A43
Encoding: 6723 6723 32
Width: 1882
VWidth: 3390
GlyphClass: 2
Flags: W
HStem: -30 135<1039.82 1431.9> -30 99<294.357 436.913> 234 99<293.525 437.379> 1104 135<383.858 707.612 1462.22 1588.47>
VStem: 24 135<363.901 862.108> 448 100<78.2089 223.3> 748 136<234.044 452.211> 852 135<535.639 949.572> 1638 135<327.114 721.835>
AnchorPoint: "BelowRight" 1508 -63 basechar 0
AnchorPoint: "AboveBase" 867 1324 basechar 0
AnchorPoint: "BelowBase" 867 -63 basechar 0
LayerCount: 2
Back
SplineSet
283.5 151.5 m 3x7e40
 283.5 106.5 321 69 366 69 c 3
 411 69 448.5 106.5 448.5 151.5 c 3
 448.5 196.5 411 234 366 234 c 3
 321 234 283.5 196.5 283.5 151.5 c 3x7e40
366 333 m 3
 463.5 333 547.5 249 547.5 151.5 c 3
 547.5 54 463.5 -30 366 -30 c 3xbe40
 270 -30 184.5 55.5 184.5 151.5 c 3
 184.5 249 268.5 333 366 333 c 3
1257 105 m 3
 1482 105 1638 288 1638 532.5 c 3
 1638 708 1537.5 871.5 1326 1000.5 c 1
 1360.5 1159.5 1425 1239 1516.5 1239 c 3
 1561.5 1239 1612.5 1182 1668 1069.5 c 0
 1687.5 1029 1722 949.5 1770 831 c 1
 1653 981 l 2
 1599 1050 1560 1104 1516.5 1104 c 3
 1500 1104 1461 1096.5 1461 1071 c 3
 1461 1045.5 1530 1003.5 1546.5 987 c 0
 1659 874.5 1773 700.5 1773 532.5 c 3
 1773 231 1575 -30 1257 -30 c 3
 981 -30 748.5 117 748.5 363 c 3xbf
 748.5 460.5 766.5 495 804 532.5 c 0
 847.5 576 852 648 852 753 c 3
 852 948 742.5 1104 556.5 1104 c 3
 322.5 1104 159 883.5 159 667.5 c 3
 159 390 276 105 366 105 c 1
 366 -30 l 1
 136.5 -30 24 390 24 667.5 c 3
 24 970.5 252 1239 556.5 1239 c 3
 831 1239 987 1012.5 987 753 c 3xbec0
 987 567 964.5 499.5 897 435 c 0
 885 423 883.5 391.5 883.5 363 c 3xbf
 883.5 204 1051.5 105 1257 105 c 3
EndSplineSet
Fore
SplineSet
366 333 m 3xbd80
 464 333 548 250 548 152 c 3
 548 54 464 -30 366 -30 c 3
 136 -30 24 390 24 668 c 3
 24 971 252 1239 556 1239 c 3
 830 1239 987 1013 987 753 c 3x7d80
 987 567 965 499 897 435 c 0
 885 423 884 391 884 363 c 3
 884 204 1051 105 1257 105 c 3
 1482 105 1638 288 1638 532 c 3
 1638 708 1538 871 1326 1000 c 1
 1360 1159 1424 1239 1516 1239 c 3
 1561 1239 1612 1182 1668 1070 c 0
 1688 1030 1722 949 1770 831 c 1
 1653 981 l 2
 1599 1050 1560 1104 1516 1104 c 3
 1500 1104 1461 1097 1461 1071 c 3
 1461 1045 1530 1003 1546 987 c 0
 1658 875 1773 700 1773 532 c 3
 1773 230 1575 -30 1257 -30 c 3
 981 -30 748 117 748 363 c 3xbe80
 748 461 766 494 804 532 c 0
 848 576 852 648 852 753 c 3
 852 948 742 1104 556 1104 c 3
 322 1104 159 884 159 668 c 3
 159 526 190 379 232 273 c 1
 265 311 314 333 366 333 c 3xbd80
284 152 m 3
 284 107 321 69 366 69 c 3
 411 69 448 107 448 152 c 3
 448 197 411 234 366 234 c 3
 321 234 284 197 284 152 c 3
EndSplineSet
MultipleSubs2: "RA-deep prepend intermediate lookup" uni1A55.deep uni1A43 zerojoin
MultipleSubs2: "RA-UU prepend intermediate lookup" uni1A55 uni1A6A uni1A43 zerojoin
MultipleSubs2: "RA-U prepend intermediate lookup" uni1A55 uni1A69 uni1A43 zerojoin
MultipleSubs2: "RA-UEE prepend intermediate lookup" uni1A55 uni1A68 uni1A43 zerojoin
MultipleSubs2: "RA-UE prepend intermediate lookup" uni1A55 uni1A67 uni1A43 zerojoin
MultipleSubs2: "RA-II prepend intermediate lookup" uni1A55 uni1A66 uni1A43 zerojoin
MultipleSubs2: "RA-I prepend intermediate lookup" uni1A55 uni1A65 uni1A43 zerojoin
Ligature2: "RA-C remove intermediate lookup" uni1A43 zerojoin uni1A55
MultipleSubs2: "RA prepend intermediate lookup" uni1A55 uni1A43 zerojoin
Ligature2: "LV remove intermediate for cons" uni1A43 zerojoin uni1A72
Ligature2: "LV remove intermediate for cons" uni1A43 zerojoin uni1A71
Ligature2: "LV remove intermediate for cons" uni1A43 zerojoin uni1A70
Ligature2: "LV remove intermediate for cons" uni1A43 zerojoin uni1A6F
Ligature2: "LV remove intermediate for cons" uni1A43 zerojoin uni1A6E
MultipleSubs2: "LV AI MAIMUAN prepend intermediate lookup" uni1A72 uni1A43 zerojoin
MultipleSubs2: "LV AI MAIMALAI prepend intermediate lookup" uni1A71 uni1A43 zerojoin
MultipleSubs2: "LV O prepend intermediate lookup" uni1A70 uni1A43 zerojoin
MultipleSubs2: "LV AE prepend intermediate lookup" uni1A6F uni1A43 zerojoin
MultipleSubs2: "LV E prepend intermediate lookup" uni1A6E uni1A43 zerojoin
LCarets2: 3 0 0 0 
Ligature2: "ANG-LAN remove intermediate lookup" uni1A58 zerojoin uni1A43
MultipleSubs2: "ANG-LAN append intermediate lookup" zerojoin uni1A43 uni1A58.lai
EndChar

StartChar: uni1A45
Encoding: 6725 6725 33
Width: 1477
VWidth: 3390
GlyphClass: 2
Flags: W
HStem: -30 135<485.188 898.671> 1104 135<485.188 898.671>
VStem: 51 135<399.591 808.549> 1197 135<399.591 808.549>
AnchorPoint: "BelowRight" 1102 -63 basechar 0
AnchorPoint: "AboveBase" 692 1324 basechar 0
AnchorPoint: "BelowBase" 692 -63 basechar 0
LayerCount: 2
Fore
SplineSet
186 604 m 3
 186 328 413 105 692 105 c 3
 971 105 1197 328 1197 604 c 3
 1197 880 971 1104 692 1104 c 3
 413 1104 186 880 186 604 c 3
51 604 m 3
 51 954 338 1239 692 1239 c 3
 1046 1239 1332 954 1332 604 c 3
 1332 254 1046 -30 692 -30 c 3
 338 -30 51 254 51 604 c 3
EndSplineSet
MultipleSubs2: "RA-deep prepend intermediate lookup" uni1A55.deep uni1A45 zerojoin
MultipleSubs2: "RA-UU prepend intermediate lookup" uni1A55 uni1A6A uni1A45 zerojoin
MultipleSubs2: "RA-U prepend intermediate lookup" uni1A55 uni1A69 uni1A45 zerojoin
MultipleSubs2: "RA-UEE prepend intermediate lookup" uni1A55 uni1A68 uni1A45 zerojoin
MultipleSubs2: "RA-UE prepend intermediate lookup" uni1A55 uni1A67 uni1A45 zerojoin
MultipleSubs2: "RA-II prepend intermediate lookup" uni1A55 uni1A66 uni1A45 zerojoin
MultipleSubs2: "RA-I prepend intermediate lookup" uni1A55 uni1A65 uni1A45 zerojoin
Ligature2: "RA-C remove intermediate lookup" uni1A45 zerojoin uni1A55
MultipleSubs2: "RA prepend intermediate lookup" uni1A55 uni1A45 zerojoin
Ligature2: "LV remove intermediate for cons" uni1A45 zerojoin uni1A72
Ligature2: "LV remove intermediate for cons" uni1A45 zerojoin uni1A71
Ligature2: "LV remove intermediate for cons" uni1A45 zerojoin uni1A70
Ligature2: "LV remove intermediate for cons" uni1A45 zerojoin uni1A6F
Ligature2: "LV remove intermediate for cons" uni1A45 zerojoin uni1A6E
MultipleSubs2: "LV AI MAIMUAN prepend intermediate lookup" uni1A72 uni1A45 zerojoin
MultipleSubs2: "LV AI MAIMALAI prepend intermediate lookup" uni1A71 uni1A45 zerojoin
MultipleSubs2: "LV O prepend intermediate lookup" uni1A70 uni1A45 zerojoin
MultipleSubs2: "LV AE prepend intermediate lookup" uni1A6F uni1A45 zerojoin
MultipleSubs2: "LV E prepend intermediate lookup" uni1A6E uni1A45 zerojoin
LCarets2: 3 0 0 0 
Ligature2: "ANG-LAN remove intermediate lookup" uni1A58 zerojoin uni1A45
MultipleSubs2: "ANG-LAN append intermediate lookup" zerojoin uni1A45 uni1A58.lai
EndChar

StartChar: uni1A48
Encoding: 6728 6728 34
Width: 1465
VWidth: 3390
GlyphClass: 2
Flags: W
HStem: -30 135<578.952 980.214> -30 99<79.1139 211.13> 234 99<78.2089 218.991> 876 99<103.509 219.509> 1140 99<102.621 245.379 968 1104.43>
VStem: -30 99<79.1139 222.835> -8 100<984.639 1129.3> 220 136<326 882> 256 100<984.236 1127.62> 1196 134<330.491 761.31>
AnchorPoint: "BelowRight" 1090 -63 basechar 0
AnchorPoint: "AboveBase" 786 1324 basechar 0
AnchorPoint: "BelowBase" 786 -63 basechar 0
LayerCount: 2
Back
SplineSet
91.5 1057.5 m 3x3e54
 91.5 1012.5 129 975 174 975 c 3
 219 975 256.5 1012.5 256.5 1057.5 c 3
 256.5 1102.5 219 1140 174 1140 c 3
 129 1140 91.5 1102.5 91.5 1057.5 c 3x3e54
174 1239 m 3
 271.5 1239 355.5 1155 355.5 1057.5 c 3
 355.5 960 271.5 876 174 876 c 3
 78 876 -7.5 961.5 -7.5 1057.5 c 3x3e4c
 -7.5 1155 76.5 1239 174 1239 c 3
151.5 -30 m 3
 55.5 -30 -30 55.5 -30 151.5 c 3x3e4c
 -30 249 54 333 151.5 333 c 3
 223.5 333 276 312 322.5 286.5 c 0
 463.5 207 606 105 786 105 c 3
 1009.5 105 1195.5 264 1195.5 523.5 c 3
 1195.5 781.5 1066.5 979.5 816 1155 c 1
 880.5 1210.5 940.5 1239 996 1239 c 3
 1024.5 1239 1090.5 1206 1194 1143 c 128
 1297.5 1080 1357.5 1035 1372.5 1009.5 c 1
 1347 1009.5 1294.5 1030.5 1212 1071 c 128
 1129.5 1111.5 1072.5 1131 1039.5 1131 c 3
 1038 1131 1033.5 1129.5 1026 1128 c 1
 1228.5 979.5 1330.5 790.5 1330.5 523.5 c 3
 1330.5 211.5 1104 -30 786 -30 c 3
 553.5 -30 417 79.5 265.5 187.5 c 0
 229.5 213 190.5 234 151.5 234 c 3
 106.5 234 69 196.5 69 151.5 c 3x3e54
 69 106.5 106.5 69 151.5 69 c 3
 196.5 69 220.5 108 220.5 168 c 2
 220.5 1057.5 l 1
 355.5 1057.5 l 1
 355.5 213 l 2
 355.5 49.5 247.5 -30 151.5 -30 c 3
EndSplineSet
Fore
SplineSet
92 1058 m 3x3ac0
 92 1013 129 975 174 975 c 3
 219 975 256 1013 256 1058 c 3
 256 1103 219 1140 174 1140 c 3
 129 1140 92 1103 92 1058 c 3x3ac0
220 214 m 1x7d40
 198 226 174 234 152 234 c 3
 107 234 69 197 69 152 c 3
 69 107 107 69 152 69 c 3
 197 69 220 108 220 168 c 2
 220 214 l 1x7d40
220 326 m 1
 220 882 l 1x7d40
 205 878 190 876 174 876 c 3
 78 876 -8 962 -8 1058 c 3
 -8 1156 76 1239 174 1239 c 3
 272 1239 356 1156 356 1058 c 2
 356 267 l 1
 486 191 620 105 786 105 c 3
 1010 105 1196 264 1196 524 c 3
 1196 782 1066 979 816 1155 c 1
 880 1211 940 1239 996 1239 c 3
 1024 1239 1090 1206 1194 1143 c 0
 1298 1080 1357 1036 1372 1010 c 1
 1346 1010 1294 1031 1212 1071 c 0
 1130 1111 1073 1131 1040 1131 c 3
 1038 1131 1034 1130 1026 1128 c 1
 1228 980 1330 791 1330 524 c 3
 1330 212 1104 -30 786 -30 c 3xbac0
 594 -30 468 43 345 130 c 1
 317 22 230 -30 152 -30 c 3
 56 -30 -30 56 -30 152 c 3
 -30 250 54 333 152 333 c 3
 178 333 199 330 220 326 c 1
EndSplineSet
MultipleSubs2: "RA-deep prepend intermediate lookup" uni1A55.deep uni1A48 zerojoin
MultipleSubs2: "RA-UU prepend intermediate lookup" uni1A55 uni1A6A uni1A48 zerojoin
MultipleSubs2: "RA-U prepend intermediate lookup" uni1A55 uni1A69 uni1A48 zerojoin
MultipleSubs2: "RA-UEE prepend intermediate lookup" uni1A55 uni1A68 uni1A48 zerojoin
MultipleSubs2: "RA-UE prepend intermediate lookup" uni1A55 uni1A67 uni1A48 zerojoin
MultipleSubs2: "RA-II prepend intermediate lookup" uni1A55 uni1A66 uni1A48 zerojoin
MultipleSubs2: "RA-I prepend intermediate lookup" uni1A55 uni1A65 uni1A48 zerojoin
Ligature2: "RA-C remove intermediate lookup" uni1A48 zerojoin uni1A55
MultipleSubs2: "RA prepend intermediate lookup" uni1A55 uni1A48 zerojoin
Ligature2: "LV remove intermediate for cons" uni1A48 zerojoin uni1A72
Ligature2: "LV remove intermediate for cons" uni1A48 zerojoin uni1A71
Ligature2: "LV remove intermediate for cons" uni1A48 zerojoin uni1A70
Ligature2: "LV remove intermediate for cons" uni1A48 zerojoin uni1A6F
Ligature2: "LV remove intermediate for cons" uni1A48 zerojoin uni1A6E
MultipleSubs2: "LV AI MAIMUAN prepend intermediate lookup" uni1A72 uni1A48 zerojoin
MultipleSubs2: "LV AI MAIMALAI prepend intermediate lookup" uni1A71 uni1A48 zerojoin
MultipleSubs2: "LV O prepend intermediate lookup" uni1A70 uni1A48 zerojoin
MultipleSubs2: "LV AE prepend intermediate lookup" uni1A6F uni1A48 zerojoin
MultipleSubs2: "LV E prepend intermediate lookup" uni1A6E uni1A48 zerojoin
LCarets2: 3 0 0 0 
Ligature2: "ANG-LAN remove intermediate lookup" uni1A58 zerojoin uni1A48
MultipleSubs2: "ANG-LAN append intermediate lookup" zerojoin uni1A48 uni1A58.lai
EndChar

StartChar: uni1A49
Encoding: 6729 6729 35
Width: 1855
VWidth: 3390
GlyphClass: 2
Flags: W
HStem: -30 135<267.213 675.161 1396.97 1516.51> 876 99<143.955 224.337> 1104 135<1016.51 1397.16> 1140 99<144.621 287.379>
VStem: 9 135<210.933 504.082> 34 100<985.384 1129.3> 298 100<984.481 1129.3> 717 135<535.667 943.632> 804 135<213.197 516.82> 1587 135<495.146 915.03>
AnchorPoint: "BelowRight" 1480 -63 basechar 0
AnchorPoint: "AboveBase" 828 1324 basechar 0
AnchorPoint: "BelowBase" 828 -63 basechar 0
LayerCount: 2
Back
SplineSet
133.5 1057.5 m 3x3e54
 133.5 1012.5 171 975 216 975 c 3
 261 975 298.5 1012.5 298.5 1057.5 c 3
 298.5 1102.5 261 1140 216 1140 c 3
 171 1140 133.5 1102.5 133.5 1057.5 c 3x3e54
216 1239 m 3
 313.5 1239 397.5 1155 397.5 1057.5 c 3
 397.5 960 313.5 876 216 876 c 3
 120 876 34.5 961.5 34.5 1057.5 c 3x3e4c
 34.5 1155 118.5 1239 216 1239 c 3
474 -30 m 3
 225 -30 9 103.5 9 327 c 3
 9 607.5 262.5 780 262.5 1057.5 c 1
 397.5 1057.5 l 1
 397.5 733.5 144 561 144 327 c 3
 144 192 288 105 474 105 c 3
 651 105 804 193.5 804 327 c 3
 804 400.5 717 616.5 717 762 c 3
 717 1066.5 921 1239 1219.5 1239 c 3
 1525.5 1239 1722 996 1722 762 c 3
 1722 448.5 1612.5 265.5 1395 123 c 1
 1402.5 108 1416 99 1435.5 99 c 3
 1480.5 99 1564.5 157.5 1686 273 c 1
 1582.5 70.5 1500 -30 1437 -30 c 3
 1315.5 -30 1236 57 1236 178.5 c 1
 1485 322.5 1587 474 1587 762 c 3
 1587 913.5 1456.5 1104 1219.5 1104 c 3
 1006.5 1104 852 996 852 762 c 3
 852 637.5 939 435 939 327 c 3
 939 114 729 -30 474 -30 c 3
EndSplineSet
Fore
SplineSet
134 1058 m 3xd640
 134 1013 171 975 216 975 c 3
 261 975 298 1013 298 1058 c 3
 298 1103 261 1140 216 1140 c 3
 171 1140 134 1103 134 1058 c 3xd640
226 876 m 1
 122 876 34 956 34 1058 c 3xe640
 34 1156 118 1239 216 1239 c 3
 314 1239 398 1156 398 1058 c 3
 398 734 144 561 144 327 c 3
 144 192 288 105 474 105 c 3
 651 105 804 193 804 327 c 3xdac0
 804 401 717 616 717 762 c 3
 717 1066 922 1239 1220 1239 c 3
 1526 1239 1722 996 1722 762 c 3
 1722 448 1613 265 1395 123 c 1
 1403 108 1416 99 1436 99 c 3
 1481 99 1564 157 1686 273 c 1
 1582 71 1500 -30 1437 -30 c 3
 1315 -30 1236 56 1236 178 c 1
 1485 322 1587 474 1587 762 c 3
 1587 914 1457 1104 1220 1104 c 3
 1007 1104 852 996 852 762 c 3xe340
 852 638 939 435 939 327 c 3
 939 114 729 -30 474 -30 c 3
 225 -30 9 103 9 327 c 3xeac0
 9 541 157 693 226 876 c 1
EndSplineSet
MultipleSubs2: "RA-deep prepend intermediate lookup" uni1A55.deep uni1A49 zerojoin
MultipleSubs2: "RA-UU prepend intermediate lookup" uni1A55 uni1A6A uni1A49 zerojoin
MultipleSubs2: "RA-U prepend intermediate lookup" uni1A55 uni1A69 uni1A49 zerojoin
MultipleSubs2: "RA-UEE prepend intermediate lookup" uni1A55 uni1A68 uni1A49 zerojoin
MultipleSubs2: "RA-UE prepend intermediate lookup" uni1A55 uni1A67 uni1A49 zerojoin
MultipleSubs2: "RA-II prepend intermediate lookup" uni1A55 uni1A66 uni1A49 zerojoin
MultipleSubs2: "RA-I prepend intermediate lookup" uni1A55 uni1A65 uni1A49 zerojoin
Ligature2: "RA-C remove intermediate lookup" uni1A49 zerojoin uni1A55
MultipleSubs2: "RA prepend intermediate lookup" uni1A55 uni1A49 zerojoin
Ligature2: "LV remove intermediate for cons" uni1A49 zerojoin uni1A72
Ligature2: "LV remove intermediate for cons" uni1A49 zerojoin uni1A71
Ligature2: "LV remove intermediate for cons" uni1A49 zerojoin uni1A70
Ligature2: "LV remove intermediate for cons" uni1A49 zerojoin uni1A6F
Ligature2: "LV remove intermediate for cons" uni1A49 zerojoin uni1A6E
MultipleSubs2: "LV AI MAIMUAN prepend intermediate lookup" uni1A72 uni1A49 zerojoin
MultipleSubs2: "LV AI MAIMALAI prepend intermediate lookup" uni1A71 uni1A49 zerojoin
MultipleSubs2: "LV O prepend intermediate lookup" uni1A70 uni1A49 zerojoin
MultipleSubs2: "LV AE prepend intermediate lookup" uni1A6F uni1A49 zerojoin
MultipleSubs2: "LV E prepend intermediate lookup" uni1A6E uni1A49 zerojoin
LCarets2: 3 0 0 0 
Ligature2: "ANG-LAN remove intermediate lookup" uni1A58 zerojoin uni1A49
MultipleSubs2: "ANG-LAN append intermediate lookup" zerojoin uni1A49 uni1A58.lai
EndChar

StartChar: uni1A4A
Encoding: 6730 6730 36
Width: 1447
VWidth: 3390
GlyphClass: 2
Flags: W
HStem: -30 135<366.91 999.531> 346 100<1062.21 1207.3> 600 135<304.774 1060.07> 912 105<999.419 1280.03> 1104 135<246.367 615.112>
VStem: 0 135<253.793 469.764> 70 140<969.293 1063.33> 954 99<192.569 334.913> 1218 99<194.081 335.379>
AnchorPoint: "BelowRight" 1072 -63 basechar 0
AnchorPoint: "AboveBase" 651 1324 basechar 0
AnchorPoint: "BelowBase" 651 -63 basechar 0
LayerCount: 2
Back
SplineSet
1053 264 m 3x3e54
 1053 219 1090.5 181.5 1135.5 181.5 c 3
 1180.5 181.5 1218 219 1218 264 c 3
 1218 309 1180.5 346.5 1135.5 346.5 c 3
 1090.5 346.5 1053 309 1053 264 c 3x3e54
1135.5 445.5 m 3
 1233 445.5 1317 361.5 1317 264 c 3
 1317 166.5 1233 82.5 1135.5 82.5 c 3
 1039.5 82.5 954 168 954 264 c 3x3e4c
 954 361.5 1038 445.5 1135.5 445.5 c 3
70.5 1002 m 3
 70.5 1155 252 1239 411 1239 c 3
 621 1239 972 1017 1239 1017 c 3
 1270.5 1017 1302 1020 1333.5 1024.5 c 1
 1324.5 945 1285.5 912 1218 912 c 3
 975 912 585 1104 411 1104 c 3
 340.5 1104 210 1069.5 210 1009.5 c 3
 210 963 345 925.5 615 906 c 0
 1017 877.5 1266 865.5 1266 613.5 c 3
 1266 571.5 1260 537 1248 516 c 1
 1050 564 816 600 597 600 c 3
 372 600 135 540 135 355.5 c 3
 135 181.5 444 105 651 105 c 3
 832.5 105 1182 130.5 1182 264 c 1
 1317 264 l 1
 1317 6 900 -30 651 -30 c 3
 354 -30 0 88.5 0 355.5 c 3
 0 588 216 735 597 735 c 3
 736.5 735 901.5 720 1092 688.5 c 1
 1054.5 745.5 766.5 759 603 771 c 0
 342 789 70.5 828 70.5 1002 c 3
EndSplineSet
Fore
SplineSet
1053 264 m 3xf980
 1053 219 1091 182 1136 182 c 3
 1181 182 1218 219 1218 264 c 3
 1218 309 1181 346 1136 346 c 3
 1091 346 1053 309 1053 264 c 3xf980
1006 140 m 1
 974 173 954 218 954 264 c 3
 954 362 1038 446 1136 446 c 3
 1234 446 1317 362 1317 264 c 3
 1317 6 900 -30 651 -30 c 3
 354 -30 0 89 0 356 c 3xfd80
 0 588 216 735 597 735 c 3
 737 735 902 720 1092 688 c 1
 1054 745 767 759 603 771 c 0
 342 789 70 828 70 1002 c 3
 70 1155 252 1239 411 1239 c 3
 621 1239 972 1017 1239 1017 c 3
 1271 1017 1302 1020 1334 1024 c 1
 1325 944 1286 912 1218 912 c 3
 975 912 585 1104 411 1104 c 3
 341 1104 210 1070 210 1010 c 3xfb80
 210 964 345 926 615 906 c 1
 1017 878 1266 866 1266 614 c 3
 1266 572 1260 537 1248 516 c 1
 1050 564 816 600 597 600 c 3
 372 600 135 540 135 356 c 3xfd80
 135 182 444 105 651 105 c 3
 749 105 892 113 1006 140 c 1
EndSplineSet
MultipleSubs2: "RA-deep prepend intermediate lookup" uni1A55.deep uni1A4A zerojoin
MultipleSubs2: "RA-UU prepend intermediate lookup" uni1A55 uni1A6A uni1A4A zerojoin
MultipleSubs2: "RA-U prepend intermediate lookup" uni1A55 uni1A69 uni1A4A zerojoin
MultipleSubs2: "RA-UEE prepend intermediate lookup" uni1A55 uni1A68 uni1A4A zerojoin
MultipleSubs2: "RA-UE prepend intermediate lookup" uni1A55 uni1A67 uni1A4A zerojoin
MultipleSubs2: "RA-II prepend intermediate lookup" uni1A55 uni1A66 uni1A4A zerojoin
MultipleSubs2: "RA-I prepend intermediate lookup" uni1A55 uni1A65 uni1A4A zerojoin
Ligature2: "RA-C remove intermediate lookup" uni1A4A zerojoin uni1A55
MultipleSubs2: "RA prepend intermediate lookup" uni1A55 uni1A4A zerojoin
Ligature2: "LV remove intermediate for cons" uni1A4A zerojoin uni1A72
Ligature2: "LV remove intermediate for cons" uni1A4A zerojoin uni1A71
Ligature2: "LV remove intermediate for cons" uni1A4A zerojoin uni1A70
Ligature2: "LV remove intermediate for cons" uni1A4A zerojoin uni1A6F
Ligature2: "LV remove intermediate for cons" uni1A4A zerojoin uni1A6E
MultipleSubs2: "LV AI MAIMUAN prepend intermediate lookup" uni1A72 uni1A4A zerojoin
MultipleSubs2: "LV AI MAIMALAI prepend intermediate lookup" uni1A71 uni1A4A zerojoin
MultipleSubs2: "LV O prepend intermediate lookup" uni1A70 uni1A4A zerojoin
MultipleSubs2: "LV AE prepend intermediate lookup" uni1A6F uni1A4A zerojoin
MultipleSubs2: "LV E prepend intermediate lookup" uni1A6E uni1A4A zerojoin
LCarets2: 3 0 0 0 
Ligature2: "ANG-LAN remove intermediate lookup" uni1A58 zerojoin uni1A4A
MultipleSubs2: "ANG-LAN append intermediate lookup" zerojoin uni1A4A uni1A58.lai
EndChar

StartChar: uni1A4B
Encoding: 6731 6731 37
Width: 1579
VWidth: 3390
GlyphClass: 2
Flags: W
HStem: -30 99<1009.51 1176.91> 234 99<1008.62 1162.18> 1104 135<581.319 1048.12> 1140 99<103.296 250.529>
VStem: -4 98<985.352 1128.84> 9 135<325.662 575.729> 898 100<78.6387 223.3> 1206 84<-35.7713 -2> 1353 135<335.654 803.786>
AnchorPoint: "BelowRight" 1204 -63 basechar 0
AnchorPoint: "AboveBase" 824 1324 basechar 0
AnchorPoint: "BelowBase" 824 -63 basechar 0
LayerCount: 2
Back
SplineSet
1080 69 m 3
 1221 69 1353 360 1353 577.5 c 3
 1353 907.5 1122 1104 823.5 1104 c 259
 546 1104 277.5 948 277.5 652.5 c 3
 277.5 442.5 354 235.5 694.5 102 c 1
 619.5 13.5 552 -30 490.5 -30 c 3
 223.5 -30 9 207 9 541.5 c 3
 9 808.5 223.5 940.5 223.5 1057.5 c 1
 358.5 1057.5 l 17
 358.5 883.5 144 751.5 144 541.5 c 3
 144 343.5 243 171 420 103.5 c 1
 258 193.5 142.5 388.5 142.5 652.5 c 3
 142.5 1017 457.5 1239 823.5 1239 c 3
 1189.5 1239 1488 990 1488 577.5 c 3
 1488 384 1368 -30 1080 -30 c 3
 984 -30 898.5 55.5 898.5 151.5 c 3x3e4c
 898.5 249 982.5 333 1080 333 c 3
 1284 333 1290 82.5 1290 57 c 0
 1290 -21 1245 -156 1203 -186 c 1
 1206 -153 1206 -94.5 1206 -54 c 0
 1206 58.5 1200 234 1080 234 c 3
 1035 234 997.5 196.5 997.5 151.5 c 3x3e54
 997.5 106.5 1035 69 1080 69 c 3
94.5 1057.5 m 3x3e54
 94.5 1012.5 132 975 177 975 c 3
 222 975 259.5 1012.5 259.5 1057.5 c 3
 259.5 1102.5 222 1140 177 1140 c 3
 132 1140 94.5 1102.5 94.5 1057.5 c 3x3e54
177 1239 m 3
 274.5 1239 358.5 1155 358.5 1057.5 c 3
 358.5 960 274.5 876 177 876 c 3
 81 876 -4.5 961.5 -4.5 1057.5 c 3x3e4c
 -4.5 1155 79.5 1239 177 1239 c 3
EndSplineSet
Fore
SplineSet
94 1058 m 3xdb80
 94 1013 132 975 177 975 c 3
 222 975 260 1013 260 1058 c 3
 260 1103 222 1140 177 1140 c 3
 132 1140 94 1103 94 1058 c 3xdb80
134 882 m 1
 58 903 -4 977 -4 1058 c 3
 -4 1156 79 1239 177 1239 c 3xdb80
 264 1239 340 1172 356 1090 c 1
 479 1186 646 1239 824 1239 c 3
 1190 1239 1488 990 1488 578 c 3
 1488 442 1428 194 1290 60 c 1
 1290 -20 1247 -156 1203 -186 c 1
 1206 -153 1206 -94 1206 -54 c 2
 1206 -2 l 1
 1168 -20 1126 -30 1080 -30 c 3
 984 -30 898 56 898 152 c 3
 898 250 982 333 1080 333 c 3
 1176 333 1228 280 1256 218 c 1
 1314 322 1353 460 1353 578 c 3
 1353 908 1122 1104 824 1104 c 3
 546 1104 278 948 278 652 c 3
 278 442 354 236 694 102 c 1
 619 14 552 -30 490 -30 c 3
 223 -30 9 208 9 542 c 3xe780
 9 690 76 796 134 882 c 1
1190 126 m 1
 1174 188 1143 234 1080 234 c 3
 1035 234 998 197 998 152 c 3
 998 107 1035 69 1080 69 c 3
 1118 69 1156 90 1190 126 c 1
146 576 m 1
 144 566 144 554 144 542 c 3xc780
 144 344 243 172 420 104 c 1
 274 185 166 351 146 576 c 1
EndSplineSet
MultipleSubs2: "RA-deep prepend intermediate lookup" uni1A55.deep uni1A4B zerojoin
MultipleSubs2: "RA-UU prepend intermediate lookup" uni1A55 uni1A6A uni1A4B zerojoin
MultipleSubs2: "RA-U prepend intermediate lookup" uni1A55 uni1A69 uni1A4B zerojoin
MultipleSubs2: "RA-UEE prepend intermediate lookup" uni1A55 uni1A68 uni1A4B zerojoin
MultipleSubs2: "RA-UE prepend intermediate lookup" uni1A55 uni1A67 uni1A4B zerojoin
MultipleSubs2: "RA-II prepend intermediate lookup" uni1A55 uni1A66 uni1A4B zerojoin
MultipleSubs2: "RA-I prepend intermediate lookup" uni1A55 uni1A65 uni1A4B zerojoin
Ligature2: "RA-C remove intermediate lookup" uni1A4B zerojoin uni1A55
MultipleSubs2: "RA prepend intermediate lookup" uni1A55 uni1A4B zerojoin
Ligature2: "LV remove intermediate for cons" uni1A4B zerojoin uni1A72
Ligature2: "LV remove intermediate for cons" uni1A4B zerojoin uni1A71
Ligature2: "LV remove intermediate for cons" uni1A4B zerojoin uni1A70
Ligature2: "LV remove intermediate for cons" uni1A4B zerojoin uni1A6F
Ligature2: "LV remove intermediate for cons" uni1A4B zerojoin uni1A6E
MultipleSubs2: "LV AI MAIMUAN prepend intermediate lookup" uni1A72 uni1A4B zerojoin
MultipleSubs2: "LV AI MAIMALAI prepend intermediate lookup" uni1A71 uni1A4B zerojoin
MultipleSubs2: "LV O prepend intermediate lookup" uni1A70 uni1A4B zerojoin
MultipleSubs2: "LV AE prepend intermediate lookup" uni1A6F uni1A4B zerojoin
MultipleSubs2: "LV E prepend intermediate lookup" uni1A6E uni1A4B zerojoin
LCarets2: 3 0 0 0 
Ligature2: "ANG-LAN remove intermediate lookup" uni1A58 zerojoin uni1A4B
MultipleSubs2: "ANG-LAN append intermediate lookup" zerojoin uni1A4B uni1A58.lai
EndChar

StartChar: uni1A4C
Encoding: 6732 6732 38
Width: 1401
VWidth: 3390
GlyphClass: 2
Flags: W
HStem: -30 135<488.558 877.075> 424 100<307.296 454.704> 746 134<142.106 733.296> 916 136<836.649 1107.51> 1104 135<210.757 558.896>
VStem: 8 134<789 1037.68> 200 98<274.585 412.913> 464 98<270.794 412.913> 1010 134<234.363 553.682> 1395 11<1356 1565.93>
AnchorPoint: "BelowRight" 1026 -63 basechar 0
AnchorPoint: "AboveBase" 670 1324 basechar 0
AnchorPoint: "BelowBase" 670 -63 basechar 0
LayerCount: 2
Back
SplineSet
298.5 342 m 3x3e54
 298.5 297 336 259.5 381 259.5 c 3
 426 259.5 463.5 297 463.5 342 c 3
 463.5 387 426 424.5 381 424.5 c 3
 336 424.5 298.5 387 298.5 342 c 3x3e54
381 523.5 m 3
 478.5 523.5 562.5 439.5 562.5 342 c 3
 562.5 244.5 478.5 160.5 381 160.5 c 3
 285 160.5 199.5 246 199.5 342 c 3x3e4c
 199.5 439.5 283.5 523.5 381 523.5 c 3
967.5 1051.5 m 3
 1185 1051.5 1353 1356 1395 1567.5 c 1
 1402.5 1524 1405.5 1473 1405.5 1417.5 c 0
 1405.5 1188 1195.5 916.5 967.5 916.5 c 3
 837 916.5 555 1104 363 1104 c 3
 228 1104 142.5 1032 142.5 913.5 c 3
 142.5 882 288 880.5 351 880.5 c 3
 760.5 880.5 1144.5 790.5 1144.5 405 c 3
 1144.5 117 955.5 -30 670.5 -30 c 3
 466.5 -30 199.5 109.5 199.5 342 c 1
 334.5 342 l 1
 334.5 214.5 510 105 670.5 105 c 3
 886.5 105 1009.5 201 1009.5 405 c 3
 1009.5 679.5 691.5 745.5 351 745.5 c 3
 295.5 745.5 127.5 741 79.5 741 c 3
 31.5 741 7.5 765 7.5 813 c 3
 7.5 1099.5 117 1239 363 1239 c 3
 597 1239 882 1051.5 967.5 1051.5 c 3
EndSplineSet
Fore
SplineSet
381 524 m 3
 479 524 562 440 562 342 c 3
 562 267 514 199 446 172 c 1
 509 130 592 105 670 105 c 3
 886 105 1010 201 1010 405 c 3
 1010 679 691 746 351 746 c 3
 295 746 128 741 80 741 c 3
 32 741 8 765 8 813 c 3
 8 1099 117 1239 363 1239 c 3
 597 1239 882 1052 968 1052 c 3
 1186 1052 1353 1356 1395 1568 c 1
 1403 1524 1406 1474 1406 1418 c 0
 1406 1188 1196 916 968 916 c 3
 838 916 555 1104 363 1104 c 3
 228 1104 142 1032 142 914 c 3
 142 882 288 880 351 880 c 3
 761 880 1144 791 1144 405 c 3
 1144 117 955 -30 670 -30 c 3
 466 -30 200 110 200 342 c 3
 200 440 283 524 381 524 c 3
298 342 m 3
 298 297 336 260 381 260 c 3
 426 260 464 297 464 342 c 3
 464 387 426 424 381 424 c 3
 336 424 298 387 298 342 c 3
EndSplineSet
MultipleSubs2: "RA-deep prepend intermediate lookup" uni1A55.deep uni1A4C zerojoin
MultipleSubs2: "RA-UU prepend intermediate lookup" uni1A55 uni1A6A uni1A4C zerojoin
MultipleSubs2: "RA-U prepend intermediate lookup" uni1A55 uni1A69 uni1A4C zerojoin
MultipleSubs2: "RA-UEE prepend intermediate lookup" uni1A55 uni1A68 uni1A4C zerojoin
MultipleSubs2: "RA-UE prepend intermediate lookup" uni1A55 uni1A67 uni1A4C zerojoin
MultipleSubs2: "RA-II prepend intermediate lookup" uni1A55 uni1A66 uni1A4C zerojoin
MultipleSubs2: "RA-I prepend intermediate lookup" uni1A55 uni1A65 uni1A4C zerojoin
Ligature2: "RA-C remove intermediate lookup" uni1A4C zerojoin uni1A55
MultipleSubs2: "RA prepend intermediate lookup" uni1A55 uni1A4C zerojoin
Ligature2: "LV remove intermediate for cons" uni1A4C zerojoin uni1A72
Ligature2: "LV remove intermediate for cons" uni1A4C zerojoin uni1A71
Ligature2: "LV remove intermediate for cons" uni1A4C zerojoin uni1A70
Ligature2: "LV remove intermediate for cons" uni1A4C zerojoin uni1A6F
Ligature2: "LV remove intermediate for cons" uni1A4C zerojoin uni1A6E
MultipleSubs2: "LV AI MAIMUAN prepend intermediate lookup" uni1A72 uni1A4C zerojoin
MultipleSubs2: "LV AI MAIMALAI prepend intermediate lookup" uni1A71 uni1A4C zerojoin
MultipleSubs2: "LV O prepend intermediate lookup" uni1A70 uni1A4C zerojoin
MultipleSubs2: "LV AE prepend intermediate lookup" uni1A6F uni1A4C zerojoin
MultipleSubs2: "LV E prepend intermediate lookup" uni1A6E uni1A4C zerojoin
LCarets2: 3 0 0 0 
Ligature2: "ANG-LAN remove intermediate lookup" uni1A58 zerojoin uni1A4C
MultipleSubs2: "ANG-LAN append intermediate lookup" zerojoin uni1A4C uni1A58.lai
EndChar

StartChar: uni1A61
Encoding: 6753 6753 39
Width: 667
VWidth: 3390
GlyphClass: 2
Flags: W
HStem: 34 136<188.787 396.578> 382 136<187.818 395.599> 621 135<188.787 396.578> 969 135<187.818 395.599>
VStem: 27 135<197.22 353.744 783.273 940.04> 423 135<199.123 354.78 785.169 941.077>
LayerCount: 2
Back
SplineSet
94.5 276 m 3
 94.5 372 183 450 292.5 450 c 3
 402 450 490.5 372 490.5 276 c 3
 490.5 180 402 102 292.5 102 c 3
 183 102 94.5 180 94.5 276 c 3
94.5 862.5 m 3
 94.5 958.5 183 1036.5 292.5 1036.5 c 3
 402 1036.5 490.5 958.5 490.5 862.5 c 3
 490.5 766.5 402 688.5 292.5 688.5 c 3
 183 688.5 94.5 766.5 94.5 862.5 c 3
EndSplineSet
Fore
SplineSet
162 276 m 3
 162 226 211 170 292 170 c 3
 370 170 423 224 423 276 c 3
 423 326 373 382 292 382 c 3
 214 382 162 328 162 276 c 3
27 276 m 3
 27 420 157 518 292 518 c 3
 434 518 558 412 558 276 c 3
 558 132 427 34 292 34 c 3
 150 34 27 140 27 276 c 3
162 862 m 3
 162 812 211 756 292 756 c 3
 370 756 423 810 423 862 c 3
 423 912 373 969 292 969 c 3
 214 969 162 914 162 862 c 3
27 862 m 3
 27 1006 157 1104 292 1104 c 3
 434 1104 558 998 558 862 c 3
 558 718 427 621 292 621 c 3
 150 621 27 726 27 862 c 3
EndSplineSet
EndChar

StartChar: uni1A62
Encoding: 6754 6754 40
Width: 0
VWidth: 3390
GlyphClass: 4
Flags: W
HStem: 1454 550
AnchorPoint: "AboveMark" -920 1842 basemark 0
AnchorPoint: "AboveBase" -920 1324 mark 0
LayerCount: 2
Back
SplineSet
-13.5 1876.5 m 1
 -1192.5 1453.5 l 1
 -1213.5 1534.5 l 1
 -58.5 2004 l 1
 -36 1929 l 2
 -30 1911 -22.5 1893.5 -13.5 1876.5 c 1
EndSplineSet
Fore
SplineSet
-14 1876 m 1
 -1192 1454 l 1
 -1214 1534 l 1
 -58 2004 l 1
 -14 1876 l 1
EndSplineSet
EndChar

StartChar: uni1A63
Encoding: 6755 6755 41
Width: 1024
VWidth: 3390
GlyphClass: 2
Flags: W
HStem: -30 128<203.123 399.217> 658 100<115.726 262.704> 1104 135<274.911 611.929>
VStem: 8 98<769.509 909.599> 272 98<769.087 910.864> 784 136<575.083 932.918>
AnchorPoint: "BelowRight" 650 -63 basechar 0
AnchorPoint: "BelowBase" 438 -63 basechar 0
AnchorPoint: "AboveBase" 438 1324 basechar 0
LayerCount: 2
Back
SplineSet
106.5 840 m 3x3e54
 106.5 795 144 757.5 189 757.5 c 3
 234 757.5 271.5 795 271.5 840 c 3
 271.5 885 234 922.5 189 922.5 c 3
 144 922.5 106.5 885 106.5 840 c 3x3e54
189 1021.5 m 3
 286.5 1021.5 370.5 937.5 370.5 840 c 3
 370.5 742.5 286.5 658.5 189 658.5 c 3
 93 658.5 7.5 744 7.5 840 c 3x3e4c
 7.5 937.5 91.5 1021.5 189 1021.5 c 3
438 1239 m 3
 678 1239 919.5 1065 919.5 766.5 c 3
 919.5 430.5 598.5 180 342 103.5 c 1
 345 99 349.5 97.5 357 97.5 c 3
 408 97.5 510 123 688.5 202.5 c 1
 607.5 123 373.5 -30 232.5 -30 c 3
 211.5 -30 171 -6 171 13.5 c 3
 171 132 237 177 361.5 235.5 c 0
 639 366 784.5 559.5 784.5 766.5 c 3
 784.5 969 627 1104 438 1104 c 3
 261 1104 142.5 973.5 142.5 840 c 1
 7.5 840 l 1
 7.5 1047 186 1239 438 1239 c 3
EndSplineSet
Fore
SplineSet
106 840 m 3
 106 795 144 758 189 758 c 3
 234 758 272 795 272 840 c 3
 272 885 234 922 189 922 c 3
 144 922 106 885 106 840 c 3
8 840 m 3
 8 1047 186 1239 438 1239 c 3
 678 1239 920 1064 920 766 c 3
 920 430 598 180 342 104 c 1
 345 100 349 98 357 98 c 3
 408 98 510 122 688 202 c 1
 607 122 373 -30 232 -30 c 3
 211 -30 171 -6 171 14 c 3
 171 132 238 178 362 236 c 0
 640 366 784 559 784 766 c 3
 784 968 627 1104 438 1104 c 3
 348 1104 272 1069 220 1018 c 1
 304 1003 370 927 370 840 c 3
 370 742 287 658 189 658 c 3
 93 658 8 744 8 840 c 3
EndSplineSet
Ligature2: "AM reorder remove intermediate lookup" uni1A63 zerojoin uni1A74
MultipleSubs2: "AM reorder prepend intermediate lookup" uni1A74 uni1A63 zerojoin
EndChar

StartChar: uni1A65
Encoding: 6757 6757 42
Width: 0
VWidth: 3390
GlyphClass: 4
Flags: W
HStem: 1410 120<-1172.77 -903 -807.63 -642.369> 1923 120<-1126.04 -712.391>
VStem: -1372 120<1601.74 1818.43> -597 120<1573.57 1824.23>
AnchorPoint: "AboveMark" -920 2128 basemark 0
AnchorPoint: "AboveBase" -920 1324 mark 0
LayerCount: 2
Fore
SplineSet
-920 2043 m 3
 -686 2043 -477 1931 -477 1707 c 3
 -477 1547 -583 1410 -724 1410 c 3
 -775 1410 -843 1437 -843 1494 c 3
 -843 1528 -824 1545 -786 1545 c 3
 -766 1545 -744 1530 -720 1530 c 3
 -652 1530 -597 1619 -597 1707 c 3
 -597 1855 -748 1923 -920 1923 c 3
 -1074 1923 -1252 1854 -1252 1707 c 3
 -1252 1579 -1114 1530 -998 1530 c 3
 -960 1530 -932 1533 -902 1539 c 1
 -903 1418 l 1
 -935 1414 -966 1410 -998 1410 c 3
 -1196 1410 -1372 1517 -1372 1707 c 3
 -1372 1926 -1150 2043 -920 2043 c 3
EndSplineSet
LCarets2: 3 0 0 0 
Ligature2: "RA-V remove intermediate lookup" zerojoin uni1A65 uni1A55
Ligature2: "RA-VV remove intermediate lookup" zerojoin uni1A65 uni1A55 uni1A65
Ligature2: "RA-VV remove intermediate lookup" zerojoin uni1A65 uni1A55 uni1A66
Ligature2: "RA-VV remove intermediate lookup" zerojoin uni1A65 uni1A55 uni1A67
Ligature2: "RA-VV remove intermediate lookup" zerojoin uni1A65 uni1A55 uni1A68
Ligature2: "RA-VV remove intermediate lookup" zerojoin uni1A65 uni1A55 uni1A69
Ligature2: "RA-VV remove intermediate lookup" zerojoin uni1A65 uni1A55 uni1A6A
EndChar

StartChar: uni1A66
Encoding: 6758 6758 43
Width: 0
VWidth: 3390
GlyphClass: 4
Flags: W
HStem: 1410 120<-1184.37 -1088 -793.398 -639.333> 1626 120<-792.984 -617.439> 1923 120<-1126.04 -711.096>
VStem: -1372 120<1598.9 1818.43> -915 120<1533.26 1622.04>
AnchorPoint: "AboveMark" -920 2128 basemark 0
AnchorPoint: "AboveBase" -920 1324 mark 0
LayerCount: 2
Back
SplineSet
-915 1584 m 3
 -915 1674 -828 1746 -727.5 1746 c 3
 -529.5 1746 -378 1632 -279 1551 c 1
 -298.5 1473 l 1
 -417 1543.5 -583.5 1626 -727.5 1626 c 3
 -772.5 1626 -795 1597.5 -795 1584 c 3
 -795 1552.5 -772.5 1530 -727.5 1530 c 3
 -655.5 1530 -597 1608 -597 1707 c 3
 -597 1855.5 -747 1923 -919.5 1923 c 3
 -1074 1923 -1252.5 1854 -1252.5 1707 c 3
 -1252.5 1617 -1161 1530 -1087.5 1530 c 1
 -1087.5 1410 l 1x70
 -1225.5 1410 -1372.5 1548 -1372.5 1707 c 3
 -1372.5 1926 -1149 2043 -919.5 2043 c 3
 -685.5 2043 -477 1930.5 -477 1707 c 3
 -477 1539 -588 1410 -727.5 1410 c 3
 -831 1410 -915 1482 -915 1584 c 3
EndSplineSet
Fore
SplineSet
-915 1584 m 3
 -915 1674 -828 1746 -728 1746 c 3
 -683 1746 -638 1740 -598 1730 c 1
 -613 1862 -756 1923 -920 1923 c 3
 -1074 1923 -1252 1854 -1252 1707 c 3
 -1252 1617 -1162 1530 -1088 1530 c 1
 -1088 1410 l 1
 -1226 1410 -1372 1548 -1372 1707 c 3
 -1372 1926 -1150 2043 -920 2043 c 3
 -686 2043 -477 1931 -477 1707 c 2
 -477 1684 l 1
 -397 1645 -331 1593 -279 1551 c 1
 -298 1473 l 1
 -356 1507 -428 1545 -502 1575 c 1
 -542 1476 -628 1410 -728 1410 c 3
 -832 1410 -915 1482 -915 1584 c 3
-616 1612 m 1
 -654 1621 -692 1626 -728 1626 c 3
 -773 1626 -795 1598 -795 1584 c 3
 -795 1552 -773 1530 -728 1530 c 3
 -682 1530 -638 1562 -616 1612 c 1
EndSplineSet
Ligature2: "RA-V remove intermediate lookup" zerojoin uni1A66 uni1A55
Ligature2: "RA-VV remove intermediate lookup" zerojoin uni1A66 uni1A55 uni1A65
Ligature2: "RA-VV remove intermediate lookup" zerojoin uni1A66 uni1A55 uni1A66
Ligature2: "RA-VV remove intermediate lookup" zerojoin uni1A66 uni1A55 uni1A67
Ligature2: "RA-VV remove intermediate lookup" zerojoin uni1A66 uni1A55 uni1A68
Ligature2: "RA-VV remove intermediate lookup" zerojoin uni1A66 uni1A55 uni1A69
Ligature2: "RA-VV remove intermediate lookup" zerojoin uni1A66 uni1A55 uni1A6A
EndChar

StartChar: uni1A67
Encoding: 6759 6759 44
Width: 0
VWidth: 3390
GlyphClass: 4
Flags: W
HStem: 1410 120<-807.63 -642.369> 1410 90<-1115.99 -1028.33> 1590 90<-1117.81 -1028.33> 1923 120<-1126.04 -712.391>
VStem: -1372 120<1593.44 1818.43> -1028 90<1500.77 1589.23> -597 120<1573.57 1824.23>
AnchorPoint: "AboveMark" -920 2128 basemark 0
AnchorPoint: "AboveBase" -916 1324 mark 0
LayerCount: 2
Back
SplineSet
-1117.5 1545 m 3
 -1117.5 1519.5 -1098 1500 -1072.5 1500 c 3
 -1047 1500 -1027.5 1519.5 -1027.5 1545 c 3
 -1027.5 1570.5 -1047 1590 -1072.5 1590 c 3
 -1098 1590 -1117.5 1570.5 -1117.5 1545 c 3
-1207.5 1545 m 3
 -1207.5 1620 -1147.5 1680 -1072.5 1680 c 3
 -997.5 1680 -937.5 1620 -937.5 1545 c 3
 -937.5 1470 -997.5 1410 -1072.5 1410 c 3
 -1147.5 1410 -1207.5 1470 -1207.5 1545 c 3
-919.5 2043 m 3
 -685.5 2043 -477 1930.5 -477 1707 c 3
 -477 1546.5 -583.5 1410 -724.5 1410 c 3
 -775.5 1410 -843 1437 -843 1494 c 3
 -843 1528.5 -823.5 1545 -786 1545 c 3
 -766.5 1545 -744 1530 -720 1530 c 3
 -652.5 1530 -597 1618.5 -597 1707 c 3
 -597 1855.5 -747 1923 -919.5 1923 c 3
 -1074 1923 -1252.5 1854 -1252.5 1707 c 3
 -1252.5 1586.99 -1134 1530 -1072.5 1530 c 1
 -1072.5 1410 l 1
 -1195.5 1410 -1372.5 1516.5 -1372.5 1707 c 3
 -1372.5 1926 -1149 2043 -919.5 2043 c 3
EndSplineSet
Fore
SplineSet
-1118 1545 m 3x7e
 -1118 1519 -1098 1500 -1072 1500 c 3
 -1046 1500 -1028 1519 -1028 1545 c 3
 -1028 1571 -1046 1590 -1072 1590 c 3
 -1098 1590 -1118 1571 -1118 1545 c 3x7e
-1072 1410 m 3
 -1195 1410 -1372 1517 -1372 1707 c 3
 -1372 1926 -1150 2043 -920 2043 c 3
 -686 2043 -477 1931 -477 1707 c 3
 -477 1547 -583 1410 -724 1410 c 3
 -775 1410 -843 1437 -843 1494 c 3
 -843 1528 -824 1545 -786 1545 c 3
 -766 1545 -744 1530 -720 1530 c 3xbe
 -652 1530 -597 1619 -597 1707 c 3
 -597 1855 -748 1923 -920 1923 c 3
 -1074 1923 -1252 1854 -1252 1707 c 3
 -1252 1656 -1232 1615 -1202 1587 c 1
 -1184 1641 -1132 1680 -1072 1680 c 3
 -997 1680 -938 1620 -938 1545 c 3
 -938 1470 -997 1410 -1072 1410 c 3
EndSplineSet
Ligature2: "RA-V remove intermediate lookup" zerojoin uni1A67 uni1A55
Ligature2: "RA-VV remove intermediate lookup" zerojoin uni1A67 uni1A55 uni1A65
Ligature2: "RA-VV remove intermediate lookup" zerojoin uni1A67 uni1A55 uni1A66
Ligature2: "RA-VV remove intermediate lookup" zerojoin uni1A67 uni1A55 uni1A67
Ligature2: "RA-VV remove intermediate lookup" zerojoin uni1A67 uni1A55 uni1A68
Ligature2: "RA-VV remove intermediate lookup" zerojoin uni1A67 uni1A55 uni1A69
Ligature2: "RA-VV remove intermediate lookup" zerojoin uni1A67 uni1A55 uni1A6A
EndChar

StartChar: uni1A68
Encoding: 6760 6760 45
Width: 0
VWidth: 3390
GlyphClass: 4
Flags: W
HStem: 1410 120<-793.398 -639.333> 1410 90<-1115.99 -1028.33> 1590 90<-1117.63 -1028.33> 1626 120<-792.984 -617.439> 1923 120<-1126.04 -711.096>
VStem: -1372 120<1598.94 1818.43> -1028 90<1500.77 1589.23> -915 120<1540.09 1622.04>
AnchorPoint: "AboveMark" -920 2128 basemark 0
AnchorPoint: "AboveBase" -920 1324 mark 0
LayerCount: 2
Back
SplineSet
-919.5 1923 m 3
 -1074 1923 -1252.5 1854 -1252.5 1707 c 3
 -1252.5 1586.99 -1134 1530 -1072.5 1530 c 1
 -1072.5 1410 l 1
 -1195.5 1410 -1372.5 1516.5 -1372.5 1707 c 3
 -1372.5 1926 -1149 2043 -919.5 2043 c 3
 -685.5 2043 -477 1930.5 -477 1707 c 3
 -477 1539 -588 1410 -727.5 1410 c 3
 -831 1410 -915 1482 -915 1584 c 3
 -915 1674 -828 1746 -727.5 1746 c 3
 -529.5 1746 -378 1632 -279 1551 c 1
 -298.5 1473 l 1
 -417 1543.5 -583.5 1626 -727.5 1626 c 3
 -772.5 1626 -795 1597.5 -795 1584 c 3
 -795 1552.5 -772.5 1530 -727.5 1530 c 3
 -655.5 1530 -597 1608 -597 1707 c 3
 -597 1855.5 -747 1923 -919.5 1923 c 3
-1117.5 1545 m 3
 -1117.5 1519.5 -1098 1500 -1072.5 1500 c 3
 -1047 1500 -1027.5 1519.5 -1027.5 1545 c 3
 -1027.5 1570.5 -1047 1590 -1072.5 1590 c 3
 -1098 1590 -1117.5 1570.5 -1117.5 1545 c 3
-1207.5 1545 m 3
 -1207.5 1620 -1147.5 1680 -1072.5 1680 c 3
 -997.5 1680 -937.5 1620 -937.5 1545 c 3
 -937.5 1470 -997.5 1410 -1072.5 1410 c 3
 -1147.5 1410 -1207.5 1470 -1207.5 1545 c 3
EndSplineSet
Fore
SplineSet
-1118 1545 m 3x6f
 -1118 1519 -1098 1500 -1072 1500 c 3
 -1046 1500 -1028 1519 -1028 1545 c 3
 -1028 1571 -1046 1590 -1072 1590 c 3
 -1098 1590 -1118 1571 -1118 1545 c 3x6f
-1200 1588 m 1
 -1182 1642 -1132 1680 -1072 1680 c 3
 -997 1680 -938 1620 -938 1545 c 3
 -938 1470 -997 1410 -1072 1410 c 3x6f
 -1195 1410 -1372 1517 -1372 1707 c 0
 -1372 1926 -1150 2043 -920 2043 c 3
 -686 2043 -477 1931 -477 1707 c 2
 -477 1684 l 1
 -397 1645 -331 1593 -279 1551 c 1
 -298 1473 l 1
 -356 1507 -428 1545 -502 1575 c 1
 -542 1476 -628 1410 -728 1410 c 3
 -832 1410 -915 1482 -915 1584 c 3
 -915 1674 -828 1746 -728 1746 c 3x9f
 -683 1746 -638 1740 -598 1730 c 1
 -613 1862 -756 1923 -920 1923 c 3
 -1074 1923 -1252 1854 -1252 1707 c 3
 -1252 1656 -1230 1616 -1200 1588 c 1
-616 1612 m 1
 -654 1621 -692 1626 -728 1626 c 3
 -773 1626 -795 1598 -795 1584 c 3
 -795 1552 -773 1530 -728 1530 c 3x9f
 -682 1530 -638 1562 -616 1612 c 1
EndSplineSet
Ligature2: "RA-V remove intermediate lookup" zerojoin uni1A68 uni1A55
Ligature2: "RA-VV remove intermediate lookup" zerojoin uni1A68 uni1A55 uni1A65
Ligature2: "RA-VV remove intermediate lookup" zerojoin uni1A68 uni1A55 uni1A66
Ligature2: "RA-VV remove intermediate lookup" zerojoin uni1A68 uni1A55 uni1A67
Ligature2: "RA-VV remove intermediate lookup" zerojoin uni1A68 uni1A55 uni1A68
Ligature2: "RA-VV remove intermediate lookup" zerojoin uni1A68 uni1A55 uni1A69
Ligature2: "RA-VV remove intermediate lookup" zerojoin uni1A68 uni1A55 uni1A6A
EndChar

StartChar: uni1A69
Encoding: 6761 6761 46
Width: 0
VWidth: 3390
GlyphClass: 4
Flags: W
HStem: -738 90<-778.045 -123.376>
VStem: -987 135<-590.469 -257.624>
AnchorPoint: "BelowSideMark" -1017 -188 mark 0
AnchorPoint: "BelowBase" -920 -63 mark 0
LayerCount: 2
Fore
SplineSet
309 -546 m 1
 139 -648 -229 -738 -508 -738 c 3
 -690 -738 -849 -703 -987 -634 c 1
 -987 -267 l 1
 -937 -233 -894 -206 -852 -188 c 1
 -852 -566 l 1
 -777 -617 -650 -648 -508 -648 c 3
 -238 -648 141 -579 309 -546 c 1
EndSplineSet
Ligature2: "RA-VV remove intermediate lookup" zerojoin uni1A69 uni1A55 uni1A6A
Ligature2: "RA-VV remove intermediate lookup" zerojoin uni1A69 uni1A55 uni1A69
Ligature2: "RA-VV remove intermediate lookup" zerojoin uni1A69 uni1A55 uni1A68
Ligature2: "RA-VV remove intermediate lookup" zerojoin uni1A69 uni1A55 uni1A67
Ligature2: "RA-VV remove intermediate lookup" zerojoin uni1A69 uni1A55 uni1A66
Ligature2: "RA-VV remove intermediate lookup" zerojoin uni1A69 uni1A55 uni1A65
Ligature2: "RA-V remove intermediate lookup" zerojoin uni1A69 uni1A55
EndChar

StartChar: uni1A6A
Encoding: 6762 6762 47
Width: 0
VWidth: 3390
GlyphClass: 4
Flags: W
HStem: -738 90<-778.045 -123.376>
VStem: -987 135<-590.469 -257.624> -746 120<-506.903 -216.674>
AnchorPoint: "BelowSideMark" -1017 -188 mark 0
AnchorPoint: "BelowBase" -920 -63 mark 0
LayerCount: 2
Fore
SplineSet
-626 -502 m 1
 -652 -512 -695 -525 -746 -540 c 1
 -746 -222 l 1
 -668 -192 -626 -188 -626 -188 c 1
 -626 -502 l 1
309 -546 m 1
 139 -648 -229 -738 -508 -738 c 3
 -690 -738 -849 -703 -987 -634 c 1
 -987 -267 l 1
 -937 -233 -894 -206 -852 -188 c 1
 -852 -566 l 1
 -777 -617 -650 -648 -508 -648 c 3
 -238 -648 141 -579 309 -546 c 1
EndSplineSet
Ligature2: "RA-VV remove intermediate lookup" zerojoin uni1A6A uni1A55 uni1A6A
Ligature2: "RA-VV remove intermediate lookup" zerojoin uni1A6A uni1A55 uni1A69
Ligature2: "RA-VV remove intermediate lookup" zerojoin uni1A6A uni1A55 uni1A68
Ligature2: "RA-VV remove intermediate lookup" zerojoin uni1A6A uni1A55 uni1A67
Ligature2: "RA-VV remove intermediate lookup" zerojoin uni1A6A uni1A55 uni1A66
Ligature2: "RA-VV remove intermediate lookup" zerojoin uni1A6A uni1A55 uni1A65
Ligature2: "RA-V remove intermediate lookup" zerojoin uni1A6A uni1A55
EndChar

StartChar: uni1A6E
Encoding: 6766 6766 48
Width: 1233
VWidth: 3390
GlyphClass: 2
Flags: W
HStem: -30 99<621.611 758.219> 234 99<613.296 760.704> 1104 135<395.878 723.518>
VStem: 12 135<409.114 838.32> 506 98<129.474 222.835> 770 98<80.7028 222.835>
LayerCount: 2
Back
SplineSet
604.5 151.5 m 3x3e54
 604.5 106.5 642 69 687 69 c 3
 732 69 769.5 106.5 769.5 151.5 c 3
 769.5 196.5 732 234 687 234 c 3
 642 234 604.5 196.5 604.5 151.5 c 3x3e54
687 333 m 3
 784.5 333 868.5 249 868.5 151.5 c 3
 868.5 54 784.5 -30 687 -30 c 3
 591 -30 505.5 55.5 505.5 151.5 c 3x3e4c
 505.5 249 589.5 333 687 333 c 3
12 625.5 m 3
 12 963 241.5 1239 577.5 1239 c 3
 781.5 1239 960 1035 1111.5 667.5 c 1
 921 918 744 1104 577.5 1104 c 3
 316.5 1104 147 882 147 625.5 c 3
 147 337.5 345 105 687 105 c 1
 687 -30 l 1
 267 -30 12 264 12 625.5 c 3
EndSplineSet
Fore
SplineSet
687 333 m 3
 785 333 868 250 868 152 c 3
 868 54 785 -30 687 -30 c 3
 267 -30 12 264 12 626 c 3
 12 964 242 1239 578 1239 c 3
 782 1239 960 1036 1112 668 c 1
 922 918 744 1104 578 1104 c 3
 317 1104 147 882 147 626 c 3
 147 394 276 195 507 129 c 1
 505 137 506 144 506 152 c 3
 506 250 589 333 687 333 c 3
604 152 m 3
 604 107 642 69 687 69 c 3
 732 69 770 107 770 152 c 3
 770 197 732 234 687 234 c 3
 642 234 604 197 604 152 c 3
EndSplineSet
EndChar

StartChar: uni1A70
Encoding: 6768 6768 50
Width: 778
VWidth: 3390
GlyphClass: 2
Flags: W
HStem: -30 99<451.695 592.913> 234 99<449.778 593.379> 2355 135<274.849 789.38>
VStem: -255 135<1515.07 1968.15> 75 135<210.794 485.068> 340 100<145.721 224.901> 352 136<833.867 988.437> 604 100<78.2089 223.3>
LayerCount: 2
Back
SplineSet
439.5 151.5 m 3x3e54
 439.5 106.5 477 69 522 69 c 3
 567 69 604.5 106.5 604.5 151.5 c 3
 604.5 196.5 567 234 522 234 c 3
 477 234 439.5 196.5 439.5 151.5 c 3x3e54
522 333 m 3
 619.5 333 703.5 249 703.5 151.5 c 3
 703.5 54 619.5 -30 522 -30 c 3
 426 -30 340.5 55.5 340.5 151.5 c 3x3e4c
 340.5 249 424.5 333 522 333 c 3
-255 1732.5 m 3
 -255 2176.5 79.5 2490 525 2490 c 3
 904.5 2490 1165.5 2272.5 1263 1977 c 1
 1203 1870.5 l 1
 1078.5 2196 856.5 2355 525 2355 c 3
 150 2355 -120 2098.5 -120 1732.5 c 3
 -120 1195.5 487.5 1225.5 487.5 910.5 c 3
 487.5 783 210 541.5 210 319.5 c 3
 210 202.5 340.5 105 522 105 c 1
 522 -30 l 1
 273 -30 75 118.5 75 319.5 c 3
 75 589.5 352.5 856.5 352.5 910.5 c 3
 352.5 1089 -255 1138.5 -255 1732.5 c 3
EndSplineSet
Fore
SplineSet
522 333 m 3xfd
 620 333 704 250 704 152 c 3
 704 54 620 -30 522 -30 c 3
 273 -30 75 119 75 320 c 3
 75 590 352 856 352 910 c 3
 352 1088 -255 1138 -255 1732 c 3
 -255 2176 79 2490 525 2490 c 3
 905 2490 1165 2273 1263 1977 c 1
 1203 1870 l 1
 1079 2196 857 2355 525 2355 c 3
 150 2355 -120 2098 -120 1732 c 3
 -120 1195 488 1225 488 910 c 3xfb
 488 782 210 542 210 320 c 3
 210 248 259 183 340 144 c 1
 340 246 420 333 522 333 c 3xfd
440 152 m 3xfd
 440 107 477 69 522 69 c 3
 567 69 604 107 604 152 c 3
 604 197 567 234 522 234 c 3
 477 234 440 197 440 152 c 3xfd
EndSplineSet
EndChar

StartChar: uni1A71
Encoding: 6769 6769 51
Width: 610
VWidth: 3390
GlyphClass: 2
Flags: W
HStem: -30 99<274.091 416.219> 234 99<271.194 418.704>
VStem: -310 66<2401.5 2665.9> 102 135<305.529 717.187> 306 135<1164.33 1551.64> 428 98<80.7028 222.835>
AnchorPoint: "BelowRight" 345 -63 basechar 0
LayerCount: 2
Back
SplineSet
262.5 151.5 m 3x3e54
 262.5 106.5 300 69 345 69 c 3
 390 69 427.5 106.5 427.5 151.5 c 3
 427.5 196.5 390 234 345 234 c 3
 300 234 262.5 196.5 262.5 151.5 c 3x3e54
345 333 m 3
 442.5 333 526.5 249 526.5 151.5 c 3
 526.5 54 442.5 -30 345 -30 c 3
 249 -30 163.5 55.5 163.5 151.5 c 3x3e4c
 163.5 249 247.5 333 345 333 c 3
331.5 906 m 0
 265.5 691.5 237 520.5 237 423 c 3
 237 288 276 105 345 105 c 1
 345 -30 l 1
 186 -30 102 165 102 423 c 3
 102 547.5 133.5 715.5 196.5 927 c 128
 259.5 1138.5 306 1312.5 306 1434 c 3
 306 1522.5 241.5 1590 144 1648.5 c 0
 3 1734 -90 1806 -136.5 1866 c 0
 -244.5 2008.5 -310.5 2241 -310.5 2533.5 c 0
 -310.5 2622 -298.5 2665.5 -276 2665.5 c 0
 -265.5 2665.5 -249 2632.5 -244.5 2598 c 0
 -229.5 2497.5 -189 2247 -156 2140.5 c 0
 -124.5 2040 -43.5 1926 114 1828.5 c 0
 226.5 1759.5 303 1708.5 339 1669.5 c 0
 397.5 1603.5 441 1536 441 1434 c 3
 441 1299 400.5 1134 331.5 906 c 0
EndSplineSet
Fore
SplineSet
345 333 m 3xf8
 443 333 526 250 526 152 c 3xf4
 526 54 443 -30 345 -30 c 3
 186 -30 102 165 102 423 c 3
 102 547 133 715 196 927 c 0
 259 1139 306 1312 306 1434 c 3
 306 1522 242 1590 144 1648 c 1
 3 1734 -90 1806 -136 1866 c 0
 -244 2008 -310 2242 -310 2534 c 3
 -310 2622 -298 2666 -276 2666 c 3
 -266 2666 -248 2632 -244 2598 c 1
 -229 2498 -189 2246 -156 2140 c 0
 -124 2040 -44 1926 114 1828 c 0
 226 1759 303 1709 339 1670 c 1
 397 1604 441 1536 441 1434 c 3
 441 1299 401 1134 332 906 c 0
 268 692 237 521 237 423 c 3
 237 385 240 342 246 302 c 1
 274 322 309 333 345 333 c 3xf8
262 152 m 3
 262 107 300 69 345 69 c 3
 390 69 428 107 428 152 c 3
 428 197 390 234 345 234 c 3
 300 234 262 197 262 152 c 3
EndSplineSet
EndChar

StartChar: uni1A72
Encoding: 6770 6770 52
Width: 687
VWidth: 3390
GlyphClass: 2
Flags: W
HStem: -30 99<227.587 370.749> 234 99<226.7 370.648> 2487 135<197.056 558.175>
VStem: 57 135<827.907 1045.41> 117 99<78.6387 223.3> 495 135<216.05 442.968> 710 134<1889.27 2327.8>
AnchorPoint: "BelowRight" 298 -63 basechar 0
LayerCount: 2
Back
SplineSet
216 151.5 m 3x3e54
 216 106.5 253.5 69 298.5 69 c 3
 343.5 69 381 106.5 381 151.5 c 3
 381 196.5 343.5 234 298.5 234 c 3
 253.5 234 216 196.5 216 151.5 c 3x3e54
298.5 333 m 3
 396 333 480 249 480 151.5 c 3
 480 54 396 -30 298.5 -30 c 3
 202.5 -30 117 55.5 117 151.5 c 3x3e4c
 117 249 201 333 298.5 333 c 3
370.5 2622 m 3
 666 2622 844.5 2433 844.5 2134.5 c 3
 844.5 1960.5 789 1785 678 1609.5 c 0
 627 1530 523.5 1401 367.5 1222.5 c 0
 255 1095 192 988.5 192 924 c 3
 192 742.5 630 666 630 291 c 3
 630 138 474 -30 298.5 -30 c 1
 298.5 105 l 1
 396 105 495 208.5 495 291 c 3
 495 601.5 57 631.5 57 924 c 3
 57 1015.5 111 1129.5 225 1263 c 0
 427.5 1498.5 532.5 1624.5 543 1639.5 c 0
 657 1803 709.5 1998 709.5 2134.5 c 3
 709.5 2344.5 601.5 2487 370.5 2487 c 3
 85.5 2487 -99 2206.5 -157.5 1647 c 0
 -169.5 1537.5 -175.5 1479 -213 1408.5 c 1
 -249 1489.5 -267 1581 -267 1683 c 3
 -267 2112 -25.5 2622 370.5 2622 c 3
EndSplineSet
Fore
SplineSet
216 152 m 3xee
 216 107 253 69 298 69 c 3
 343 69 381 107 381 152 c 3
 381 197 343 234 298 234 c 3
 253 234 216 197 216 152 c 3xee
298 -30 m 3
 202 -30 117 56 117 152 c 3xee
 117 250 200 333 298 333 c 3
 374 333 444 281 470 212 c 1
 486 238 495 265 495 291 c 3
 495 601 57 632 57 924 c 3
 57 1016 111 1129 225 1263 c 0
 426 1499 533 1625 543 1640 c 0
 657 1804 710 1998 710 2134 c 3
 710 2344 601 2487 370 2487 c 3
 85 2487 -96 2207 -158 1647 c 0
 -170 1537 -175 1478 -213 1408 c 1
 -249 1489 -267 1581 -267 1683 c 3
 -267 2112 -26 2622 370 2622 c 3
 666 2622 844 2432 844 2134 c 3
 844 1960 789 1786 678 1610 c 0
 627 1530 524 1400 368 1222 c 0
 256 1094 192 988 192 924 c 3xf6
 192 742 630 666 630 291 c 3
 630 138 474 -30 298 -30 c 3
EndSplineSet
EndChar

StartChar: uni1A6D
Encoding: 6765 6765 53
Width: 553
VWidth: 3390
GlyphClass: 2
Flags: W
HStem: -657 135<-632.611 -51.9926> -285 99<-842.219 -699.781> 1868 127<-112.981 331.901> 2139 135<-910.681 -644.319>
VStem: -952 98<-436.159 -296.703> -688 98<-439.648 -296.703> 206 134<-219.616 1389.05>
LayerCount: 2
Back
SplineSet
-853.5 -367.5 m 3x3e54
 -853.5 -412.5 -816 -450 -771 -450 c 3
 -726 -450 -688.5 -412.5 -688.5 -367.5 c 3
 -688.5 -322.5 -726 -285 -771 -285 c 3
 -816 -285 -853.5 -322.5 -853.5 -367.5 c 3x3e54
-771 -186 m 3
 -673.5 -186 -589.5 -270 -589.5 -367.5 c 3
 -589.5 -465 -673.5 -549 -771 -549 c 3
 -867 -549 -952.5 -463.5 -952.5 -367.5 c 3x3e4c
 -952.5 -270 -868.5 -186 -771 -186 c 3
205.5 204 m 2
 205.5 1236 l 2
 205.5 1368 120 1477.5 -22.5 1578 c 0
 -291 1765.5 -849 1930.5 -1281 1986 c 1
 -1198.5 2068.5 -955.5 2274 -756 2274 c 3
 -706.5 2274 -577.5 2227.5 -366 2134.5 c 128
 -154.5 2041.5 13.5 1995 138 1995 c 3
 297 1995 400.5 2062.5 517.5 2160 c 1
 451.5 1930.5 289.5 1867.5 124.5 1867.5 c 3
 -3 1867.5 -181.5 1912.5 -406.5 2004 c 128
 -631.5 2095.5 -768 2139 -814.5 2139 c 3
 -847.5 2139 -916.5 2097 -918 2085 c 1
 -514.5 1954.5 -133.5 1819.5 79.5 1668 c 0
 243 1552.5 340.5 1408.5 340.5 1236 c 2
 340.5 204 l 2
 340.5 -387 220.5 -657 -349.5 -657 c 3
 -616.5 -657 -952.5 -577.5 -952.5 -367.5 c 1
 -817.5 -367.5 l 1
 -817.5 -450 -585 -522 -349.5 -522 c 3
 96 -522 205.5 -363 205.5 204 c 2
EndSplineSet
Fore
SplineSet
-771 -186 m 3
 -673 -186 -590 -270 -590 -368 c 3
 -590 -413 -608 -454 -636 -486 c 1
 -554 -508 -452 -522 -350 -522 c 3
 96 -522 206 -363 206 204 c 2
 206 1236 l 2
 206 1368 120 1478 -22 1578 c 0
 -290 1766 -849 1930 -1281 1986 c 1
 -1199 2068 -956 2274 -756 2274 c 3
 -706 2274 -578 2227 -366 2134 c 0
 -154 2041 14 1995 138 1995 c 3
 297 1995 401 2062 518 2160 c 1
 452 1930 289 1868 124 1868 c 3
 -4 1868 -181 1912 -406 2004 c 0
 -631 2096 -768 2139 -814 2139 c 3
 -847 2139 -916 2097 -918 2085 c 1
 -514 1955 -133 1820 80 1668 c 0
 244 1552 340 1408 340 1236 c 2
 340 204 l 2
 340 -387 220 -657 -350 -657 c 3
 -617 -657 -952 -578 -952 -368 c 3
 -952 -270 -869 -186 -771 -186 c 3
-854 -368 m 3
 -854 -413 -816 -450 -771 -450 c 3
 -726 -450 -688 -413 -688 -368 c 3
 -688 -323 -726 -285 -771 -285 c 3
 -816 -285 -854 -323 -854 -368 c 3
EndSplineSet
EndChar

StartChar: uni1A54
Encoding: 6740 6740 54
Width: 2211
VWidth: 3390
GlyphClass: 2
Flags: W
HStem: -30 135<578.952 979.793 1380.23 1707.79> -30 99<79.1139 211.13> 234 99<78.2089 218.991> 876 99<103.509 219.509> 1140 99<102.621 245.379 983.186 1104.43> 1149 90<1748.71 1857.76>
VStem: -30 99<79.1139 222.835> -8 100<984.639 1129.3> 220 136<326 882> 256 100<984.236 1127.62> 1196 134<326.852 761.31> 1928 134<360.945 809.234>
AnchorPoint: "BelowRight" 1836 -63 basechar 0
AnchorPoint: "AboveBase" 1538 1324 basechar 0
AnchorPoint: "BelowBase" 1538 -63 basechar 0
LayerCount: 2
Back
SplineSet
1227 273 m 17
 1309.5 169.5 1440 105 1537.5 105 c 0
 1761 105 1927.5 289.5 1927.5 603 c 3
 1927.5 855 1783.5 940.5 1651.5 1075.5 c 0
 1600.5 1128 1572 1159.5 1572 1167 c 0
 1572 1191 1726.5 1239 1755 1239 c 3
 1833 1239 1894.5 1203 1941 1131 c 0
 1966.5 1092 1993.5 1021.5 2025 918 c 1
 1902 1072.5 1822.5 1149 1786.5 1149 c 3
 1785 1149 1779 1147.5 1770 1144.5 c 1
 1888.5 1036.5 2062.5 871.5 2062.5 603 c 3
 2062.5 196.5 1824 -30 1537.5 -30 c 3
 1396.5 -30 1222.5 54 1114.5 196.5 c 1
 1227 273 l 17
91.5 1057.5 m 3x3e54
 91.5 1012.5 129 975 174 975 c 3
 219 975 256.5 1012.5 256.5 1057.5 c 3
 256.5 1102.5 219 1140 174 1140 c 3
 129 1140 91.5 1102.5 91.5 1057.5 c 3x3e54
174 1239 m 3
 271.5 1239 355.5 1155 355.5 1057.5 c 3
 355.5 960 271.5 876 174 876 c 3
 78 876 -7.5 961.5 -7.5 1057.5 c 3x3e4c
 -7.5 1155 76.5 1239 174 1239 c 3
151.5 -30 m 3
 55.5 -30 -30 55.5 -30 151.5 c 3x3e4c
 -30 249 54 333 151.5 333 c 3
 223.5 333 276 312 322.5 286.5 c 0
 463.5 207 606 105 786 105 c 3
 1009.5 105 1195.5 264 1195.5 523.5 c 3
 1195.5 781.5 1066.5 979.5 816 1155 c 1
 880.5 1210.5 940.5 1239 996 1239 c 3
 1024.5 1239 1090.5 1206 1194 1143 c 128
 1297.5 1080 1357.5 1035 1372.5 1009.5 c 1
 1347 1009.5 1294.5 1030.5 1212 1071 c 128
 1129.5 1111.5 1072.5 1131 1039.5 1131 c 3
 1038 1131 1033.5 1129.5 1026 1128 c 1
 1228.5 979.5 1330.5 790.5 1330.5 523.5 c 3
 1330.5 211.5 1104 -30 786 -30 c 3
 553.5 -30 417 79.5 265.5 187.5 c 0
 229.5 213 190.5 234 151.5 234 c 3
 106.5 234 69 196.5 69 151.5 c 3x3e54
 69 106.5 106.5 69 151.5 69 c 3
 196.5 69 220.5 108 220.5 168 c 2
 220.5 1057.5 l 1
 355.5 1057.5 l 1
 355.5 213 l 2
 355.5 49.5 247.5 -30 151.5 -30 c 3
EndSplineSet
Fore
SplineSet
92 1058 m 3x3970
 92 1013 129 975 174 975 c 3
 219 975 256 1013 256 1058 c 3
 256 1103 219 1140 174 1140 c 3
 129 1140 92 1103 92 1058 c 3x3970
220 214 m 1x72b0
 198 226 174 234 152 234 c 3
 107 234 69 197 69 152 c 3
 69 107 107 69 152 69 c 3
 197 69 220 108 220 168 c 2
 220 214 l 1x72b0
220 326 m 1
 220 882 l 1x72b0
 205 878 190 876 174 876 c 3
 78 876 -8 962 -8 1058 c 3
 -8 1156 76 1239 174 1239 c 3
 272 1239 356 1156 356 1058 c 2
 356 267 l 1
 486 191 620 105 786 105 c 3
 1010 105 1196 264 1196 524 c 3
 1196 782 1066 979 816 1155 c 1
 880 1211 940 1239 996 1239 c 3xb970
 1024 1239 1090 1206 1194 1143 c 0
 1298 1080 1357 1036 1372 1010 c 1
 1346 1010 1294 1031 1212 1071 c 0
 1130 1111 1073 1131 1040 1131 c 3
 1038 1131 1034 1130 1026 1128 c 1
 1228 980 1330 791 1330 524 c 3
 1330 419 1304 320 1258 238 c 1
 1340 156 1452 105 1538 105 c 3
 1762 105 1928 289 1928 603 c 3
 1928 855 1784 941 1652 1076 c 0
 1601 1128 1572 1159 1572 1167 c 0
 1572 1191 1727 1239 1755 1239 c 3
 1833 1239 1895 1203 1941 1131 c 0
 1967 1092 1993 1022 2025 918 c 1
 1902 1072 1822 1149 1786 1149 c 3
 1784 1149 1779 1147 1770 1144 c 1
 1888 1036 2062 871 2062 603 c 3
 2062 197 1824 -30 1538 -30 c 3
 1421 -30 1282 28 1176 128 c 1
 1080 29 944 -30 786 -30 c 3xb570
 594 -30 468 43 345 130 c 1
 317 22 230 -30 152 -30 c 3
 56 -30 -30 56 -30 152 c 3
 -30 250 54 333 152 333 c 3
 178 333 199 330 220 326 c 1
EndSplineSet
Ligature2: "ANG-LAN remove intermediate lookup" uni1A58 zerojoin uni1A54
Ligature2: "LV remove intermediate for cons" uni1A54 zerojoin uni1A6E
Ligature2: "LV remove intermediate for cons" uni1A54 zerojoin uni1A6F
Ligature2: "LV remove intermediate for cons" uni1A54 zerojoin uni1A70
Ligature2: "LV remove intermediate for cons" uni1A54 zerojoin uni1A71
Ligature2: "LV remove intermediate for cons" uni1A54 zerojoin uni1A72
Ligature2: "RA-C remove intermediate lookup" uni1A54 zerojoin uni1A55
MultipleSubs2: "ANG-LAN append intermediate lookup" zerojoin uni1A54 uni1A58.lai
MultipleSubs2: "LV E prepend intermediate lookup" uni1A6E uni1A54 zerojoin
MultipleSubs2: "LV AE prepend intermediate lookup" uni1A6F uni1A54 zerojoin
MultipleSubs2: "LV O prepend intermediate lookup" uni1A70 uni1A54 zerojoin
MultipleSubs2: "LV AI MAIMALAI prepend intermediate lookup" uni1A71 uni1A54 zerojoin
MultipleSubs2: "LV AI MAIMUAN prepend intermediate lookup" uni1A72 uni1A54 zerojoin
MultipleSubs2: "RA prepend intermediate lookup" uni1A55 uni1A54 zerojoin
MultipleSubs2: "RA-I prepend intermediate lookup" uni1A55 uni1A65 uni1A54 zerojoin
MultipleSubs2: "RA-II prepend intermediate lookup" uni1A55 uni1A66 uni1A54 zerojoin
MultipleSubs2: "RA-UE prepend intermediate lookup" uni1A55 uni1A67 uni1A54 zerojoin
MultipleSubs2: "RA-UEE prepend intermediate lookup" uni1A55 uni1A68 uni1A54 zerojoin
MultipleSubs2: "RA-U prepend intermediate lookup" uni1A55 uni1A69 uni1A54 zerojoin
MultipleSubs2: "RA-UU prepend intermediate lookup" uni1A55 uni1A6A uni1A54 zerojoin
EndChar

StartChar: uni1A55
Encoding: 6741 6741 55
Width: 441
VWidth: 3390
GlyphClass: 2
Flags: W
HStem: -514 134<353.241 541.5> -171 99<601.087 742.913> 2110 136<977.198 1715.46>
VStem: 90 135<-221.641 1592.95> 490 100<-326.304 -180.209> 754 100<-325.986 -180.209>
AnchorPoint: "BelowBase" 494 -548 basechar 0
AnchorPoint: "AboveBase" 501 2210 basechar 0
LayerCount: 2
Back
SplineSet
589.5 -253.5 m 3x3e54
 589.5 -298.5 627 -336 672 -336 c 3
 717 -336 754.5 -298.5 754.5 -253.5 c 3
 754.5 -208.5 717 -171 672 -171 c 3
 627 -171 589.5 -208.5 589.5 -253.5 c 3x3e54
672 -72 m 3
 769.5 -72 853.5 -156 853.5 -253.5 c 3
 853.5 -351 769.5 -435 672 -435 c 3
 576 -435 490.5 -349.5 490.5 -253.5 c 3x3e4c
 490.5 -156 574.5 -72 672 -72 c 3
493.5 -514.5 m 3
 267 -514.5 90 -349.5 90 13.5 c 2
 90 1381.5 l 2
 90 1944 724.5 2245.5 1324.5 2245.5 c 3
 1831.5 2245.5 2167.5 2049 2557.5 1845 c 1
 2239.5 1926 1771.5 2110.5 1405.5 2110.5 c 3
 802.5 2110.5 225 1870.5 225 1381.5 c 2
 225 13.5 l 2
 225 -265.5 340.5 -379.5 493.5 -379.5 c 3
 630 -379.5 718.5 -321 718.5 -253.5 c 1
 853.5 -253.5 l 1
 853.5 -436.5 661.5 -514.5 493.5 -514.5 c 3
EndSplineSet
Fore
SplineSet
590 -254 m 3
 590 -299 627 -336 672 -336 c 3
 717 -336 754 -299 754 -254 c 3
 754 -209 717 -171 672 -171 c 3
 627 -171 590 -209 590 -254 c 3
542 -376 m 1
 510 -343 490 -300 490 -254 c 3
 490 -156 574 -72 672 -72 c 3
 770 -72 854 -156 854 -254 c 3
 854 -437 662 -514 494 -514 c 3
 268 -514 90 -349 90 14 c 2
 90 1382 l 2
 90 1944 724 2246 1324 2246 c 3
 1831 2246 2168 2049 2558 1845 c 1
 2240 1926 1772 2110 1406 2110 c 3
 803 2110 225 1871 225 1382 c 2
 225 14 l 2
 225 -265 341 -380 494 -380 c 3
 510 -380 527 -378 542 -376 c 1
EndSplineSet
LCarets2: 2 0 0 
Ligature2: "LV remove intermediate for subjoin" zerojoin uni1A55 uni1A6E
Ligature2: "LV remove intermediate for subjoin" zerojoin uni1A55 uni1A6F
Ligature2: "LV remove intermediate for subjoin" zerojoin uni1A55 uni1A70
Ligature2: "LV remove intermediate for subjoin" zerojoin uni1A55 uni1A71
Ligature2: "LV remove intermediate for subjoin" zerojoin uni1A55 uni1A72
EndChar

StartChar: uni1A56
Encoding: 6742 6742 56
Width: 0
VWidth: 3390
GlyphClass: 4
Flags: W
HStem: -688 120<-732.347 -501.99> -688 90<-1354.06 -1266.77> -508 90<-1355.09 -1266.77> -244 120<-1359.93 -1087.61>
VStem: -1545 120<-469.348 -303.972> -1266 90<-597.675 -509.219> -432 120<-502.156 -318.564>
AnchorPoint: "BelowMark" -920 -688 basemark 0
AnchorPoint: "BelowRightMark" -432 -688 basemark 0
AnchorPoint: "BelowSideMark" -282 -562 basemark 0
AnchorPoint: "BelowMark" -920 -63 mark 0
LayerCount: 2
Back
SplineSet
-1356 -553.5 m 3
 -1356 -579 -1336.5 -598.5 -1311 -598.5 c 3
 -1285.5 -598.5 -1266 -579 -1266 -553.5 c 3
 -1266 -528 -1285.5 -508.5 -1311 -508.5 c 3
 -1336.5 -508.5 -1356 -528 -1356 -553.5 c 3
-1446 -553.5 m 3
 -1446 -478.5 -1386 -418.5 -1311 -418.5 c 3
 -1236 -418.5 -1176 -478.5 -1176 -553.5 c 3
 -1176 -628.5 -1236 -688.5 -1311 -688.5 c 3
 -1386 -688.5 -1446 -628.5 -1446 -553.5 c 3
-637.5 -568.5 m 3
 -537 -568.5 -432 -498 -432 -408 c 3
 -432 -367.5 -466.5 -309 -544.5 -273 c 1
 -520.5 -175.5 -475.5 -124.5 -411 -124.5 c 3
 -346.5 -124.5 -276 -214.5 -198 -396 c 1
 -243 -358.5 -313.5 -307.5 -408 -240 c 1
 -369 -280.5 -312 -331.5 -312 -408 c 3
 -312 -568.5 -471 -688.5 -637.5 -688.5 c 3
 -910.5 -688.5 -975 -244.5 -1203 -244.5 c 3
 -1330.5 -244.5 -1425 -306 -1425 -408 c 3
 -1425 -519 -1369.5 -568.5 -1311 -568.5 c 1
 -1311 -688.5 l 1
 -1464 -688.5 -1545 -553.5 -1545 -408 c 3
 -1545 -249 -1407 -124.5 -1203 -124.5 c 3
 -892.5 -124.5 -825 -568.5 -637.5 -568.5 c 3
EndSplineSet
Fore
SplineSet
-1356 -554 m 3x7e
 -1356 -580 -1337 -598 -1311 -598 c 3
 -1285 -598 -1266 -580 -1266 -554 c 3
 -1266 -528 -1285 -508 -1311 -508 c 3
 -1337 -508 -1356 -528 -1356 -554 c 3x7e
-1311 -688 m 3
 -1464 -688 -1545 -554 -1545 -408 c 3
 -1545 -249 -1407 -124 -1203 -124 c 3
 -893 -124 -826 -568 -638 -568 c 3
 -538 -568 -432 -498 -432 -408 c 3
 -432 -368 -466 -309 -544 -273 c 1
 -520 -175 -475 -124 -411 -124 c 3
 -347 -124 -276 -214 -198 -396 c 1
 -243 -358 -314 -308 -408 -240 c 1
 -369 -280 -312 -332 -312 -408 c 3
 -312 -568 -472 -688 -638 -688 c 3xbe
 -911 -688 -975 -244 -1203 -244 c 3
 -1331 -244 -1425 -306 -1425 -408 c 3
 -1425 -432 -1422 -453 -1418 -471 c 1
 -1394 -439 -1355 -418 -1311 -418 c 3
 -1236 -418 -1176 -479 -1176 -554 c 3
 -1176 -629 -1236 -688 -1311 -688 c 3
EndSplineSet
LCarets2: 2 0 0 
Ligature2: "LV remove intermediate for subjoin" zerojoin uni1A56 uni1A6E
Ligature2: "LV remove intermediate for subjoin" zerojoin uni1A56 uni1A6F
Ligature2: "LV remove intermediate for subjoin" zerojoin uni1A56 uni1A70
Ligature2: "LV remove intermediate for subjoin" zerojoin uni1A56 uni1A71
Ligature2: "LV remove intermediate for subjoin" zerojoin uni1A56 uni1A72
Ligature2: "RA-S remove intermediate lookup" zerojoin uni1A56 uni1A55
EndChar

StartChar: uni1A53
Encoding: 6739 6739 57
Width: 1882
VWidth: 7140
GlyphClass: 2
Flags: W
HStem: -30 135<1039.82 1431.9> -30 99<294.357 436.913> 234 99<293.525 437.379> 1104 135<383.858 707.612 1139.19 1505.86> 1240 21G<1821.5 1855> 2032 136<993.791 1411.15>
VStem: 24 135<363.901 862.108> 448 100<78.2089 223.3> 669 135<1513.16 1859.56> 748 136<234.044 452.211> 852 135<535.639 949.572> 1509 135<1009.3 1098.65> 1638 135<327.114 723.157> 1850 16<1251.59 1633>
AnchorPoint: "BelowRight" 1508 -63 basechar 0
AnchorPoint: "BelowBase" 867 -63 basechar 0
LayerCount: 2
Back
SplineSet
283.5 151.5 m 3x7e40
 283.5 106.5 321 69 366 69 c 3
 411 69 448.5 106.5 448.5 151.5 c 3
 448.5 196.5 411 234 366 234 c 3
 321 234 283.5 196.5 283.5 151.5 c 3x7e40
366 333 m 3
 463.5 333 547.5 249 547.5 151.5 c 3
 547.5 54 463.5 -30 366 -30 c 3xbe40
 270 -30 184.5 55.5 184.5 151.5 c 3
 184.5 249 268.5 333 366 333 c 3
24 667.5 m 3
 24 970.5 252 1239 556.5 1239 c 3
 831 1239 987 1012.5 987 753 c 3x7d80
 987 567 964.5 499.5 897 435 c 0
 885 423 883.5 391.5 883.5 363 c 3
 883.5 204 1051.5 105 1257 105 c 3
 1482 105 1638 288 1638 532.5 c 3
 1638 708 1537.5 871.5 1326 1000.5 c 1
 1434 993 l 1
 1519.5 1009.5 l 1
 1531.5 1000.5 1542 991.5 1546.5 987 c 0
 1659 874.5 1773 700.5 1773 532.5 c 3
 1773 231 1575 -30 1257 -30 c 3
 981 -30 748.5 117 748.5 363 c 3xbe80
 748.5 460.5 766.5 495 804 532.5 c 0
 847.5 576 852 648 852 753 c 3
 852 948 742.5 1104 556.5 1104 c 3
 322.5 1104 159 883.5 159 667.5 c 3
 159 390 276 105 366 105 c 1
 366 -30 l 1
 136.5 -30 24 390 24 667.5 c 3
1206 2032.5 m 3
 993 2032.5 804 1924.5 804 1693.5 c 3
 804 1398 1089 1239 1405.5 1239 c 3
 1567.5 1239 1644 1159.5 1644 1056 c 3
 1644 975 1551 924 1492.5 924 c 0
 1434 924 1404 954 1326 1000.5 c 1
 1390.5 1000.5 l 2
 1470 1000.5 1509 1021.5 1509 1056 c 3
 1509 1089 1477.5 1104 1405.5 1104 c 3
 1000.5 1104 669 1326 669 1693.5 c 3
 669 1989 903 2167.5 1206 2167.5 c 3
 1600.5 2167.5 1866 1824 1866 1419 c 3
 1866 1360.5 1860 1302 1849.5 1240.5 c 1
 1792.5 1633.5 1606.5 2032.5 1206 2032.5 c 3
EndSplineSet
Fore
SplineSet
1206 2032 m 3xbf94
 993 2032 804 1925 804 1694 c 3
 804 1398 1090 1239 1406 1239 c 3
 1568 1239 1644 1160 1644 1056 c 3xbf94
 1644 1011 1616 974 1580 952 c 1
 1680 840 1773 684 1773 532 c 3
 1773 230 1575 -30 1257 -30 c 3
 981 -30 748 117 748 363 c 3xbf4c
 748 461 766 494 804 532 c 0
 848 576 852 648 852 753 c 3
 852 948 742 1104 556 1104 c 3
 322 1104 159 884 159 668 c 3
 159 526 190 379 232 273 c 1
 265 311 314 333 366 333 c 3
 464 333 548 250 548 152 c 3
 548 54 464 -30 366 -30 c 3
 136 -30 24 390 24 668 c 3
 24 971 252 1239 556 1239 c 3
 830 1239 987 1013 987 753 c 3x7fa4
 987 567 965 499 897 435 c 0
 885 423 884 391 884 363 c 3
 884 204 1051 105 1257 105 c 3
 1482 105 1638 288 1638 532 c 3xbf4c
 1638 708 1538 871 1326 1000 c 1
 1390 1000 l 2
 1470 1000 1509 1022 1509 1056 c 3
 1509 1089 1478 1104 1406 1104 c 3
 1001 1104 669 1326 669 1694 c 3
 669 1990 903 2168 1206 2168 c 3
 1600 2168 1866 1824 1866 1419 c 0
 1866 1361 1860 1302 1850 1240 c 1
 1793 1633 1606 2032 1206 2032 c 3xbf94
284 152 m 3
 284 107 321 69 366 69 c 3x7f04
 411 69 448 107 448 152 c 3
 448 197 411 234 366 234 c 3
 321 234 284 197 284 152 c 3
EndSplineSet
EndChar

